<?xml version="1.0" encoding="utf-8" ?>
<svg baseProfile="full" height="200mm" version="1.1" viewBox="0,0,200,200" width="200mm" xmlns="http://www.w3.org/2000/svg" xmlns:ev="http://www.w3.org/2001/xml-events" xmlns:xlink="http://www.w3.org/1999/xlink"><defs /><rect fill="#1a1a1a" height="200" width="200" x="0" y="0" /><text alignment-baseline="middle" fill="#e1ed5e" style="dominant-baseline: central; font-size:9.0px; font-family:Arial;" text-anchor="middle" x="100.0" y="100.0">2021</text><line stroke="#e1ed5e" stroke-width="0.3" x1="100.0" x2="100.0" y1="15.0" y2="10.0" /><path d="M 100.0 14.0 a86.0,86.0 0 0,1 42.46469731375804,11.215312516191453" fill="none" id="id1" stroke="none" /><text fill="#e1ed5e" style="font-size:6.75px; font-family:Arial;" text-anchor="middle"><textPath startOffset="22.20632615414155" xlink:href="#id1">January</textPath></text><line stroke="#e1ed5e" stroke-width="0.3" x1="143.23703022742887" x2="145.7803849466894" y1="26.81831364943548" y2="22.513508569990506" /><path d="M 143.74570117128098 25.957352633546492 a86.0,86.0 0 0,1 28.547481713284135,27.462654790039103" fill="none" id="id2" stroke="none" /><text fill="#e1ed5e" style="font-size:6.75px; font-family:Arial;" text-anchor="middle"><textPath startOffset="19.985693538727396" xlink:href="#id2">February</textPath></text><line stroke="#e1ed5e" stroke-width="0.3" x1="172.23445277983987" x2="176.4835382374775" y1="55.19839476539836" y2="52.563006222186495" /><path d="M 173.08426987136738 54.67131705675599 a86.0,86.0 0 0,1 12.851231095245387,41.99856678651699" fill="none" id="id3" stroke="none" /><text fill="#e1ed5e" style="font-size:6.75px; font-family:Arial;" text-anchor="middle"><textPath startOffset="22.20632615414155" xlink:href="#id3">March</textPath></text><line stroke="#e1ed5e" stroke-width="0.3" x1="184.98032266829074" x2="189.97916517819016" y1="98.17113171792111" y2="98.06355123074" /><path d="M 185.9800911702706 98.14961562048488 a86.0,86.0 0 0,1 -9.607161424134198,41.387399972396054" fill="none" id="id4" stroke="none" /><text fill="#e1ed5e" style="font-size:6.75px; font-family:Arial;" text-anchor="middle"><textPath startOffset="21.466115282336823" xlink:href="#id4">April</textPath></text><line stroke="#e1ed5e" stroke-width="0.3" x1="174.80103733775053" x2="179.2010983576182" y1="140.37084112569926" y2="142.7455964860345" /><path d="M 175.68104954172406 140.8457921977663 a86.0,86.0 0 0,1 -30.038265399797805,32.042727171017184" fill="none" id="id5" stroke="none" /><text fill="#e1ed5e" style="font-size:6.75px; font-family:Arial;" text-anchor="middle"><textPath startOffset="22.206326154141568" xlink:href="#id5">May</textPath></text><line stroke="#e1ed5e" stroke-width="0.3" x1="143.8653032363475" x2="146.44561519142675" y1="172.8068346515853" y2="177.08958963109032" /><path d="M 144.38136562736335 173.6633856474863 a86.0,86.0 0 0,1 -40.68145358897372,12.25698825130547" fill="none" id="id6" stroke="none" /><text fill="#e1ed5e" style="font-size:6.75px; font-family:Arial;" text-anchor="middle"><textPath startOffset="21.466115282336833" xlink:href="#id6">June</textPath></text><line stroke="#e1ed5e" stroke-width="0.3" x1="102.19456741930631" x2="102.32365962044197" y1="184.97166512339345" y2="189.96999836594603" /><path d="M 102.22038585953345 185.97133177190398 a86.0,86.0 0 0,1 -42.740103519485714,-10.115201625700543" fill="none" id="id7" stroke="none" /><text fill="#e1ed5e" style="font-size:6.75px; font-family:Arial;" text-anchor="middle"><textPath startOffset="22.20632615414155" xlink:href="#id7">July</textPath></text><line stroke="#e1ed5e" stroke-width="0.3" x1="58.666819895761336" x2="56.23545636021788" y1="174.27360380694188" y2="178.64263932499728" /><path d="M 58.180547188652646 175.14741091055294 a86.0,86.0 0 0,1 -31.652253787137756,-30.449443065178592" fill="none" id="id8" stroke="none" /><text fill="#e1ed5e" style="font-size:6.75px; font-family:Arial;" text-anchor="middle"><textPath startOffset="22.20632615414155" xlink:href="#id8">August</textPath></text><line stroke="#e1ed5e" stroke-width="0.3" x1="26.63291911575756" x2="22.317208475507996" y1="142.92168965132927" y2="145.44649492493687" /><path d="M 25.769776987707644 143.4266507060508 a86.0,86.0 0 0,1 -11.730757126820373,-40.83630448921669" fill="none" id="id9" stroke="none" /><text fill="#e1ed5e" style="font-size:6.75px; font-family:Arial;" text-anchor="middle"><textPath startOffset="21.46611528233685" xlink:href="#id9">September</textPath></text><line stroke="#e1ed5e" stroke-width="0.3" x1="15.007084014347285" x2="10.007500721073583" y1="101.09737516637583" y2="101.16192664675087" /><path d="M 14.007167355692545 101.11028546245083 a86.0,86.0 0 0,1 10.666146001902534,-42.60595125391555" fill="none" id="id10" stroke="none" /><text fill="#e1ed5e" style="font-size:6.75px; font-family:Arial;" text-anchor="middle"><textPath startOffset="22.20632615414155" xlink:href="#id10">October</textPath></text><line stroke="#e1ed5e" stroke-width="0.3" x1="26.266209847984243" x2="21.928928074336255" y1="57.711370442889674" y2="55.22380399835377" /><path d="M 25.398753493254645 57.213857153982495 a86.0,86.0 0 0,1 29.58750427330803,-30.492523968695096" fill="none" id="id11" stroke="none" /><text fill="#e1ed5e" style="font-size:6.75px; font-family:Arial;" text-anchor="middle"><textPath startOffset="21.46611528233685" xlink:href="#id11">November</textPath></text><line stroke="#e1ed5e" stroke-width="0.3" x1="56.762969772571076" x2="54.21961505331055" y1="26.818313649435495" y2="22.513508569990535" /><path d="M 56.25429882871897 25.957352633546506 a86.0,86.0 0 0,1 42.265352541879196,-11.944610805530505" fill="none" id="id12" stroke="none" /><text fill="#e1ed5e" style="font-size:6.75px; font-family:Arial;" text-anchor="middle"><textPath startOffset="22.20632615414155" xlink:href="#id12">December</textPath></text><path d="M 91.23893434514133 80.91482961587045 l -8.561596292696564 -18.650644846569367 a41.521878185779684,41.521878185779684 0 0,0 0.6521265666911671,-0.29259018144117266 l 8.239287607538621 18.79525535852707" fill="#ffc111" stroke="none" /><path d="M 91.56875222667455 80.76684994638697 l -7.427375317215489 -16.94314149234919 a39.49962020508926,39.49962020508926 0 0,0 0.6250650169173941,-0.26762021943194136 l 7.134626542507787 17.06848123974392" fill="#ffa30f" stroke="none" /><path d="M 91.90106846888425 80.62456947434976 l -7.027211725091284 -16.81150804219521 a39.22110060567294,39.22110060567294 0 0,0 0.6251397631055082,-0.2550102056953979 l 6.736788092397395 16.929979134074188" fill="#ff9f0e" stroke="none" /><path d="M 92.57280143429618 80.3572730644239 l -13.670917942839296 -36.15550408869585 a59.65377696044136,59.65377696044136 0 0,0 0.9636007371144191,-0.3549022836403828 l 13.046534879952306 36.38546964014255" fill="#53ff2b" stroke="none" /><path d="M 93.25333710446033 80.11325718540243 l -6.650102825313462 -19.602118354700885 a41.699442301157376,41.699442301157376 0 0,0 0.6817207068999449,-0.2247525987873793 l 6.311699296171108 19.713684677747498" fill="#ffc312" stroke="none" /><path d="M 93.59665428221793 80.00007090966166 l -7.1161014422802396 -22.226119050550814 a44.33750774581726,44.33750774581726 0 0,0 0.7288550576860707,-0.22645881430768344 l 6.73246101188344 22.34531799974102" fill="#ffe915" stroke="none" /><path d="M 93.94186890950719 79.89281104454417 l -9.101062268494749 -30.206804044761466 a52.54806404541547,52.54806404541547 0 0,0 0.8683186792121589,-0.25348603332799174 l 8.57975337155917 30.358988407008155" fill="#a8ff21" stroke="none" /><path d="M 94.28887869178378 79.79150937346287 l -3.2444493489416764 -11.48030670650219 a32.929957822775705,32.929957822775705 0 0,0 0.5467974190750323,-0.14946039002537753 l 3.0463540406429215 11.534453637353865" fill="#ff3f05" stroke="none" /><path d="M 95.33964822691252 79.52364482259891 l -13.98105531926245 -61.42906553220327 a84.0,84.0 0 0,0 1.4126291033859162,-0.30874600761652715 l 12.921583491723013 61.66062503791566" fill="#4dd2ff" stroke="none" /><path d="M 96.40284397218896 79.31037775812273 l -4.447100714215182 -25.578215995452545 a46.961930557498945,46.961930557498945 0 0,0 0.797616621580651,-0.13161357680373995 l 4.006154886495644 25.65097583519591" fill="#f1ff19" stroke="none" /><path d="M 97.11714578562143 79.19881850522333 l -3.390222034365697 -24.462084656484574 a45.69589421712275,45.69589421712275 0 0,0 0.78006214497626,-0.10127445435138674 l 2.968645160881579 24.5168174340001" fill="#fffc17" stroke="none" /><path d="M 97.47563105711357 79.15227682838746 l -4.0316634976860435 -33.295847961410814 a54.53904891358666,54.53904891358666 0 0,0 0.9329639204129748,-0.10482936704844366 l 3.45793287376335 33.360313281929855" fill="#8fff24" stroke="none" /><path d="M 97.83486435360386 79.11191278185805 l -0.9953815885714701 -9.602916783537822 a30.654366642013315,30.654366642013315 0 0,0 0.5253207761630401,-0.049885537534419926 l 0.8299356853181937 9.618627865587422" fill="#ff1a02" stroke="none" /><path d="M 98.19473922651362 79.07773832637324 l -2.313979340544654 -26.818109594628485 a47.917754412617185,47.917754412617185 0 0,0 0.8223823235254064,-0.06383269601002975 l 1.8520068276569135 26.853967552826976" fill="#e4ff1a" stroke="none" /><path d="M 98.91598698831166 79.02799685794201 l -0.7016062787186259 -13.57371998594151 a34.591840406180665,34.591840406180665 0 0,0 0.5949123946294074,-0.025618179144210093 l 0.46785305169989444 13.583785891609912" fill="#ff5908" stroke="none" /><path d="M 99.27714615592234 79.0124445844662 l -0.27738271822733473 -8.05361307517945 a29.058388470226078,29.058388470226078 0 0,0 0.5000441722523776,-0.012914665695270475 l 0.1387119107800781 8.05719453301708" fill="#ff0000" stroke="none" /><path d="M 99.63851952072746 79.00311137660856 l -0.3042745513855858 -17.674035619385805 a38.676654606512486,38.676654606512486 0 0,0 0.6657550306581171,-0.005730363735238742 l 4.329531696699766e-15 17.676654606512486" fill="#ff970d" stroke="none" /></svg>