<?xml version="1.0" encoding="utf-8" ?>
<svg baseProfile="full" height="200mm" version="1.1" viewBox="0,0,200,200" width="200mm" xmlns="http://www.w3.org/2000/svg" xmlns:ev="http://www.w3.org/2001/xml-events" xmlns:xlink="http://www.w3.org/1999/xlink"><defs /><rect fill="#1a1a1a" height="200" width="200" x="0" y="0" /><text alignment-baseline="middle" fill="#e1ed5e" style="dominant-baseline: central; font-size:9.0px; font-family:Arial;" text-anchor="middle" x="100.0" y="100.0">2022</text><line stroke="#e1ed5e" stroke-width="0.3" x1="100.0" x2="100.0" y1="15.0" y2="10.0" /><path d="M 100.0 14.0 a86.0,86.0 0 0,1 42.46469731375804,11.215312516191453" fill="none" id="id13" stroke="none" /><text fill="#e1ed5e" style="font-size:6.75px; font-family:Arial;" text-anchor="middle"><textPath startOffset="22.20632615414155" xlink:href="#id13">January</textPath></text><path d="M 100.0 79.0 l 0.0 -37.094798142311376 a58.094798142311376,58.094798142311376 0 0,0 1.000006451224929,0.008607371238996993 l -0.6385259719524006 37.08930214768094" fill="#46ff2c" stroke="none" /><path d="M 100.72285384407766 79.0124445844662 l 0.5660896628128153 -16.436017136499274 a37.44576288341898,37.44576288341898 0 0,0 0.6439943120724791,0.027731749755861387 l -0.8489248072746259 16.423837660219217" fill="#ffcb12" stroke="none" /><path d="M 101.08401301168833 79.027996857942 l 0.8990340218610485 -17.393282301954443 a38.416501698330386,38.416501698330386 0 0,0 0.6601015125511955,0.03981912589612611 l -1.1982975832518559 17.375229906678012" fill="#ffd714" stroke="none" /><path d="M 101.80526077348638 79.07773832637324 l 1.520280208334067 -17.61944911403195 a38.684915577797184,38.684915577797184 0 0,0 0.6629394798611616,0.06295409168321518 l -1.8233448152854728 17.590669477833558" fill="#ffdb14" stroke="none" /><path d="M 102.52436894288641 79.15227682838746 l 3.564999899338892 -29.44186554730095 a50.65691607682149,50.65691607682149 0 0,0 0.8647503958454574,0.11226941988327971 l -4.071265023692196 29.37613780425353" fill="#95ff23" stroke="none" /><path d="M 103.2404852339499 79.25152402106235 l 2.7211124049301123 -17.42298800752829 a38.63419870112445,38.63419870112445 0 0,0 0.6561757295675473,0.10827461770925106 l -3.0206173406365346 17.373567126879415" fill="#ffda14" stroke="none" /><path d="M 103.59715602781102 79.31037775812273 l 2.2110330625220573 -12.71711276191702 a33.90788999809335,33.90788999809335 0 0,0 0.5741814817346736,0.10492799571134305 l -2.4296096653596315 12.677169284854939" fill="#ff9d0e" stroke="none" /><path d="M 104.307194497241 79.44645832069477 l 3.880742407240201 -18.518550965123904 a39.920805783032705,39.920805783032705 0 0,0 0.6713487152348532,0.14673082626602077 l -4.198933846628582 18.44900664076201" fill="#ffea16" stroke="none" /><path d="M 105.01212808612495 79.60689891045804 l 7.151705282001047 -29.098507913674784 a50.96447982600058,50.96447982600058 0 0,0 0.850114489325684,0.21671311191781098 l -7.651528660011756 28.971091805588102" fill="#92ff23" stroke="none" /><path d="M 105.71112130821622 79.79150937346287 l 3.5590036609046694 -12.593339948450001 a34.08658542613617,34.08658542613617 0 0,0 0.5632561232035863,0.16442990786299816 l -3.7752500018316826 12.5302117116683" fill="#ff9f0e" stroke="none" /><path d="M 106.0581310904928 79.89281104454417 l 4.293022286126546 -14.248719449566714 a35.881399339498955,35.881399339498955 0 0,0 0.5898468523620483,0.18326828825624158 l -4.537654511199313 14.172711026427951" fill="#ffb711" stroke="none" /><path d="M 106.74666289553966 80.11325718540242 l 5.146266139908543 -15.169347092692833 a37.01852510068757,37.01852510068757 0 0,0 0.6016708952333373,0.20991116122919515 l -5.406619039205154 15.078515078291431" fill="#ffc612" stroke="none" /><path d="M 108.09893153111575 80.62456947434976 l 8.58285159774454 -20.533133809708314 a43.254773096940184,43.254773096940184 0 0,0 0.6844887453908443,0.2930623587664298 l -8.935024100925698 20.38235192297909" fill="#ebff1a" stroke="none" /><path d="M 108.76106565485865 80.91482961587045 l 5.856582941036638 -12.758023704169371 a35.038045896113495,35.038045896113495 0 0,0 0.5459624786044304,0.25633670426237004 l -6.075323630940667 12.655322017266998" fill="#ffac0f" stroke="none" /><path d="M 109.08828744355905 81.06846463323043 l 6.051834322035138 -12.606392151761792 a34.983769940376014,34.983769940376014 0 0,0 0.5406304063785128,0.26528499247785986 l -6.267935995424082 12.5003519991491" fill="#ffab0f" stroke="none" /><path d="M 109.73455568895987 81.39251694778311 l 20.624025651274323 -39.42257048360244 a65.49145420863454,65.49145420863454 0 0,0 0.9943940278327337,0.5311708516222233 l -21.299564725635367 39.06172090547847" fill="#36ff6c" stroke="none" /><line stroke="#e1ed5e" stroke-width="0.3" x1="143.23703022742887" x2="145.7803849466894" y1="26.81831364943548" y2="22.513508569990506" /><path d="M 143.74570117128098 25.957352633546492 a86.0,86.0 0 0,1 28.547481713284135,27.462654790039103" fill="none" id="id14" stroke="none" /><text fill="#e1ed5e" style="font-size:6.75px; font-family:Arial;" text-anchor="middle"><textPath startOffset="19.985693538727396" xlink:href="#id14">February</textPath></text><path d="M 111.60114157652 82.49532879139004 l 8.72328270581406 -13.162342224499723 a36.79059574558234,36.79059574558234 0 0,0 0.5248709416839582,0.35439520279840636 l -8.94855834190456 13.010235109402647" fill="#ffc312" stroke="none" /><path d="M 111.90073688211348 82.69761687909136 l 10.214522061840045 -14.850809312199779 a39.02451103855904,39.02451103855904 0 0,0 0.5501877386424481,0.3854416711011074 l -10.468640940066145 14.672782798334737" fill="#ffdf14" stroke="none" /><path d="M 112.48926042617603 83.11751280151076 l 9.840442069475133 -13.301919536980549 a37.54615857203722,37.54615857203722 0 0,0 0.5162665571082575,0.3888412674857581 l -10.067954780341772 13.130561679988944" fill="#ffcc13" stroke="none" /><path d="M 112.77801427241765 83.33499621200491 l 2.556691678732019 -3.3344207951603093 a25.20178942586311,25.20178942586311 0 0,0 0.341985216099919,0.26692488564559963 l -2.6137094499913682 3.2899175202914854" fill="#ff2403" stroke="none" /><path d="M 113.6212207817346 84.01681056812373 l 9.637317738880025 -11.308463279756424 a35.857968735655994,35.857968735655994 0 0,0 0.46633493474467147,0.4044010600698243 l -9.830546472271461 11.140897226266928" fill="#ffb710" stroke="none" /><path d="M 113.89432698308785 84.25364557470407 l 10.796901592494649 -12.236061478717254 a37.318525806854055,37.318525806854055 0 0,0 0.4780130191028205,0.4291648082678004 l -11.00592559919346 12.048397661680157" fill="#ffc912" stroke="none" /><path d="M 114.42810811169701 84.74124197986012 l 9.184962783812122 -9.713756194310578 a34.368642442017844,34.368642442017844 0 0,0 0.4263622500209079,0.4101601467137454 l -9.350808277445447 9.55421296083453" fill="#ffa30f" stroke="none" /><path d="M 114.94478906791727 85.2469230424477 l 14.792959250232666 -14.603194816387745 a41.78665298272952,41.78665298272952 0 0,0 0.5009139931423853,0.5162359015163166 l -15.042137507078161 14.346394719321314" fill="#fcff18" stroke="none" /><path d="M 115.9244219780498 86.31012108654704 l 11.827349399146717 -10.167714807143549 a36.59707082143639,36.59707082143639 0 0,0 0.4065575333381628,0.4812358846252105 l -12.000617545971997 9.962619972889232" fill="#ffc011" stroke="none" /><path d="M 116.15771136456269 86.58626213691792 l 6.915507614320915 -5.741085741393885 a29.98800929315089,29.98800929315089 0 0,0 0.3263002544338877,0.400005529759569 l -7.013306360831211 5.621196042026216" fill="#ff6809" stroke="none" /><path d="M 116.60985879189232 87.15038557335679 l 15.424414957855157 -11.932538828188722 a40.501232260509525,40.501232260509525 0 0,0 0.42183780694974987,0.5550891066739458 l -15.62752870502902 11.665264945633742" fill="#fff216" stroke="none" /><path d="M 117.04232023915458 87.72973835380427 l 14.150779306595213 -10.188387622864491 a38.43696640295271,38.43696640295271 0 0,0 0.38196713434849394,0.5402654233232781 l -14.32405906074759 9.94329569920942" fill="#ffd814" stroke="none" /><path d="M 117.45458315368197 88.32363383020206 l 20.800966966230284 -13.914953158439728 a46.02610932869461,46.02610932869461 0 0,0 0.434844521533191,0.6622980392628656 l -21.037408123121402 13.554837055199188" fill="#caff1d" stroke="none" /><path d="M 117.65298651832404 88.62581576622439 l 10.725327139228106 -6.910550048993966 a33.75885356225682,33.75885356225682 0 0,0 0.3105370900286634,0.4911951007818676 l -10.842691825502726 6.724907300497892" fill="#ff9b0e" stroke="none" /><line stroke="#e1ed5e" stroke-width="0.3" x1="172.23445277983987" x2="176.4835382374775" y1="55.19839476539836" y2="52.563006222186495" /><path d="M 173.08426987136738 54.67131705675599 a86.0,86.0 0 0,1 12.851231095245387,41.99856678651699" fill="none" id="id15" stroke="none" /><text fill="#e1ed5e" style="font-size:6.75px; font-family:Arial;" text-anchor="middle"><textPath startOffset="22.20632615414155" xlink:href="#id15">March</textPath></text><path d="M 117.84615892207809 88.93136811851018 l 15.351563916961476 -9.521421979034027 a39.06455067803752,39.06455067803752 0 0,0 0.34950532949763946,0.5744948654553877 l -15.51318504474534 9.255759340371558" fill="#ffe015" stroke="none" /><path d="M 118.21658344932153 89.55222093294921 l 12.869986684201917 -7.381338978656573 a35.83646596630645,35.83646596630645 0 0,0 0.30229314804833207,0.537745779602081 l -12.995137473542682 7.158709689119698" fill="#ffb610" stroke="none" /><path d="M 118.3937258080291 89.86733742301442 l 18.981912502209756 -10.456680525638689 a42.67152901520376,42.67152901520376 0 0,0 0.34887409170832206,0.6464107071436703 l -19.15909469313654 10.12838883516256" fill="#f2ff19" stroke="none" /><path d="M 118.56541770881063 90.18545643968196 l 14.63854053122081 -7.738613585568065 a37.55817046388076,37.55817046388076 0 0,0 0.297229220898158,0.5741522486143601 l -14.769579185279085 7.4854886146933595" fill="#ffcd13" stroke="none" /><path d="M 118.89224826269711 90.83032412892265 l 15.591711402433058 -7.567703845920184 a38.33123209573734,38.33123209573734 0 0,0 0.28299730744733154,0.596064502795513 l -15.719666903722144 7.298196927484131" fill="#ffd614" stroke="none" /><path d="M 119.04729006885535 91.15688171328212 l 17.094582922288485 -7.936531564197941 a39.84710318740011,39.84710318740011 0 0,0 0.2834792805676194,0.6246090181281622 l -17.22866451981945 7.641100537227716" fill="#ffea15" stroke="none" /><path d="M 119.196687751892 91.48605970444005 l 12.043472549568817 -5.3414113707265996 a34.17482092794984,34.17482092794984 0 0,0 0.2338685360385319,0.5398008254952681 l -12.133631795450029 5.133311400644728" fill="#ffa00e" stroke="none" /><path d="M 119.34039704204932 91.81776055985345 l 15.191691604233274 -6.4270685827414376 a37.495293400403455,37.495293400403455 0 0,0 0.24635892062356018,0.5965776673042492 l -15.300072211743032 6.1646163449838856" fill="#ffcc13" stroke="none" /><path d="M 119.61058180528143 92.48833698450437 l 22.167030708153618 -8.490888561447449 a44.73757441229294,44.73757441229294 0 0,0 0.26926781558480606,0.7215038742320068 l -22.30990311224005 8.10806155018611" fill="#d9ff1c" stroke="none" /><path d="M 119.85752413597 93.16781622104841 l 10.464873946123044 -3.6005466509273054 a32.066956351849804,32.066956351849804 0 0,0 0.1750897140859822,0.5234959592776315 l -10.525300953980796 3.41987758872736" fill="#ff840c" stroke="none" /><path d="M 119.97218684219823 93.5106431181261 l 5.821579668187078 -1.8915458973830093 a27.12117110649226,27.12117110649226 0 0,0 0.14044183960072404,0.44523901072780075 l -5.853276991556008 1.7910567202287893" fill="#ff3f05" stroke="none" /><path d="M 120.18372546131832 94.20196356495316 l 14.271029253228651 -4.099537904160266 a35.848181268227926,35.848181268227926 0 0,0 0.16526562847140738,0.5945483966053452 l -14.339481652266421 3.853278204135969" fill="#ffb610" stroke="none" /><path d="M 120.37134235888165 94.90015583598534 l 46.07378113088722 -11.534296546344175 a68.49561352920821,68.49561352920821 0 0,0 0.2764848263470529,1.1462081028911215 l -46.265498757495095 10.739503211793647" fill="#3aff8e" stroke="none" /><path d="M 120.53481517161879 95.60439243477599 l 14.405291581897265 -3.0835441238429153 a35.73162142885726,35.73162142885726 0 0,0 0.12356454791725707,0.6025446187005453 l -14.456235425729519 2.8351238489789585" fill="#ffb510" stroke="none" /><path d="M 120.67395015179393 96.31383870115 l 15.239865746774337 -2.7172651042962195 a36.48021439214366,36.48021439214366 0 0,0 0.10490343992784401,0.6191460406973861 l -15.284381048222404 2.4545332752829956" fill="#ffbf11" stroke="none" /><path d="M 120.78858239683441 97.02765380044208 l 14.675502414242503 -2.098299585556109 a35.824750664384965,35.824750664384965 0 0,0 0.08202844498567001,0.6112071934836125 l -14.70944685828601 1.8453740500078322" fill="#ffb610" stroke="none" /><path d="M 120.87857604477298 97.74499172005257 l 18.53746503665253 -2.0021546037069284 a39.6452737454364,39.6452737454364 0 0,0 0.06744014910961256,0.6791130980073574 l -18.569182311444372 1.682765974995136" fill="#ffe715" stroke="none" /><path d="M 120.91429891909075 98.10471618934814 l 13.665881989805689 -1.2384218564417282 a34.72188103919459,34.72188103919459 0 0,0 0.048818164782872306,0.5957052622280603 l -13.685174638408055 1.003002677005899" fill="#ffa80f" stroke="none" /><path d="M 120.94382443527127 98.46500227214037 l 23.64597509146859 -1.7330415536382744 a44.709398369696984,44.709398369696984 0 0,0 0.04964746412045154,0.7680242954556339 l -23.672303146593457 1.3257581939296055" fill="#d9ff1c" stroke="none" /><path d="M 120.96714384426684 98.82574320788733 l 12.674335887237598 -0.7098212857053302 a33.69419695924714,33.69419695924714 0 0,0 0.027446958735362542,0.579361918725773 l -12.684676454206457 0.4915482603565573" fill="#ff9a0e" stroke="none" /><line stroke="#e1ed5e" stroke-width="0.3" x1="184.98032266829074" x2="189.97916517819016" y1="98.17113171792111" y2="98.06355123074" /><path d="M 185.9800911702706 98.14961562048488 a86.0,86.0 0 0,1 -9.607161424134198,41.387399972396054" fill="none" id="id16" stroke="none" /><text fill="#e1ed5e" style="font-size:6.75px; font-family:Arial;" text-anchor="middle"><textPath startOffset="21.466115282336823" xlink:href="#id16">April</textPath></text><path d="M 120.99980553446 99.90962569577887 l 1.7476399319981304 -0.007521105022816371 a22.74765611575481,22.74765611575481 0 0,0 -0.0016851709655587197,0.3915743847108262 l -1.7475104637430685 -0.0225627578916945" fill="#ff0000" stroke="none" /><path d="M 120.9904718944345 100.63252640178507 l 15.18207156278568 0.4574961985394173 a36.18896308867803,36.18896308867803 0 0,0 -0.02412229988419173,0.6224893749809901 l -15.171947130050285 -0.7187628205344135" fill="#ffbb11" stroke="none" /><path d="M 120.95626037817324 101.35467743843564 l 12.581481100618358 0.8133058227728426 a33.60774099696584,33.60774099696584 0 0,0 -0.04228724631702192,0.5769758786221428 l -12.565617295636999 -1.0297548378917558" fill="#ff990e" stroke="none" /><path d="M 120.64145759157962 103.86396538481128 l 18.944386933129543 3.5462832516219556 a40.27345120036533,40.27345120036533 0 0,0 -0.13342031901479695,0.6803073322346951 l -18.88053668113908 -3.8718543109245958" fill="#ffef16" stroke="none" /><path d="M 120.5718875245553 104.21870165774334 l 5.821475808653628 1.193817028951051 a26.942623973410477,26.942623973410477 0 0,0 -0.09707807343971278,0.45351644015558235 l -5.800063696489472 -1.2938472885228023" fill="#ff3d05" stroke="none" /><path d="M 120.41448212921028 104.9243191809786 l 9.195836917019752 2.2181917635244583 a30.459587269230678,30.459587269230678 0 0,0 -0.12733367302288845,0.5086347275602235 l -9.156291929701803 -2.376154330482078" fill="#ff6e0a" stroke="none" /><path d="M 120.23288151984713 105.62410040840565 l 6.744690722803082 1.8748104570017408 a28.00041193044731,28.00041193044731 0 0,0 -0.13307844194671187,0.46326351466791593 l -6.71141964397027 -1.9906314471742388" fill="#ff4c07" stroke="none" /><path d="M 120.02730092923936 106.31721596034902 l 14.693463229040319 4.6347623552097055 a36.40710497635519,36.40710497635519 0 0,0 -0.19366455923446815,0.5960382256902286 l -14.611506418789602 -4.886999480877729" fill="#ffbe11" stroke="none" /><path d="M 119.9155931802556 106.66101706037122 l 14.126589203023812 4.72481290587348 a35.89578395071899,35.89578395071899 0 0,0 -0.2010320630040654,0.5842932761126071 l -14.043166309076517 -4.9672788850753875" fill="#ffb711" stroke="none" /><path d="M 119.79798401119884 107.00284435728193 l 12.918141576738682 4.569340736716536 a34.702454399299484,34.702454399299484 0 0,0 -0.2040433905659964,0.5614397776883941 l -12.837573925167458 -4.791028311411061" fill="#ffa70f" stroke="none" /><path d="M 119.67450827220406 107.3425965602758 l 2.7256225677915076 1.0172120499270805 a23.909250545513608,23.909250545513608 0 0,0 -0.14721918410318946,0.3843428342308187 l -2.7077091040948114 -1.063978450991043" fill="#ff1101" stroke="none" /><path d="M 119.54520255179757 107.68017299344265 l 11.70161512663177 4.598081203663552 a33.5725950912014,33.5725950912014 0 0,0 -0.21597951568649562,0.5360434455827183 l -11.620732996687883 -4.798824017089085" fill="#ff980e" stroke="none" /><path d="M 119.41010516605496 108.01547362559984 l 9.972905628690553 4.118347703605581 a31.789793069682155,31.789793069682155 0 0,0 -0.21321719818877471,0.5039824731761162 l -9.90053744930947 -4.28940470244786" fill="#ff800b" stroke="none" /><path d="M 119.12269723197855 108.67885076344098 l 6.024318741750399 2.734141668238015 a27.61573480153191,27.61573480153191 0 0,0 -0.20018170530537138,0.4311735842272352 l -5.976362419605197 -2.8374353197440807" fill="#ff4606" stroke="none" /><path d="M 118.97047184881838 109.00673069616215 l 11.247944899070003 5.340257817440872 a33.45128981307773,33.45128981307773 0 0,0 -0.2514370075729382,0.5180347087818645 l -11.154354634882349 -5.533081482188011" fill="#ff970d" stroke="none" /><path d="M 118.81262510543309 109.33194174019688 l 8.176290870484255 4.055822599272817 a30.126961671637297,30.126961671637297 0 0,0 -0.2344470548417645,0.46258628120065726 l -8.10526514585622 -4.195963092176169" fill="#ff6a09" stroke="none" /><line stroke="#e1ed5e" stroke-width="0.3" x1="174.80103733775053" x2="179.2010983576182" y1="140.37084112569926" y2="142.7455964860345" /><path d="M 175.68104954172406 140.8457921977663 a86.0,86.0 0 0,1 -30.038265399797805,32.042727171017184" fill="none" id="id17" stroke="none" /><text fill="#e1ed5e" style="font-size:6.75px; font-family:Arial;" text-anchor="middle"><textPath startOffset="22.206326154141568" xlink:href="#id17">May</textPath></text><path d="M 118.12598468904814 110.60418214915192 l 5.148529046846497 3.012026146416592 a26.964868217565186,26.964868217565186 0 0,0 -0.2378290132461966,0.3986151060999084 l -5.095919157902073 -3.1002033464026044" fill="#ff3d05" stroke="none" /><path d="M 117.94076556474637 110.91462005526583 l 10.184870273796225 6.1961675464448644 a32.921580212273646,32.921580212273646 0 0,0 -0.2987011975450296,0.4816014389744229 l -10.076704436583231 -6.37056531678456" fill="#ff900d" stroke="none" /><path d="M 117.75023020441432 111.22182372390056 l 11.300960537789937 7.144548865304104 a34.36997709666713,34.36997709666713 0 0,0 -0.3204511600652186,0.4973473167081673 l -11.176304514347667 -7.338017781933725" fill="#ffa30f" stroke="none" /><path d="M 117.35343817320211 111.8261652097733 l 10.592717510044672 7.2188131276311385 a33.818616431552456,33.818616431552456 0 0,0 -0.3319685196300904,0.4782254119092923 l -10.466888083252444 -7.4000798017274505" fill="#ff9c0e" stroke="none" /><path d="M 117.14729908036423 112.12312394758627 l 9.695312298124211 6.854576464191504 a32.873680939860506,32.873680939860506 0 0,0 -0.33064693873788215,0.4592396787084165 l -9.575885567010726 -7.0204497483510515" fill="#ff8f0d" stroke="none" /><path d="M 116.93607887273984 112.41649034213515 l 6.737372452565097 4.93942668885957 a29.35404833474174,29.35404833474174 0 0,0 -0.3022610585369332,0.40492808270646297 l -6.651350127333072 -5.0546676510753485" fill="#ff5f08" stroke="none" /><path d="M 116.27256486870786 113.27417163493432 l 6.931340659292955 5.654167386272618 a29.94500375445179,29.94500375445179 0 0,0 -0.32925815000503716,0.3966126523803164 l -6.832986509394375 -5.772641295766705" fill="#ff6709" stroke="none" /><path d="M 116.0416608686014 113.55231037782055 l 6.820185775370908 5.761826984083461 a29.928246423855246,29.928246423855246 0 0,0 -0.335848354533002,0.3906675107959917 l -6.719994911267127 -5.87837159404098" fill="#ff6709" stroke="none" /><path d="M 115.56566222782051 114.09645910891815 l 6.619241721001555 5.994468393729775 a29.93017425834865,29.93017425834865 0 0,0 -0.34911922351888,0.3788999652456847 l -6.5150760894869535 -6.107519613776795" fill="#ff6709" stroke="none" /><path d="M 115.07121518719521 114.62390073753431 l 8.820954716922193 8.559148322701505 a33.29098296020281,33.29098296020281 0 0,0 -0.40259796304094864,0.4078296110114231 l -8.672316128825708 -8.709718427693593" fill="#ff950d" stroke="none" /><path d="M 114.81725581225074 114.88116024355365 l 12.554046585947594 12.608190161370107 a38.792429424544935,38.792429424544935 0 0,0 -0.477239332823325,0.4670791327323608 l -12.335157300748474 -12.82241939702504" fill="#ffdc14" stroke="none" /><path d="M 114.55890576462653 115.13401014063108 l 10.27844099968602 10.684458903297035 a35.82578872911218,35.82578872911218 0 0,0 -0.44810242399159333,0.4237088110271343 l -10.09300274130362 -10.85980235107009" fill="#ffb610" stroke="none" /><path d="M 114.29624159901734 115.38237550388516 l 18.340543215930268 19.73393641529286 a47.94074557057075,47.94074557057075 0 0,0 -0.6093050757942752,0.556585740254161 l -17.99813859066913 -20.046714922133603" fill="#b4ff20" stroke="none" /><path d="M 113.75828350139079 115.86535959552629 l 7.77435688828533 8.964996806769907 a32.86641448676997,32.86641448676997 0 0,0 -0.43060406125898504,0.3669701227605125 l -7.618887350449298 -9.097491319753367" fill="#ff8f0d" stroke="none" /><path d="M 113.48314897796784 116.09983520530334 l 9.526394182312997 11.375189630153885 a35.83735573607263,35.83735573607263 0 0,0 -0.4763464999956252,0.3920007399917895 l -9.32917755377268 -11.537485489002853" fill="#ffb610" stroke="none" /><path d="M 112.92097659922987 116.55440617244103 l 10.972499812444934 14.058010029448768 a38.83321053882857,38.83321053882857 0 0,0 -0.5304824992358862,0.4067513594798565 l -10.728888584715554 -14.244800730755996" fill="#ffdd14" stroke="none" /><path d="M 112.63410532772338 116.77436683061366 l 8.923298404037215 11.84750933173691 a35.8320171174755,35.8320171174755 0 0,0 -0.4958725102170311,0.3668346284211205 l -8.71804092340162 -11.9993539088978" fill="#ffb610" stroke="none" /><path d="M 112.34349029814194 116.9893568818739 l 4.362027674593191 6.003816027904982 a28.421124734893333,28.421124734893333 0 0,0 -0.39826477720367726,0.2841513439491451 l -4.258035569540629 -6.078011633698346" fill="#ff5207" stroke="none" /><path d="M 111.45004920935366 117.60387380957326 l 8.099952543108566 12.453268962017338 a35.85574431124053,35.85574431124053 0 0,0 -0.5202808472755828,0.33206785296757524 l -7.884389893786053 -12.590851243808723" fill="#ffb710" stroke="none" /><path d="M 111.1453310114006 117.79835938074945 l 9.838152680886333 15.71088170265963 a39.537018423883495,39.537018423883495 0 0,0 -0.5799154308197926,0.35623142252465034 l -9.566258050134232 -15.877901592012659" fill="#ffe615" stroke="none" /><line stroke="#e1ed5e" stroke-width="0.3" x1="143.8653032363475" x2="146.44561519142675" y1="172.8068346515853" y2="177.08958963109032" /><path d="M 144.38136562736335 173.6633856474863 a86.0,86.0 0 0,1 -40.68145358897372,12.25698825130547" fill="none" id="id18" stroke="none" /><text fill="#e1ed5e" style="font-size:6.75px; font-family:Arial;" text-anchor="middle"><textPath startOffset="21.466115282336833" xlink:href="#id18">June</textPath></text><path d="M 110.8373102113329 117.98757091392108 l 8.711041422185254 14.458428545471099 a37.879822234357825,37.879822234357825 0 0,0 -0.5614008437650292,0.33168551398631846 l -8.460872707391843 -14.606232631751165" fill="#ffd113" stroke="none" /><path d="M 110.5260780823613 118.17145234162733 l 5.946828141919919 10.266169728099202 a32.864190062354496,32.864190062354496 0 0,0 -0.49194755572558146,0.2793406611835195 l -5.769231819273139 -10.36701355507735" fill="#ff8f0d" stroke="none" /><path d="M 109.89434966115114 118.52300852407294 l 5.603131488504975 10.489507231646007 a32.89221780998943,32.89221780998943 0 0,0 -0.5016988857437925,0.2624651452674697 l -5.421741700234687 -10.584401795858193" fill="#ff8f0d" stroke="none" /><path d="M 109.57404056367764 118.69057910512821 l 6.814412597733651 13.303193867396645 a35.946945712274825,35.946945712274825 0 0,0 -0.5531483351267409,0.2773600584036188 l -6.58441035492415 -13.418521766709565" fill="#ffb811" stroke="none" /><path d="M 108.92500713936063 119.00905698771935 l 3.258728764801659 6.940651119980243 a28.667590960127487,28.667590960127487 0 0,0 -0.4484867197452615,0.20587825615053487 l -3.138774049288978 -6.995716446464853" fill="#ff5507" stroke="none" /><path d="M 107.93186726928326 119.44442032107085 l 2.8006093990581844 6.865498937597544 a28.414748051568985,28.414748051568985 0 0,0 -0.45447214286202225,0.18084384488089048 l -2.682016180154296 -6.912689626884504" fill="#ff5207" stroke="none" /><path d="M 107.2578585660854 119.70592522655815 l 6.619781223002131 17.973471459779702 a40.153777166813,40.153777166813 0 0,0 -0.6506449969856596,0.23329814707887417 l -6.3094166653867365 -18.084757147898536" fill="#ffed16" stroke="none" /><path d="M 106.2309692047433 120.05430185196036 l 4.398077550432615 14.155161398898233 a35.82267453493053,35.82267453493053 0 0,0 -0.5904344828105516,0.17789306626290255 l -4.153768093181817 -14.228769834266862" fill="#ffb610" stroke="none" /><path d="M 105.88484417918355 120.15858648285463 l 2.908975794092554 9.964722656408748 a31.380647272196576,31.380647272196576 0 0,0 -0.5198261481285911,0.1469080618641884 l -2.737018477859357 -10.013319511611455" fill="#ff7b0b" stroke="none" /><path d="M 105.53697534728816 120.25689768951611 l 1.95501319847097 7.15237107972247 a28.414748051568985,28.414748051568985 0 0,0 -0.4729155242441306,0.12490128821518806 l -1.831607231415342 -7.184963717241241" fill="#ff5207" stroke="none" /><path d="M 104.83641907484287 120.43548508189849 l 8.076575887507083 34.12622924272428 a56.068940679661694,56.068940679661694 0 0,0 -0.9411034206889349,0.21419207457911946 l -7.487952317425286 -34.26019805088109" fill="#5bff2a" stroke="none" /><path d="M 104.13013068566511 120.58985236759428 l 2.3280564056914206 11.606009917068587 a32.83720037944679,32.83720037944679 0 0,0 -0.5551556943572347,0.10639691010525262 l -2.127933096762481 -11.644364025522309" fill="#ff8f0d" stroke="none" /><path d="M 103.7750983002368 120.6578951692458 l 2.7258561183265315 14.91628706338705 a36.1633080604196,36.1633080604196 0 0,0 -0.6133142552710261,0.10663254478494937 l -2.468692891583456 -14.960998186693006" fill="#ffbb11" stroke="none" /><path d="M 102.70371172650421 120.8252237178851 l 2.4851829783420643 19.142015399241536 a40.3026653076885,40.3026653076885 0 0,0 -0.6887391122318051,0.08339671485260694 l -2.155316443058879 -19.181957642819494" fill="#ffef16" stroke="none" /><path d="M 102.34483914955558 120.86867818915974 l 0.8328081535881375 7.411853966116642 a28.45849506507324,28.45849506507324 0 0,0 -0.4872736750028884,0.050507908755902976 l -0.7051018819796465 -7.425091243328303" fill="#ff5207" stroke="none" /><path d="M 101.98527174616119 120.90594882070398 l 1.4015678606031055 14.759241911929694 a35.825640434151154,35.825640434151154 0 0,0 -0.6144194272813295,0.053014693527952225 l -1.1473041155802344 -14.78118085773631" fill="#ffb610" stroke="none" /><path d="M 101.62511606390274 120.93702456842531 l 0.9297301590786868 11.978087974768505 a33.01411626795722,33.01411626795722 0 0,0 -0.566958083152357,0.039100748853139876 l -0.7234093151473996 -11.992317068137929" fill="#ff910d" stroke="none" /><path d="M 100.90346689309514 120.98055641714683 l 0.5230244104972589 12.14581656046042 a33.157072610391474,33.157072610391474 0 0,0 -0.5704274062942977,0.019646673242464087 l -0.313876652528309 -12.153020032128977" fill="#ff930d" stroke="none" /><line stroke="#e1ed5e" stroke-width="0.3" x1="102.19456741930631" x2="102.32365962044197" y1="184.97166512339345" y2="189.96999836594603" /><path d="M 102.22038585953345 185.97133177190398 a86.0,86.0 0 0,1 -42.740103519485714,-10.115201625700543" fill="none" id="id19" stroke="none" /><text fill="#e1ed5e" style="font-size:6.75px; font-family:Arial;" text-anchor="middle"><textPath startOffset="22.20632615414155" xlink:href="#id19">July</textPath></text><path d="M 100.54218724476979 120.99299961872073 l 0.3070193709723227 11.887512293835718 a32.89147633518427,32.89147633518427 0 0,0 -0.5661097812608085,0.009746093277031737 l -0.1023498998188463 -11.89103586439191" fill="#ff8f0d" stroke="none" /><path d="M 99.09653310690486 120.98055641714683 l -0.47033215264711337 10.922182471573722 a31.93230452723331,31.93230452723331 0 0,0 -0.548949663685009,-0.02837442728601852 l 0.6582698847456113 -10.912468237525502" fill="#ff820c" stroke="none" /><path d="M 98.37488393609728 120.93702456842531 l -0.7443694045339796 9.590010742546562 a30.61885605737838,30.61885605737838 0 0,0 -0.5251216663485067,-0.04530970696928615 l 0.909335388624028 -9.575776783298613" fill="#ff700a" stroke="none" /><path d="M 97.65516085044442 120.86867818915974 l -1.3247767996017972 11.790293039330512 a32.86448665227656,32.86448665227656 0 0,0 -0.5616268102378908,-0.06800518529464364 l 1.5275310328910774 -11.76574232531052" fill="#ff8f0d" stroke="none" /><path d="M 96.93821686468263 120.77559828337769 l -1.0803940514089663 7.3309675466277 a28.41015090777701,28.41015090777701 0 0,0 -0.48319461970132754,-0.07546506219809339 l 1.206424534718811 -7.3112841770825" fill="#ff5207" stroke="none" /><path d="M 95.51606077576429 120.51570834832081 l -1.8998762141475778 8.692648218042535 a29.897845956843813,29.897845956843813 0 0,0 -0.5018280131592149,-0.11421442198329344 l 2.049224376699655 -8.658657062481556" fill="#ff6609" stroke="none" /><path d="M 94.81253420990036 120.34920634021253 l -4.401645234248079 17.26661740672546 a38.818825927608515,38.818825927608515 0 0,0 -0.6460738409779205,-0.1706339734760325 l 4.69820951803749 -17.188292083945846" fill="#ffdd14" stroke="none" /><path d="M 94.46302465271185 120.25689768951611 l -3.1259488035631686 11.436212214211444 a32.85573724957571,32.85573724957571 0 0,0 -0.5442612827653156,-0.1538136749884895 l 3.3223412544330984 -11.380709745884435" fill="#ff8f0d" stroke="none" /><path d="M 94.11515582081647 120.15858648285463 l -4.9932153937628 17.10430408654482 a38.8182327477644,38.8182327477644 0 0,0 -0.6398077048573542,-0.19276881305088792 l 5.2868980730604 -17.015819904388206" fill="#ffdd14" stroke="none" /><path d="M 93.76903079525671 120.05430185196036 l -1.7723609233389894 5.7043230000562355 a26.973321030343975,26.973321030343975 0 0,0 -0.442206603940813,-0.1415805901575565 l 1.8702888723707427 -5.672969563238972" fill="#ff3d05" stroke="none" /><path d="M 93.42475214034765 119.94407469862007 l -4.177365416598278 12.670805677654435 a34.34165275911014,34.34165275911014 0 0,0 -0.5598184362096776,-0.18992080840118492 l 4.394853585745182 -12.597021882355127" fill="#ffa30f" stroke="none" /><path d="M 92.40401165467489 119.57807347666478 l -5.361082142510413 13.817775295179437 a35.82133988028124,35.82133988028124 0 0,0 -0.5729349092251305,-0.22798262440963818 l 5.598138127777402 -13.723445826363733" fill="#ffb610" stroke="none" /><path d="M 91.07499286063937 119.00905698771935 l -4.487346085003644 9.557439688453211 a31.5584529304732,31.5584529304732 0 0,0 -0.4897380965500883,-0.23510404767916124 l 4.651196849553974 -9.478781364274488" fill="#ff7d0b" stroke="none" /><path d="M 90.42595943632237 118.69057910512821 l -3.844566755001626 7.5054182799181515 a29.432792959049408,29.432792959049408 0 0,0 -0.4489329213732205,-0.23486048658227418 l 3.973190578901342 -7.438128374391161" fill="#ff6008" stroke="none" /><line stroke="#e1ed5e" stroke-width="0.3" x1="58.666819895761336" x2="56.23545636021788" y1="174.27360380694188" y2="178.64263932499728" /><path d="M 58.180547188652646 175.14741091055294 a86.0,86.0 0 0,1 -31.652253787137756,-30.449443065178592" fill="none" id="id20" stroke="none" /><text fill="#e1ed5e" style="font-size:6.75px; font-family:Arial;" text-anchor="middle"><textPath startOffset="22.20632615414155" xlink:href="#id20">August</textPath></text><path d="M 89.7882731507175 118.34994917583269 l -5.771972067374891 10.371937640311751 a32.86982527087369,32.86982527087369 0 0,0 -0.49203190976112415,-0.2793885596064057 l 5.949652744057222 -10.271045914910712" fill="#ff8f0d" stroke="none" /><path d="M 89.1626897886671 117.98757091392108 l -6.888492518864904 11.433394934429737 a34.34817773739552,34.34817773739552 0 0,0 -0.5038072946447538,-0.3094795891116179 l 7.084279013441966 -11.31312687848974" fill="#ffa30f" stroke="none" /><path d="M 88.8546689885994 117.79835938074946 l -7.867625815730438 12.56408011555641 a35.824157484540834,35.824157484540834 0 0,0 -0.5198225100893572,-0.33177532048985303 l 8.08273012786672 -12.426790366242752" fill="#ffb610" stroke="none" /><path d="M 88.24862548938628 117.40417183066458 l -10.084331214942639 14.935225926437626 a39.02095195949429,39.02095195949429 0 0,0 -0.5534343760283958,-0.38065721031639577 l 10.339922475593925 -14.75942792675613" fill="#ffdf14" stroke="none" /><path d="M 85.97065885151581 115.62618273729859 l -3.0330435016972266 3.378269264826999 a25.54005023197569,25.54005023197569 0 0,0 -0.32460242445492743,-0.29651661849037486 l 3.0907454756190087 -3.325559879750048" fill="#ff2904" stroke="none" /><path d="M 85.70375840098266 115.38237550388516 l -9.083954855338833 9.774093678912601 a34.34358059360355,34.34358059360355 0 0,0 -0.4295632352690765,-0.4061788509321784 l 9.250853924998726 -9.616280191234491" fill="#ffa30f" stroke="none" /><path d="M 85.44109423537348 115.13401014063109 l -6.19328117850548 6.437927525227447 a29.933288452530313,29.933288452530313 0 0,0 -0.36825078558382357,-0.360410900210063 l 6.303181916465099 -6.330366522094814" fill="#ff6709" stroke="none" /><path d="M 84.9287848128048 114.62390073753433 l -6.38673647550132 6.1971778051364295 a29.899180611493094,29.899180611493094 0 0,0 -0.35522141341451535,-0.37244823180862313 l 6.492464440294793 -6.0863224567453065" fill="#ff6609" stroke="none" /><path d="M 84.43433777217949 114.09645910891817 l -16.593995689250892 15.027730800236078 a43.38734879210223,43.38734879210223 0 0,0 -0.4965602533048871,-0.5578907085871485 l 16.850214792204117 -14.739865921908066" fill="#e9ff1a" stroke="none" /><path d="M 84.19399662182784 113.82643327865904 l -16.766502268810267 14.666637693898723 a43.2761275713287,43.2761275713287 0 0,0 -0.48563541042638814,-0.5649036965194429 l 17.016480188807435 -14.37585689821775" fill="#eaff1a" stroke="none" /><path d="M 83.95833913139862 113.55231037782056 l -3.400010893631571 2.872396025317762 a25.45092496039583,25.45092496039583 0 0,0 -0.27984382760784937,-0.3370899177988807 l 3.4489507211329564 -2.81344485040512" fill="#ff2803" stroke="none" /><path d="M 83.72743513129214 113.27417163493432 l -18.385823794938123 14.998040116772806 a44.72719376502074,44.72719376502074 0 0,0 -0.48152463592012834,-0.6007760211078267 l 18.64126634291311 -14.67933626208672" fill="#d9ff1c" stroke="none" /><path d="M 83.28015986056508 112.70617746262583 l -13.495508412402764 10.255859111470233 a37.95026234084773,37.95026234084773 0 0,0 -0.39077698367495856,-0.5235096294945966 l 13.670046662772807 -10.022036602466327" fill="#ffd213" stroke="none" /><path d="M 82.85270091963577 112.12312394758628 l -8.475588053994157 5.992232597430745 a31.379905797391423,31.379905797391423 0 0,0 -0.3080297768767602,-0.443739867537324 l 8.57747873803305 -5.845451467706409" fill="#ff7b0b" stroke="none" /><path d="M 82.6465618267979 111.8261652097733 l -22.108682749389168 15.066808787696035 a47.75448709951534,47.75448709951534 0 0,0 -0.45707160046218664,-0.6832600264018427 l 22.364757455262083 -14.684011847088371" fill="#b6ff1f" stroke="none" /><path d="M 82.44556493220864 111.52570212397912 l -12.391890952242164 8.136134447893962 a35.824157484540834,35.824157484540834 0 0,0 -0.3340093242422812,-0.518389888598302 l 12.530105139861492 -7.921622959374212" fill="#ffb610" stroke="none" /><path d="M 82.05923443525364 110.91462005526583 l -13.829536318957615 8.413472319070232 a37.18772965122437,37.18772965122437 0 0,0 -0.3279942247986036,-0.5497371869550226 l 13.972311419454451 -8.174173038229098" fill="#ffc812" stroke="none" /><line stroke="#e1ed5e" stroke-width="0.3" x1="26.63291911575756" x2="22.317208475507996" y1="142.92168965132927" y2="145.44649492493687" /><path d="M 25.769776987707644 143.4266507060508 a86.0,86.0 0 0,1 -11.730757126820373,-40.83630448921669" fill="none" id="id21" stroke="none" /><text fill="#e1ed5e" style="font-size:6.75px; font-family:Arial;" text-anchor="middle"><textPath startOffset="21.46611528233685" xlink:href="#id21">September</textPath></text><path d="M 81.87401531095188 110.60418214915194 l -14.72059724616714 8.611940108113279 a38.054661993413816,38.054661993413816 0 0,0 -0.3259073807910225,-0.5682469892240348 l 14.86665662311054 -8.357273273030936" fill="#ffd313" stroke="none" /><path d="M 81.51974371655577 109.97397251340807 l -41.225515020370445 22.24980797656085 a67.84652648477388,67.84652648477388 0 0,0 -0.5458333559645897,-1.032511006814057 l 41.60240088455992 -21.536881954660664" fill="#39ff87" stroke="none" /><path d="M 81.35079622478065 109.6543875284942 l -6.623307769482123 3.4287780163587604 a28.45819847515118,28.45819847515118 0 0,0 -0.22146079287122103,-0.436963154325789 l 6.68134723213961 -3.3142606503302865" fill="#ff5207" stroke="none" /><path d="M 80.87730276802145 108.67885076344099 l -12.195558912511478 5.534963739395496 a34.392814520665965,34.392814520665965 0 0,0 -0.2400273137708138,-0.5411982271929635 l 12.289027311013573 -5.324217175709837" fill="#ffa30f" stroke="none" /><path d="M 80.73074385275274 108.34839909993369 l -13.606078149698355 5.894829032868303 a35.828161448488686,35.828161448488686 0 0,0 -0.24030292312872661,-0.5680051259403589 l 13.705532054019388 -5.659749381261785" fill="#ffb610" stroke="none" /><path d="M 80.45479744820244 107.68017299344265 l -32.37105018034357 12.720014781406631 a55.78050698045566,55.78050698045566 0 0,0 -0.3434637447498626,-0.8966754565095412 l 32.58520820468695 -12.160915758063933" fill="#5eff2a" stroke="none" /><path d="M 80.32549172779594 107.34259656027581 l -13.895284426166365 5.185769637544973 a35.83142393763137,35.83142393763137 0 0,0 -0.2106815023778155,-0.5797050104389527 l 13.982490189549406 -4.945816830099902" fill="#ffb610" stroke="none" /><path d="M 80.20201598880116 107.00284435728193 l -12.906118198214871 4.5650878871131 a34.68970103265078,34.68970103265078 0 0,0 -0.19427747206085183,-0.5646612730776878 l 12.982786501218952 -4.342253910946115" fill="#ffa70f" stroke="none" /><path d="M 79.97269907076064 106.31721596034903 l -13.169314297721504 4.153999720799055 a34.80893018132001,34.80893018132001 0 0,0 -0.17532632813747553,-0.5729765846667277 l 13.238867398365109 -3.9266961635802793" fill="#ffa90f" stroke="none" /><path d="M 79.86692584326677 105.97154293290107 l -15.633914115357083 4.63707572039715 a37.30710709485463,37.30710709485463 0 0,0 -0.17731066593072187,-0.61724168907889 l 15.711417418173909 -4.367276555813665" fill="#ffc912" stroke="none" /><path d="M 79.67330655649465 105.27499134158121 l -30.58556623212247 7.937277034271138 a52.59869029656638,52.59869029656638 0 0,0 -0.219884280520801,-0.8783283986268748 l 30.71766182693833 -7.4096207962468705" fill="#80ff26" stroke="none" /><path d="M 79.50377843672027 104.57218783832718 l -13.030422840005844 2.90675726027827 a34.35069875173305,34.35069875173305 0 0,0 -0.12377041150176353,-0.5782141572445746 l 13.078527290232048 -2.6820292836175317" fill="#ffa30f" stroke="none" /><path d="M 79.4281124754447 104.21870165774334 l -14.556231777683067 2.9850639158759127 a35.85915509534424,35.85915509534424 0 0,0 -0.11879637254376528,-0.6057401442387892 l 14.605458083202498 -2.7340600445691687" fill="#ffb710" stroke="none" /><path d="M 79.35854240842038 103.8639653848113 l -15.508460207208882 2.9030969904384905 a36.77784237893364,36.77784237893364 0 0,0 -0.11112785438247118,-0.6232640233881839 l 15.556134503930544 -2.635714216317093" fill="#ffc212" stroke="none" /><path d="M 79.29508885075956 103.50808413554451 l -19.063301178546663 3.2299421114888407 a40.33499360919335,40.33499360919335 0 0,0 -0.11009195578702437,-0.6855427137767901 l 19.11607488869498 -2.901320168018837" fill="#fff016" stroke="none" /><path d="M 79.1416061653843 102.43462659150553 l -30.98983393821726 3.617185214285913 a52.20022173627506,52.20022173627506 0 0,0 -0.09649011756842682,-0.8933786519260573 l 31.04750635728674 -3.0832102404750734" fill="#84ff25" stroke="none" /><path d="M 79.07016306316243 101.71520430193888 l -13.452266454127278 1.102415912870151 a34.49736246819309,34.49736246819309 0 0,0 -0.043406620638736175,-0.5922488518948582 l 13.46924963343035 -0.8706939244785322" fill="#ffa50f" stroke="none" /><path d="M 79.04373962182676 101.35467743843564 l -13.318895769563538 0.8609745860332945 a34.346694787785204,34.346694787785204 0 0,0 -0.03306057317206364,-0.5903187428240897 l 13.331742693623134 -0.6315841268737671" fill="#ffa30f" stroke="none" /><path d="M 79.0235259727143 100.99374915477108 l -21.899366005102653 1.0374706649594752 a42.92392703887917,42.92392703887917 0 0,0 -0.028611591818808464,-0.7383380520930607 l 21.913979729772663 -0.6603553658524175" fill="#efff19" stroke="none" /><line stroke="#e1ed5e" stroke-width="0.3" x1="15.007084014347285" x2="10.007500721073583" y1="101.09737516637583" y2="101.16192664675087" /><path d="M 14.007167355692545 101.11028546245083 a86.0,86.0 0 0,1 10.666146001902534,-42.60595125391555" fill="none" id="id22" stroke="none" /><text fill="#e1ed5e" style="font-size:6.75px; font-family:Arial;" text-anchor="middle"><textPath startOffset="22.20632615414155" xlink:href="#id22">October</textPath></text><path d="M 79.01574976396665 99.18683210126434 l -13.520877307363389 -0.5239521672407202 a34.531025424347206,34.531025424347206 0 0,0 0.028128630905137928,-0.5937509408404891 l 13.509855068224752 0.7566142147042184" fill="#ffa50f" stroke="none" /><path d="M 79.03285615573316 98.82574320788736 l -17.02501737122247 -0.9534795216974766 a38.05169609419319,38.05169609419319 0 0,0 0.042254431628393554,-0.653657355037108 l 17.006082348589665 1.2463959409875964" fill="#ffd313" stroke="none" /><path d="M 79.08570108090925 98.10471618934814 l -18.45265508392109 -1.6722061102499874 a39.52826902118264,39.52826902118264 0 0,0 0.06724111363060767,-0.6771088378960682 l 18.421136844608252 1.989590478850486" fill="#ffe615" stroke="none" /><path d="M 79.16333360222342 97.38593545837743 l -34.29531195371248 -4.302519280706558 a55.564144632310885,55.564144632310885 0 0,0 0.12722601823098534,-0.947981612410638 l 34.216169936423654 4.892219235181855" fill="#60ff29" stroke="none" /><path d="M 79.21141760316559 97.0276538004421 l -13.223777428502625 -1.8907323180148463 a34.35826179474565,34.35826179474565 0 0,0 0.08874920066831117,-0.5847463458146175 l 13.189272334395012 2.118077776221556" fill="#ffa30f" stroke="none" /><path d="M 79.26566170972629 96.67025291283419 l -14.643651735782075 -2.3516379461968957 a35.83127564267034,35.83127564267034 0 0,0 0.10303733501983983,-0.6081321838962203 l 14.601002539242012 2.603355918408944" fill="#ffb610" stroke="none" /><path d="M 79.3925641242962 95.95851677861259 l -14.556064069800899 -2.8547020144752158 a35.833351772124786,35.833351772124786 0 0,0 0.1239163445436847,-0.6042601039890318 l 14.504768429342219 3.1048377746276503" fill="#ffb610" stroke="none" /><path d="M 79.46518482838121 95.60439243477599 l -16.276790405693987 -3.484150329422902 a37.645516195928245,37.645516195928245 0 0,0 0.14109111565834545,-0.6324838063087648 l 16.214404903033603 3.763812305281626" fill="#ffce13" stroke="none" /><path d="M 79.54389044137918 95.25157060432595 l -20.223297557283985 -4.694387284311397 a41.760997954471094,41.760997954471094 0 0,0 0.16856965975782653,-0.698830067706803 l 20.139495097265346 5.041802583677597" fill="#fdff18" stroke="none" /><path d="M 79.62865764111835 94.90015583598534 l -13.66656890263005 -3.4213440838764764 a35.08831788790313,35.08831788790313 0 0,0 0.15172133203439592,-0.5846441833550022 l 13.605651238725347 3.6560846927803428" fill="#ffac10" stroke="none" /><path d="M 79.81627453868168 94.20196356495316 l -22.137868921273927 -6.359389442044748 a44.03317334739389,44.03317334739389 0 0,0 0.2155405024557167,-0.7266954233572498 l 22.025122521706503 6.7395142521485365" fill="#e1ff1b" stroke="none" /><path d="M 80.02781315780177 93.51064311812611 l -13.22418286231784 -4.2967974785527145 a34.90472872614629,34.90472872614629 0 0,0 0.19058431694771852,-0.5698228496439437 l 13.148261251598347 4.523793431118981" fill="#ffaa0f" stroke="none" /><path d="M 80.2630227832202 92.82701384747504 l -2.9150473142531457 -1.0594121779355428 a24.101589109971307,24.101589109971307 0 0,0 0.1450633463485483,-0.38869764725585093 l 2.8963793794029695 1.109432962220735" fill="#ff1402" stroke="none" /><path d="M 80.38941819471856 92.48833698450439 l -36.044170791883616 -13.806406528371426 a59.59791586732544,59.59791586732544 0 0,0 0.3752013757747015,-0.9548465761762007 l 35.801175866227226 14.424802109443391" fill="#37ff2e" stroke="none" /><path d="M 80.65960295795068 91.81776055985345 l -12.28768884802952 -5.198487502712745 a34.34209764399323,34.34209764399323 0 0,0 0.23501326071102918,-0.5424430078668137 l 12.19638487747581 5.4092296551661585" fill="#ffa30f" stroke="none" /><path d="M 80.803312248108 91.48605970444005 l -9.652861820278094 -4.281149450432552 a31.559639290161453,31.559639290161453 0 0,0 0.2245208089248807,-0.4947018411049618 l 9.577738694389861 4.446673300379585" fill="#ff7d0b" stroke="none" /><path d="M 80.95270993114464 91.15688171328213 l -13.44423604028185 -6.241778707049034 a35.82252623996949,35.82252623996949 0 0,0 0.26447567473314854,-0.5570532206941946 l 13.33480217170695 6.472274343383761" fill="#ffb610" stroke="none" /><path d="M 81.43458229118936 90.18545643968196 l -20.250787350143952 -10.7055083648564 a43.90638115571206,43.90638115571206 0 0,0 0.3589700017648797,-0.6651168951754654 l 20.0635092491606 11.052506243364338" fill="#e3ff1b" stroke="none" /><path d="M 81.6062741919709 89.86733742301443 l -12.98513591841896 -7.153200072179022 a35.82504725430702,35.82504725430702 0 0,0 0.302196827211337,-0.5375744355808434 l 12.860081449915194 7.37565801769465" fill="#ffb610" stroke="none" /><line stroke="#e1ed5e" stroke-width="0.3" x1="26.266209847984243" x2="21.928928074336255" y1="57.711370442889674" y2="55.22380399835377" /><path d="M 25.398753493254645 57.213857153982495 a86.0,86.0 0 0,1 29.58750427330803,-30.492523968695096" fill="none" id="id23" stroke="none" /><text fill="#e1ed5e" style="font-size:6.75px; font-family:Arial;" text-anchor="middle"><textPath startOffset="21.46611528233685" xlink:href="#id23">November</textPath></text><path d="M 81.78341655067845 89.55222093294921 l -11.609449141661965 -6.658381362217735 a34.383323643159954,34.383323643159954 0 0,0 0.29887348050545665,-0.5108716594459569 l 11.493115986686185 6.857232434017583" fill="#ffa30f" stroke="none" /><path d="M 81.96595687620814 89.24020034530311 l -12.122608854364028 -7.2328119473735475 a35.11634563553807,35.11634563553807 0 0,0 0.31418126508754096,-0.5164313914025359 l 11.996311790990271 7.440411111983158" fill="#ffad10" stroke="none" /><path d="M 82.54541684631803 88.32363383020206 l -12.321281003355537 -8.242407590570636 a35.824009189579805,35.824009189579805 0 0,0 0.3472805625074602,-0.5095913733090509 l 12.177575975179337 8.453276987150103" fill="#ffb610" stroke="none" /><path d="M 82.7489923806493 88.02491185347247 l -8.51649446720074 -5.911873334850533 a31.367300725703753,31.367300725703753 0 0,0 0.31171237201290597,-0.4408950443024419 l 8.413469475383955 6.0575948794847605" fill="#ff7b0b" stroke="none" /><path d="M 83.17141714833178 87.43820079747576 l -13.057542196926876 -9.746882705576285 a37.29420543324491,37.29420543324491 0 0,0 0.38843523897502025,-0.5111352426242105 l 12.887831017727748 9.970202724081522" fill="#ffc912" stroke="none" /><path d="M 83.39014120810768 87.1503855733568 l -13.053683680787955 -10.09850861750645 a37.503894508143276,37.503894508143276 0 0,0 0.39940918898002015,-0.5072091093664387 l 12.877920411213964 10.321710120825935" fill="#ffcc13" stroke="none" /><path d="M 83.6137871275137 86.86637796730984 l -19.91980811592357 -15.965814236279863 a46.528532656668915,46.528532656668915 0 0,0 0.5062780892153171,-0.6206370743828704 l 19.64203153463186 16.306335480270814" fill="#c4ff1e" stroke="none" /><path d="M 84.07557802195018 86.31012108654704 l -4.5165594933000754 -3.8827878747443654 a26.956118814864332,26.956118814864332 0 0,0 0.3055131240142899,-0.34925431403189244 l 4.449054505707942 3.9599577449792007" fill="#ff3d05" stroke="none" /><path d="M 84.31358615837235 86.03803664274999 l -23.48592113086839 -20.90404942462131 a52.44149763787312,52.44149763787312 0 0,0 0.6059648998785032,-0.6691215773084888 l 23.12261259037384 21.305223789199356" fill="#81ff25" stroke="none" /><path d="M 84.80347519578584 85.50635884689758 l -10.194819936434302 -9.723279742102463 a35.0881695929421,35.0881695929421 0 0,0 0.4206164860851968,-0.433482262143744 l 10.025939186645985 9.89732619979633" fill="#ffac10" stroke="none" /><path d="M 85.05521093208273 85.24692304244772 l -6.942309360700899 -6.853253250755277 a30.755139126566217,30.755139126566217 0 0,0 0.37516026690951393,-0.3735492094978643 l 6.823313293624072 6.971738310903251" fill="#ff720a" stroke="none" /><path d="M 85.31137513191541 84.99185889309783 l -10.564922808804631 -10.794737677765038 a36.104434960890146,36.104434960890146 0 0,0 0.4478957279627224,-0.4308753354328142 l 10.377543837229481 10.974996099960165" fill="#ffba11" stroke="none" /><path d="M 85.83668400450813 84.49514656593479 l -10.772186827959887 -11.792519349638752 a36.97196048292372,36.97196048292372 0 0,0 0.47357386366392495,-0.4251792906842444 l 10.56760197669999 11.976197649092276" fill="#ffc512" stroke="none" /><path d="M 86.10567301691215 84.25364557470407 l -17.132517677686202 -19.416175816134487 a46.89422803057229,46.89422803057229 0 0,0 0.6098621182295998,-0.5288664192475995 l 16.795761760809828 19.708207228801765" fill="#c0ff1e" stroke="none" /><path d="M 86.37877921826538 84.01681056812374 l -9.047201319125671 -10.616018551421764 a34.94817914972848,34.94817914972848 0 0,0 0.4612202118261912,-0.38625866342122284 l 8.863123570340369 10.7701783722368" fill="#ffab0f" stroke="none" /><path d="M 86.93701828274178 83.55741782278169 l -9.228606427101246 -11.616193212483976 a35.83587278646232,35.83587278646232 0 0,0 0.48628843340904954,-0.3795558356550791 l 9.02728543853277 11.773327437362276" fill="#ffb610" stroke="none" /><path d="M 87.51073957382395 83.11751280151077 l -8.465394278685126 -11.443184437128748 a35.23409183459698,35.23409183459698 0 0,0 0.49068453243089827,-0.35650318064547437 l 8.267164429900447 11.58720685259089" fill="#ffae10" stroke="none" /><path d="M 88.09926311788651 82.69761687909137 l -35.70221064634046 -51.907149362725875 a84.0,84.0 0 0,0 1.198381222373842,-0.8091523508053382 l 34.80342472956008 52.51401362582988" fill="#4dd2ff" stroke="none" /><line stroke="#e1ed5e" stroke-width="0.3" x1="56.762969772571076" x2="54.21961505331055" y1="26.818313649435495" y2="22.513508569990535" /><path d="M 56.25429882871897 25.957352633546506 a86.0,86.0 0 0,1 42.265352541879196,-11.944610805530505" fill="none" id="id24" stroke="none" /><text fill="#e1ed5e" style="font-size:6.75px; font-family:Arial;" text-anchor="middle"><textPath startOffset="22.20632615414155" xlink:href="#id24">December</textPath></text><path d="M 89.3179101791058 81.91981866633112 l -6.228153535155064 -10.54158382653518 a33.24397345755587,33.24397345755587 0 0,0 0.49518207254093544,-0.28684141820689246 l 6.045774730148809 10.647229402132119" fill="#ff940d" stroke="none" /><path d="M 89.63071344664047 81.73862282372117 l -3.6986389801313675 -6.5136826055967445 a28.49052677665602,28.49052677665602 0 0,0 0.4285462427806427,-0.23848552013025687 l 3.5859686482786794 6.576383523287187" fill="#ff5307" stroke="none" /><path d="M 90.26544431104013 81.39251694778311 l -10.320330628129684 -19.727184618604483 a43.26367079460206,43.26367079460206 0 0,0 0.6628396355512148,-0.33953220616045177 l 9.979230504989705 19.90190935007744" fill="#eaff1a" stroke="none" /><path d="M 90.58718382345135 81.22770947309562 l -6.117713450171769 -12.200758210183627 a34.6486233284451,34.6486233284451 0 0,0 0.5354511346958707,-0.2627435463565164 l 5.906791048465473 12.304256916674973" fill="#ffa70f" stroke="none" /><path d="M 90.91171255644093 81.06846463323043 l -5.260963410442629 -10.958952991595917 a33.15633113558631,33.15633113558631 0 0,0 0.516641618139478,-0.24257016712426 l 5.071543581003542 11.047888141360184" fill="#ff930d" stroke="none" /><path d="M 91.23893434514133 80.91482961587045 l -6.9633962557968605 -15.169114035846892 a37.691042748964875,37.691042748964875 0 0,0 0.5919609462972304,-0.26559562135615244 l 6.701253191032856 15.286729987719575" fill="#ffce13" stroke="none" /></svg>