<?xml version="1.0" encoding="utf-8" ?>
<svg baseProfile="full" height="200mm" version="1.1" viewBox="0,0,200,200" width="200mm" xmlns="http://www.w3.org/2000/svg" xmlns:ev="http://www.w3.org/2001/xml-events" xmlns:xlink="http://www.w3.org/1999/xlink"><defs /><rect fill="#1a1a1a" height="200" width="200" x="0" y="0" /><text alignment-baseline="middle" fill="#e1ed5e" style="dominant-baseline: central; font-size:9.0px; font-family:Arial;" text-anchor="middle" x="100.0" y="100.0">2022</text><line stroke="#e1ed5e" stroke-width="0.3" x1="100.0" x2="100.0" y1="15.0" y2="10.0" /><path d="M 100.0 14.0 a86.0,86.0 0 0,1 42.46469731375804,11.215312516191453" fill="none" id="id13" stroke="none" /><text fill="#e1ed5e" style="font-size:6.75px; font-family:Arial;" text-anchor="middle"><textPath startOffset="22.20632615414155" xlink:href="#id13">January</textPath></text><path d="M 100.0 79.0 l 0.0 -49.20396030948115 a70.20396030948115,70.20396030948115 0 0,0 1.208445772357181,0.010401474282624518 l -0.8469652930846527 49.19667021180708" fill="#3bffa0" stroke="none" /><path d="M 100.72285384407766 79.0124445844662 l 0.7508829996537552 -21.80136232923225 a42.814289461030725,42.814289461030725 0 0,0 0.736322530647051,0.03170759706524932 l -1.1260463626901378 21.78520700564281" fill="#f5ff19" stroke="none" /><path d="M 101.08401301168833 79.027996857942 l 1.1925131431856308 -23.071115490470792 a44.101914586702804,44.101914586702804 0 0,0 0.7577925953198226,0.04571211879150466 l -1.5894677873450653 23.047170102298985" fill="#e5ff1a" stroke="none" /><path d="M 101.80526077348638 79.07773832637324 l 2.0165578673101283 -23.371111808070108 a44.45794903177864,44.45794903177864 0 0,0 0.7618713694114161,0.07234886667299976 l -2.4185543638117886 23.33293739688193" fill="#e1ff1b" stroke="none" /><path d="M 102.52436894288641 79.15227682838746 l 4.7287523408921075 -39.05281754786253 a60.338068802727626,60.338068802727626 0 0,0 1.0300147131456225,0.1337254713865064 l -5.4002817825455764 38.96563375331189" fill="#32ff2f" stroke="none" /><path d="M 103.2404852339499 79.25152402106235 l 3.609387662824343 -23.110518275530122 a44.3906762250295,44.3906762250295 0 0,0 0.7539456061530205,0.12440748507048291 l -4.006662475116238 23.044964527520015" fill="#e1ff1b" stroke="none" /><path d="M 103.59715602781102 79.31037775812273 l 2.932798896328137 -16.868465200645833 a38.121519429995196,38.121519429995196 0 0,0 0.6455332523941358,0.11796707573031935 l -3.2227272698251737 16.815482643564774" fill="#ffce13" stroke="none" /><path d="M 104.307194497241 79.44645832069477 l 5.14756529054586 -24.56371492254423 a46.09728111203392,46.09728111203392 0 0,0 0.7752185819740443,0.16943275601567603 l -5.569626596673432 24.47146866843268" fill="#cdff1d" stroke="none" /><path d="M 105.01212808612495 79.60689891045804 l 9.48629566578792 -38.59737483829219 a60.74603313371509,60.74603313371509 0 0,0 1.01327597401835,0.25830660730797317 l -10.149280528491294 38.428365234815345" fill="#2fff31" stroke="none" /><path d="M 105.71112130821622 79.79150937346287 l 4.720798700686495 -16.70428820262417 a38.35854788652358,38.35854788652358 0 0,0 0.6338472071689544,0.1850373810074654 l -5.007636125578876 16.620552492698" fill="#ffd113" stroke="none" /><path d="M 106.0581310904928 79.89281104454417 l 5.694429104692967 -18.90004694371757 a40.739257769812475,40.739257769812475 0 0,0 0.6697041755737043,0.2080803473036339 l -6.01891865297739 18.799226461531415" fill="#fff016" stroke="none" /><path d="M 106.74666289553966 80.11325718540242 l 6.826204416011111 -20.12120269279065 a42.24758491060891,42.24758491060891 0 0,0 0.6866600483264625,0.23956220793762048 l -7.171546468400847 20.000719631680823" fill="#fcff18" stroke="none" /><path d="M 108.09893153111575 80.62456947434976 l 11.384622925765163 -27.23593472934317 a50.519582987279804,50.519582987279804 0 0,0 0.7994513322063402,0.3422833387882444 l -11.851758015761819 27.035931862592136" fill="#9aff23" stroke="none" /><path d="M 108.76106565485865 80.91482961587045 l 7.768395813192457 -16.92273104059152 a39.62060147746645,39.62060147746645 0 0,0 0.6173678135639221,0.28986246646686115 l -8.058541838055978 16.786503591484653" fill="#ffe115" stroke="none" /><path d="M 109.08828744355905 81.06846463323043 l 8.027384719512002 -16.721601144758022 a39.54860777199808,39.54860777199808 0 0,0 0.6111742653213298,0.29990055769248447 l -8.314030251843763 16.580945426930704" fill="#ffe115" stroke="none" /><path d="M 109.73455568895987 81.39251694778311 l 27.356497147494423 -52.29160665415152 a80.01516807273681,80.01516807273681 0 0,0 1.2149158425172315,0.6489659678726056 l -28.252558036539966 51.81296195977716" fill="#48f8ff" stroke="none" /><line stroke="#e1ed5e" stroke-width="0.3" x1="143.23703022742887" x2="145.7803849466894" y1="26.81831364943548" y2="22.513508569990506" /><path d="M 143.74570117128098 25.957352633546492 a86.0,86.0 0 0,1 28.547481713284135,27.462654790039103" fill="none" id="id14" stroke="none" /><text fill="#e1ed5e" style="font-size:6.75px; font-family:Arial;" text-anchor="middle"><textPath startOffset="19.985693538727396" xlink:href="#id14">February</textPath></text><path d="M 111.60114157652 82.49532879139004 l 11.57089612345613 -17.45903460397528 a41.9452506884644,41.9452506884644 0 0,0 0.598409533247843,0.40404878809154066 l -11.869710351110514 17.25727390358507" fill="#ffff18" stroke="none" /><path d="M 111.90073688211348 82.69761687909136 l 13.54893309253038 -19.6986819865633 a44.908401451239236,44.908401451239236 0 0,0 0.6331418686089675,0.44355634039186137 l -13.886006100722998 19.462540803407503" fill="#dbff1b" stroke="none" /><path d="M 112.48926042617603 83.11751280151076 l 13.052739070223527 -17.64417529451261 a42.947458145735894,42.947458145735894 0 0,0 0.5905354155181955,0.4447790318852152 l -13.354520639500105 17.416879673121546" fill="#f3ff19" stroke="none" /><path d="M 112.77801427241765 83.33499621200491 l 3.391293717283251 -4.422903390139689 a26.573414346286665,26.573414346286665 0 0,0 0.36059799937862136,0.28145245822570314 l -3.466924271821303 4.363872542690762" fill="#ff3004" stroke="none" /><path d="M 113.6212207817346 84.01681056812373 l 12.78330718216881 -14.999978601950938 a40.70817851991083,40.70817851991083 0 0,0 0.529412190456297,0.4591010346493466 l -13.039613171271872 14.777712573881919" fill="#ffef16" stroke="none" /><path d="M 113.89432698308785 84.25364557470407 l 14.32142359649401 -16.230380363128194 a42.645517331817985,42.645517331817985 0 0,0 0.5462464566925623,0.49042546224667377 l -14.598681040782564 15.981455892112223" fill="#f7ff19" stroke="none" /><path d="M 114.42810811169701 84.74124197986012 l 12.183286252830733 -12.884698075649187 a38.73267911002317,38.73267911002317 0 0,0 0.4805005679973468,0.46224116571334656 l -12.403270064440498 12.673073823173539" fill="#ffd614" stroke="none" /><path d="M 114.94478906791727 85.2469230424477 l 19.621947449768932 -19.370236640203792 a48.57221226559427,48.57221226559427 0 0,0 0.5822553151546785,0.6000652839540501 l -19.95246702862672 19.029607160699626" fill="#b0ff20" stroke="none" /><path d="M 115.9244219780498 86.31012108654704 l 15.688249014575156 -13.486846158037666 a41.68855182060585,41.68855182060585 0 0,0 0.46311888946855534,0.5481866899135011 l -15.918078517530828 13.214800518495059" fill="#fffb17" stroke="none" /><path d="M 116.15771136456269 86.58626213691792 l 9.172994037318643 -7.615195906152228 a32.92203960309481,32.92203960309481 0 0,0 0.35822550920130236,0.4391421172198044 l -9.302718038596355 7.4561696193243225" fill="#ff890c" stroke="none" /><path d="M 116.60985879189232 87.15038557335679 l 20.459534473584345 -15.827776300091124 a46.86718101149626,46.86718101149626 0 0,0 0.4881419095755143,0.642337533649903 l -20.72895232338397 15.473253990560188" fill="#c4ff1e" stroke="none" /><path d="M 117.04232023915458 87.72973835380427 l 18.77013538876082 -13.514267372201335 a44.129059754338414,44.129059754338414 0 0,0 0.43853227955479956,0.6202728097502613 l -18.999980288119502 13.18916806211928" fill="#e5ff1a" stroke="none" /><path d="M 117.45458315368197 88.32363383020206 l 27.59119888127391 -18.45732655801145 a54.19558945665953,54.19558945665953 0 0,0 0.5120279665219915,0.779853721232597 l -27.904823483153827 17.97965477280118" fill="#72ff27" stroke="none" /><path d="M 117.65298651832404 88.62581576622439 l 14.226484501686464 -9.166418132884736 a37.92383179612712,37.92383179612712 0 0,0 0.34884941655342533,0.5517960006189249 l -14.382161514485844 8.920174484551604" fill="#ffcc13" stroke="none" /><line stroke="#e1ed5e" stroke-width="0.3" x1="172.23445277983987" x2="176.4835382374775" y1="55.19839476539836" y2="52.563006222186495" /><path d="M 173.08426987136738 54.67131705675599 a86.0,86.0 0 0,1 12.851231095245387,41.99856678651699" fill="none" id="id15" stroke="none" /><text fill="#e1ed5e" style="font-size:6.75px; font-family:Arial;" text-anchor="middle"><textPath startOffset="22.20632615414155" xlink:href="#id15">March</textPath></text><path d="M 117.84615892207809 88.93136811851018 l 20.362902064078163 -12.629578609617415 a44.96151156183066,44.96151156183066 0 0,0 0.402264652744727,0.6612173207436055 l -20.577282515109115 12.27719351566673" fill="#dbff1b" stroke="none" /><path d="M 118.21658344932153 89.55222093294921 l 17.071243023444676 -9.790890591809903 a40.6796564234821,40.6796564234821 0 0,0 0.3431471566794785,0.6104205023441045 l -17.237247821416588 9.495586579531006" fill="#ffef16" stroke="none" /><path d="M 118.3937258080291 89.86733742301442 l 25.178335403622075 -13.870141349160916 a49.74594570966473,49.74594570966473 0 0,0 0.4067131416698758,0.7535776824931161 l -25.413356644510415 13.43468268333534" fill="#a3ff22" stroke="none" /><path d="M 118.56541770881063 90.18545643968196 l 19.417120549453934 -10.2647933075119 a42.96339117891332,42.96339117891332 0 0,0 0.340005253970822,0.6567819291728789 l -19.590935236584873 9.929038656078676" fill="#f3ff19" stroke="none" /><path d="M 118.89224826269711 90.83032412892265 l 20.681442882071934 -10.038092086120267 a43.988809721554404,43.988809721554404 0 0,0 0.32476688142767185,0.6840418781675581 l -20.851167957341364 9.68060779231217" fill="#e6ff1a" stroke="none" /><path d="M 119.04729006885535 91.15688171328212 l 22.67490919854906 -10.527319291011707 a45.999519167723044,45.999519167723044 0 0,0 0.32724864687894917,0.7210490149458143 l -22.852760162391355 10.135448267223829" fill="#ceff1d" stroke="none" /><path d="M 119.196687751892 91.48605970444005 l 15.97492303486587 -7.085052520667704 a38.475586833938024,38.475586833938024 0 0,0 0.26329996534721584,0.6077326221595089 l -16.094513710055768 6.809020753921592" fill="#ffd313" stroke="none" /><path d="M 119.34039704204932 91.81776055985345 l 20.150841308284736 -8.525109807534276 a42.879988634873456,42.879988634873456 0 0,0 0.28173849991327937,0.6822521248373606 l -20.294601495084216 8.176983112243612" fill="#f4ff19" stroke="none" /><path d="M 119.61058180528143 92.48833698450437 l 29.40319812386176 -11.26263963391541 a52.486427416182195,52.486427416182195 0 0,0 0.3159068376832346,0.8464732659928659 l -29.592709550046617 10.75484323089321" fill="#84ff25" stroke="none" /><path d="M 119.85752413597 93.16781622104841 l 13.881009415749777 -4.775902912990578 a35.67963456746951,35.67963456746951 0 0,0 0.19481540270192166,0.5824732575062532 l -13.961162112223468 4.536256552562011" fill="#ffae10" stroke="none" /><path d="M 119.97218684219823 93.5106431181261 l 7.721966132098516 -2.5090188899622405 a29.119355684748875,29.119355684748875 0 0,0 0.1507890593771215,0.4780425250517657 l -7.764010675243844 2.3757261984840556" fill="#ff5407" stroke="none" /><path d="M 120.18372546131832 94.20196356495316 l 18.92963952135293 -5.43778401353356 a40.695196048432926,40.695196048432926 0 0,0 0.18761111199446528,0.6749369899437583 l -19.020437403913757 5.11113572017085" fill="#ffef16" stroke="none" /><path d="M 120.37134235888165 94.90015583598534 l 61.11402707664495 -15.299532492043943 a84.0,84.0 0 0,0 0.33906879895672226,1.4056590733623755 l -61.36832867586249 14.245288187022162" fill="#4dd2ff" stroke="none" /><path d="M 120.53481517161879 95.60439243477599 l 19.107730213894907 -4.090130969308107 a40.54058661537789,40.54058661537789 0 0,0 0.14019456876322833,0.6836385063771936 l -19.17530407857313 3.7606168067675014" fill="#ffed16" stroke="none" /><path d="M 120.67395015179393 96.31383870115 l 20.21474133514133 -3.6042844559821745 a41.53354897932421,41.53354897932421 0 0,0 0.11943493844381095,0.7049117675195893 l -20.273788135105367 3.2557869001467474" fill="#fffa17" stroke="none" /><path d="M 120.78858239683441 97.02765380044208 l 19.4661482060592 -2.78326489684654 a40.664116798531275,40.664116798531275 0 0,0 0.09310921097394462,0.6937717707168533 l -19.51117341609098 2.447774784065022" fill="#ffef16" stroke="none" /><path d="M 120.87857604477298 97.74499172005257 l 24.588803271083428 -2.6557345123243272 a45.73180486951961,45.73180486951961 0 0,0 0.0777938817942234,0.7833737731722037 l -24.630874278559883 2.2320852084476885" fill="#d1ff1c" stroke="none" /><path d="M 120.91429891909075 98.10471618934814 l 18.126949025056863 -1.6426901593312155 a39.201228307907506,39.201228307907506 0 0,0 0.055116023842895406,0.6725550946523773 l -18.152539532719253 1.3304211474710694" fill="#ffdc14" stroke="none" /><path d="M 120.94382443527127 98.46500227214037 l 31.364926570459133 -2.2987726605967147 a52.449053634654895,52.449053634654895 0 0,0 0.058241949197041176,0.9009771755813405 l -31.39984911066059 1.7585364207623388" fill="#85ff25" stroke="none" /><path d="M 120.96714384426684 98.82574320788733 l 16.81172431649773 -0.9415341265553977 a37.83806880272763,37.83806880272763 0 0,0 0.030822515648922567,0.6506145900714151 l -16.825440440380152 0.6520084298609828" fill="#ffcb12" stroke="none" /><line stroke="#e1ed5e" stroke-width="0.3" x1="184.98032266829074" x2="189.97916517819016" y1="98.17113171792111" y2="98.06355123074" /><path d="M 185.9800911702706 98.14961562048488 a86.0,86.0 0 0,1 -9.607161424134198,41.387399972396054" fill="none" id="id16" stroke="none" /><text fill="#e1ed5e" style="font-size:6.75px; font-family:Arial;" text-anchor="middle"><textPath startOffset="21.466115282336823" xlink:href="#id16">April</textPath></text><path d="M 120.99980553446 99.90962569577887 l 2.318136508504591 -0.009976281623271204 a23.318157975258995,23.318157975258995 0 0,0 -0.001727434360281302,0.4013949092288231 l -2.3179647768548066 -0.029928105809236594" fill="#ff0000" stroke="none" /><path d="M 120.9904718944345 100.63252640178507 l 20.138080917036696 0.6068404714944584 a41.14722210079993,41.14722210079993 0 0,0 -0.027427302309953962,0.7077768021417656 l -20.12465148187554 -0.9533945206502302" fill="#fff517" stroke="none" /><path d="M 120.95626037817324 101.35467743843564 l 16.688558172882917 1.0787999780901714 a37.72339030467281,37.72339030467281 0 0,0 -0.04746579955703881,0.6476331232024684 l -16.66751581466154 -1.3659062377894098" fill="#ffc912" stroke="none" /><path d="M 120.64145759157962 103.86396538481128 l 25.128560052249885 4.703925862854469 a46.565043493465055,46.565043493465055 0 0,0 -0.15426348556340377,0.7865861894186111 l -25.043866633710817 -5.135775779341024" fill="#c7ff1d" stroke="none" /><path d="M 120.5718875245553 104.21870165774334 l 7.721828368837425 1.5835246085970507 a28.882523932333786,28.882523932333786 0 0,0 -0.10406780654306258,0.4861701462124648 l -7.6934265235699195 -1.7162085742256845" fill="#ff5107" stroke="none" /><path d="M 120.41448212921028 104.9243191809786 l 12.197710119398101 2.942294471385272 a33.5475586833938,33.5475586833938 0 0,0 -0.14024267073449811,0.5601997564975407 l -12.145256134368543 -3.151822067280209" fill="#ff920d" stroke="none" /><path d="M 120.23288151984713 105.62410040840565 l 8.946415973241093 2.4868203611787028 a30.28561437251388,30.28561437251388 0 0,0 -0.14393939575262188,0.5010719196895684 l -8.902283940602372 -2.6404497563728535" fill="#ff6509" stroke="none" /><path d="M 120.02730092923936 106.31721596034902 l 19.489972118378308 6.147726214730277 a41.436573851466534,41.436573851466534 0 0,0 -0.22041839954982703,0.6783780795850248 l -19.381261467812234 -6.482303194293096" fill="#fff817" stroke="none" /><path d="M 119.9155931802556 106.66101706037122 l 18.738048709344397 6.267172712422724 a40.75833806880273,40.75833806880273 0 0,0 -0.22826448916222727,0.6634434537443478 l -18.62739338923894 -6.588788869256372" fill="#fff016" stroke="none" /><path d="M 119.79798401119884 107.00284435728193 l 17.13511751635865 6.060948475507368 a39.175460069065,39.175460069065 0 0,0 -0.2303437563089539,0.6338070886553893 l -17.02824949904447 -6.3550033611688885" fill="#ffdc14" stroke="none" /><path d="M 119.67450827220406 107.3425965602758 l 3.6153701155005886 1.349269003673282 a24.858941294750185,24.858941294750185 0 0,0 -0.15306682441239983,0.3996091778374303 l -3.591609011494682 -1.4113017483438561" fill="#ff1702" stroke="none" /><path d="M 119.54520255179757 107.68017299344265 l 15.521470262184254 6.099070931101053 a37.67677142982034,37.67677142982034 0 0,0 -0.24238253920907113,0.6015735846695516 l -15.41418510871779 -6.365343883613419" fill="#ffc812" stroke="none" /><path d="M 119.41010516605496 108.01547362559984 l 13.228443806102758 5.46273405158973 a35.31199457970888,35.31199457970888 0 0,0 -0.23684094231878577,0.5598220259582591 l -13.132451882591665 -5.689630603214153" fill="#ffa90f" stroke="none" /><path d="M 119.12269723197855 108.67885076344098 l 7.990887000477958 3.6266701764588487 a29.775363902609605,29.775363902609605 0 0,0 -0.21583648470515246,0.46489258633980823 l -7.927275898932974 -3.7636828300774874" fill="#ff5e08" stroke="none" /><path d="M 118.97047184881838 109.00673069616215 l 14.919704705059388 7.083522403429484 a37.51586746513966,37.51586746513966 0 0,0 -0.2819884526022042,0.5809797345812583 l -14.795562995842468 -7.339291093976017" fill="#ffc612" stroke="none" /><path d="M 118.81262510543309 109.33194174019688 l 10.845345213273953 5.379798359632792 a33.10635135725838,33.10635135725838 0 0,0 -0.2576325703488725,0.5083335029066074 l -10.751133973138812 -5.565686074242094" fill="#ff8c0c" stroke="none" /><line stroke="#e1ed5e" stroke-width="0.3" x1="174.80103733775053" x2="179.2010983576182" y1="140.37084112569926" y2="142.7455964860345" /><path d="M 175.68104954172406 140.8457921977663 a86.0,86.0 0 0,1 -30.038265399797805,32.042727171017184" fill="none" id="id17" stroke="none" /><text fill="#e1ed5e" style="font-size:6.75px; font-family:Arial;" text-anchor="middle"><textPath startOffset="22.206326154141568" xlink:href="#id17">May</textPath></text><path d="M 118.12598468904814 110.60418214915192 l 6.829206022401632 3.9952667862170177 a28.91202954932902,28.91202954932902 0 0,0 -0.25500289499589046,0.4273995197522279 l -6.759422251707514 -4.11222839985535" fill="#ff5107" stroke="none" /><path d="M 117.94076556474637 110.91462005526583 l 13.509601825746932 8.21883383369643 a36.813240372426456,36.813240372426456 0 0,0 -0.3340106675881034,0.5385315474638777 l -13.366126518490866 -8.450161712525581" fill="#ffbd11" stroke="none" /><path d="M 117.75023020441432 111.22182372390056 l 14.990026677788547 9.476803120720989 a38.73444944704288,38.73444944704288 0 0,0 -0.3611436581665951,0.5605029774233691 l -14.824678156244902 -9.73342769806581" fill="#ffd614" stroke="none" /><path d="M 117.35343817320211 111.8261652097733 l 14.05058601300985 9.575310081236957 a38.003103553787646,38.003103553787646 0 0,0 -0.3730440615048183,0.5373977935385129 l -13.883681044342895 -9.815749136962488" fill="#ffcd13" stroke="none" /><path d="M 117.14729908036423 112.12312394758627 l 12.860233385683097 9.092172627236378 a36.74970494383005,36.74970494383005 0 0,0 -0.3696323956367199,0.5133870685764839 l -12.701821197670775 -9.312193301263992" fill="#ffbc11" stroke="none" /><path d="M 116.93607887273984 112.41649034213515 l 8.936708739441295 6.551844649965104 a32.081129518730606,32.081129518730606 0 0,0 -0.33034203857719036,0.4425471443985612 l -8.822605434169013 -6.70470467387298" fill="#ff7e0b" stroke="none" /><path d="M 116.27256486870786 113.27417163493432 l 9.193995594286111 7.499904072533268 a32.864995410237356,32.864995410237356 0 0,0 -0.3613647097001973,0.43528707182691057 l -9.06353488469237 -7.657052401473949" fill="#ff880c" stroke="none" /><path d="M 116.0416608686014 113.55231037782055 l 9.046555501049237 7.642707884466597 a32.84276784543428,32.84276784543428 0 0,0 -0.3685544880573602,0.42871213301690186 l -8.913658503421098 -7.797297116645027" fill="#ff880c" stroke="none" /><path d="M 115.56566222782051 114.09645910891815 l 8.780015614845139 7.951292356140066 a32.8453249989072,32.8453249989072 0 0,0 -0.3831228732871537,0.41580421126675376 l -8.641846333562263 -8.101247822208155" fill="#ff880c" stroke="none" /><path d="M 115.07121518719521 114.62390073753431 l 11.700452018044757 11.353181994345407 a37.30323031866067,37.30323031866067 0 0,0 -0.4511192883398313,0.45698145736686363 l -11.503292104649391 -11.552903945692934" fill="#ffc412" stroke="none" /><path d="M 114.81725581225074 114.88116024355365 l 16.652167982382586 16.723986093533433 a44.60055951392228,44.60055951392228 0 0,0 -0.5486931749756212,0.5370117563186166 l -16.36182485503117 -17.00814795277462" fill="#dfff1b" stroke="none" /><path d="M 114.55890576462653 115.13401014063108 l 13.633717618617617 14.172275309040199 a40.66549372732439,40.66549372732439 0 0,0 -0.5086365704273098,0.48094762483301784 l -13.387745213799498 -14.404857570619138" fill="#ffef16" stroke="none" /><path d="M 114.29624159901734 115.38237550388516 l 24.327598629566943 26.175848710721468 a56.73523626349609,56.73523626349609 0 0,0 -0.7210790533252869,0.6586886185933121 l -23.87342002677479 -26.590730095901364" fill="#57ff2a" stroke="none" /><path d="M 113.75828350139079 115.86535959552629 l 10.312204592551998 11.891514960200992 a36.74006644227827,36.74006644227827 0 0,0 -0.4813552700535167,0.4102214039191736 l -10.105983845921434 -12.067260754343112" fill="#ffbc11" stroke="none" /><path d="M 113.48314897796784 116.09983520530334 l 12.636173930391248 15.088486987519106 a40.68083664816191,40.68083664816191 0 0,0 -0.5407255573474216,0.4449803212884082 l -12.374578244499135 -15.303762427664694" fill="#ffef16" stroke="none" /><path d="M 112.92097659922987 116.55440617244103 l 14.554343797641947 18.64708266818417 a44.65465314508021,44.65465314508021 0 0,0 -0.6100065298291033,0.4677269950601086 l -14.23120853931935 -18.89484900507165" fill="#deff1b" stroke="none" /><path d="M 112.63410532772338 116.77436683061366 l 11.836204602528825 15.714989920920143 a40.67375530008306,40.67375530008306 0 0,0 -0.5628764095105578,0.4164025112814737 l -11.563943222599704 -15.916402380941387" fill="#ffef16" stroke="none" /><path d="M 112.34349029814194 116.9893568818739 l 5.785960493601657 7.963691415953784 a30.84366394195043,30.84366394195043 0 0,0 -0.4322117812918457,0.3083716300171924 l -5.648021384460926 -8.062107307815197" fill="#ff6d0a" stroke="none" /><path d="M 111.45004920935366 117.60387380957326 l 10.744087133478631 16.518492684058423 a40.70522795821131,40.70522795821131 0 0,0 -0.5906487481283359,0.37697997663379956 l -10.458156583303364 -16.700987089516033" fill="#ffef16" stroke="none" /><path d="M 111.1453310114006 117.79835938074945 l 13.049702337557559 20.83951493033923 a45.58821086680946,45.58821086680946 0 0,0 -0.6686722468975842,0.4107531082219148 l -12.689050890727666 -21.061056505389523" fill="#d3ff1c" stroke="none" /><line stroke="#e1ed5e" stroke-width="0.3" x1="143.8653032363475" x2="146.44561519142675" y1="172.8068346515853" y2="177.08958963109032" /><path d="M 144.38136562736335 173.6633856474863 a86.0,86.0 0 0,1 -40.68145358897372,12.25698825130547" fill="none" id="id18" stroke="none" /><text fill="#e1ed5e" style="font-size:6.75px; font-family:Arial;" text-anchor="middle"><textPath startOffset="21.466115282336833" xlink:href="#id18">June</textPath></text><path d="M 110.8373102113329 117.98757091392108 l 11.554658816233209 19.17821311655481 a43.39004240066443,43.39004240066443 0 0,0 -0.643065489167979,0.379934425946139 l -11.22282545603685 -19.3742661147947" fill="#eeff19" stroke="none" /><path d="M 110.5260780823613 118.17145234162733 l 7.8881005023876085 13.617440534219204 a36.73711588057875,36.73711588057875 0 0,0 -0.5499217941342252,0.31225994678662794 l -7.652529941332184 -13.75120364680046" fill="#ffbc11" stroke="none" /><path d="M 109.89434966115114 118.52300852407294 l 7.432208103991156 13.913683948672528 a36.77429295799274,36.77429295799274 0 0,0 -0.5609114565524239,0.2934423637556216 l -7.191605744912237 -14.039555731372866" fill="#ffbd11" stroke="none" /><path d="M 109.57404056367764 118.69057910512821 l 9.038897737223879 17.64586561516011 a40.826200987891774,40.826200987891774 0 0,0 -0.62822987206645,0.315007499692328 l -8.733813957474668 -17.798840955761737" fill="#fff116" stroke="none" /><path d="M 108.92500713936063 119.00905698771935 l 4.32250258344914 9.206345345762388 a31.170586178257636,31.170586178257636 0 0,0 -0.4876445309641598,0.22385368671177344 l -4.16339005671756 -9.279386102808235" fill="#ff710a" stroke="none" /><path d="M 107.93186726928326 119.44442032107085 l 3.714835519119294 9.106660614093464 a30.835205665078462,30.835205665078462 0 0,0 -0.4931855094673478,0.1962486924059808 l -3.55752893361008 -9.169256150905515" fill="#ff6c0a" stroke="none" /><path d="M 107.2578585660854 119.70592522655815 l 8.780731230951776 23.840700600062295 a46.40630327403069,46.40630327403069 0 0,0 -0.7519598698874733,0.26962605589094446 l -8.369051800434567 -23.9883141969932" fill="#c9ff1d" stroke="none" /><path d="M 106.2309692047433 120.05430185196036 l 5.833778428967138 18.775947963745672 a40.661362940945054,40.661362940945054 0 0,0 -0.6701864422490023,0.20192167742640874 l -5.50971701227789 -18.873585010277807" fill="#ffef16" stroke="none" /><path d="M 105.88484417918355 120.15858648285463 l 3.8585768539473397 13.217589598409736 a34.76928793110985,34.76928793110985 0 0,0 -0.5759595989728482,0.1627719357746608 l -3.630486086869886 -13.282050327522915" fill="#ffa20f" stroke="none" /><path d="M 105.53697534728816 120.25689768951611 l 2.5932043477642033 9.487178805373508 a30.835205665078462,30.835205665078462 0 0,0 -0.5131999560865704,0.13554077280427984 l -2.4295139488661355 -9.530410927481372" fill="#ff6c0a" stroke="none" /><path d="M 104.83641907484287 120.43548508189849 l 10.713079442589708 45.2663368790779 a67.51678541766839,67.51678541766839 0 0,0 -1.1332526874997115,0.2579246221209487 l -9.932306605697134 -45.444038234776535" fill="#38ff82" stroke="none" /><path d="M 104.13013068566511 120.58985236759428 l 3.088023138565497 15.39465585228561 a36.70131573195786,36.70131573195786 0 0,0 -0.6204836034606682,0.11891715936665977 l -2.8225719205331243 -15.445530210000737" fill="#ffbc11" stroke="none" /><path d="M 103.7750983002368 120.6578951692458 l 3.6156799058709703 19.78553418234053 a41.113192289198764,41.113192289198764 0 0,0 -0.6972621771364536,0.12122796705173312 l -3.274568757262467 -19.84484072791327" fill="#fff417" stroke="none" /><path d="M 102.70371172650421 120.8252237178851 l 3.296441839608344 25.390702015262942 a46.60379420378546,46.60379420378546 0 0,0 -0.7964201772140779,0.09643539221514535 l -2.858894239342886 -25.443682936203437" fill="#c7ff1e" stroke="none" /><path d="M 102.34483914955558 120.86867818915974 l 1.1046686162667898 9.831366839343843 a30.893233378502426,30.893233378502426 0 0,0 -0.5289618908745354,0.05482906278382999 l -0.9352741287866518 -9.84892527058343" fill="#ff6d0a" stroke="none" /><path d="M 101.98527174616119 120.90594882070398 l 1.8590932647642253 19.57722348148539 a40.66529702321108,40.66529702321108 0 0,0 -0.6974208473160686,0.06017640530031083 l -1.521828099706615 -19.606324139064366" fill="#ffef16" stroke="none" /><path d="M 101.62511606390274 120.93702456842531 l 1.2332296746927345 15.88819443181527 a36.935983739126634,36.935983739126634 0 0,0 -0.6343091049329976,0.04374566964341196 l -0.9595578089808064 -15.907068445974968" fill="#ffbf11" stroke="none" /><path d="M 100.90346689309514 120.98055641714683 l 0.6937596003694918 16.11067604881959 a37.12560650434935,37.12560650434935 0 0,0 -0.6387012410360273,0.021998162156530603 l -0.4163380076588121 -16.120231009402215" fill="#ffc112" stroke="none" /><line stroke="#e1ed5e" stroke-width="0.3" x1="102.19456741930631" x2="102.32365962044197" y1="184.97166512339345" y2="189.96999836594603" /><path d="M 102.22038585953345 185.97133177190398 a86.0,86.0 0 0,1 -42.740103519485714,-10.115201625700543" fill="none" id="id19" stroke="none" /><text fill="#e1ed5e" style="font-size:6.75px; font-family:Arial;" text-anchor="middle"><textPath startOffset="22.20632615414155" xlink:href="#id19">July</textPath></text><path d="M 100.54218724476979 120.99299961872073 l 0.40724224689426336 15.768051381231102 a36.773309437426235,36.773309437426235 0 0,0 -0.6329217317493437,0.010896321594994155 l -0.13576082525225167 -15.772725180105256" fill="#ffbd11" stroke="none" /><path d="M 99.09653310690486 120.98055641714683 l -0.6238665724055994 14.48760095047488 a35.50102723259169,35.50102723259169 0 0,0 -0.6102997340258693,-0.031545525157166375 l 0.8731543748449577 -14.474715618555512" fill="#ffac0f" stroke="none" /><path d="M 98.37488393609728 120.93702456842531 l -0.9873600739319159 12.720557371237849 a33.75881890107969,33.75881890107969 0 0,0 -0.5789728787408617,-0.049956216168582944 l 1.2061772704143192 -12.701676902790602" fill="#ff950d" stroke="none" /><path d="M 97.65516085044442 120.86867818915974 l -1.7572346617564496 15.639096040332912 a36.737509288805356,36.737509288805356 0 0,0 -0.6278135537689095,-0.07601947819488722 l 2.026175638576748 -15.606531033412676" fill="#ffbc11" stroke="none" /><path d="M 96.93821686468263 120.77559828337769 l -1.4330760291559828 9.72407599606061 a30.829107837566113,30.829107837566113 0 0,0 -0.5243357941201998,-0.08189046753133551 l 1.6002476868846998 -9.697967221182168" fill="#ff6c0a" stroke="none" /><path d="M 95.51606077576429 120.51570834832081 l -2.5200685410178076 11.530261366134397 a32.80244350220746,32.80244350220746 0 0,0 -0.5505809707241499,-0.12531043639906989 l 2.7181696611348203 -11.48517419615764" fill="#ff880c" stroke="none" /><path d="M 94.81253420990036 120.34920634021253 l -5.838510741357126 22.903102324486138 a44.63557284608996,44.63557284608996 0 0,0 -0.7428837762044007,-0.19620235726115495 l 6.231884960373017 -22.7992086179214" fill="#deff1b" stroke="none" /><path d="M 94.46302465271185 120.25689768951611 l -4.146378159814091 15.16942967906392 a36.72590374612056,36.72590374612056 0 0,0 -0.6083712969745402,-0.17193180538163955 l 4.406880624893246 -15.09580908034376" fill="#ffbc11" stroke="none" /><path d="M 94.11515582081647 120.15858648285463 l -6.623192047274108 22.687803722961768 a44.63478602963676,44.63478602963676 0 0,0 -0.7356769740648658,-0.22165343743550409 l 7.0127439957792195 -22.57043491642054" fill="#deff1b" stroke="none" /><path d="M 93.76903079525671 120.05430185196036 l -2.350927377781738 7.566432398700162 a28.92324168378721,28.92324168378721 0 0,0 -0.4741740353573288,-0.15181555219891332 l 2.480822758230007 -7.524843999841542" fill="#ff5207" stroke="none" /><path d="M 93.42475214034765 119.94407469862007 l -5.541017405404148 16.80704171136405 a38.696878961402284,38.696878961402284 0 0,0 -0.6308149004453663,-0.21400666375914876 l 5.82950203878674 -16.70917206070678" fill="#ffd614" stroke="none" /><path d="M 92.40401165467489 119.57807347666478 l -7.111144585393178 18.328426120045037 a40.65959260392534,40.65959260392534 0 0,0 -0.6503190577325175,-0.2587753741275418 l 7.425584719167553 -18.20330390151143" fill="#ffef16" stroke="none" /><path d="M 91.07499286063937 119.00905698771935 l -5.952187630577226 12.677353878211708 a35.00513616295843,35.00513616295843 0 0,0 -0.5432252585921318,-0.26078113586882684 l 6.1695255571696 -12.573018465843319" fill="#ffa50f" stroke="none" /><path d="M 90.42595943632237 118.69057910512821 l -5.099580520549602 9.955474126975151 a32.18557940289374,32.18557940289374 0 0,0 -0.49092066143822405,-0.25682648772113614 l 5.2701920845143215 -9.866218220309298" fill="#ff7f0b" stroke="none" /><line stroke="#e1ed5e" stroke-width="0.3" x1="58.666819895761336" x2="56.23545636021788" y1="174.27360380694188" y2="178.64263932499728" /><path d="M 58.180547188652646 175.14741091055294 a86.0,86.0 0 0,1 -31.652253787137756,-30.449443065178592" fill="none" id="id20" stroke="none" /><text fill="#e1ed5e" style="font-size:6.75px; font-family:Arial;" text-anchor="middle"><textPath startOffset="22.20632615414155" xlink:href="#id20">August</textPath></text><path d="M 89.7882731507175 118.34994917583269 l -7.656164711315819 13.757735141957927 a36.744590636884205,36.744590636884205 0 0,0 -0.5500336845561911,-0.31232348108838076 l 7.891847162793217 -13.623908495074913" fill="#ffbc11" stroke="none" /><path d="M 89.1626897886671 117.98757091392108 l -9.137160180520857 15.165692731311083 a38.705533942387554,38.705533942387554 0 0,0 -0.5677195015229236,-0.34873968664120947 l 9.396858881976089 -15.006164577841496" fill="#ffd614" stroke="none" /><path d="M 88.8546689885994 117.79835938074946 l -10.435920068412276 16.665476840156725 a40.66332998207807,40.66332998207807 0 0,0 -0.590040792138578,-0.37659195035669435 l 10.721242662597778 -16.483370460976225" fill="#ffef16" stroke="none" /><path d="M 88.24862548938628 117.40417183066458 l -13.376242969273152 19.81065541530349 a44.90368055252,44.90368055252 0 0,0 -0.6368691479838615,-0.43804440726623367 l 13.715269001879903 -19.577470218672158" fill="#dbff1b" stroke="none" /><path d="M 85.97065885151581 115.62618273729859 l -4.0231450108422395 4.481065678901419 a27.022096428727544,27.022096428727544 0 0,0 -0.3434385576751181,-0.3137229795866109 l 4.099683117984212 -4.4111499327282315" fill="#ff3605" stroke="none" /><path d="M 85.70375840098266 115.38237550388516 l -12.049305469744219 12.96473202504936 a38.6994361148752,38.6994361148752 0 0,0 -0.4840454807933132,-0.4576952146856487 l 12.27068678492835 -12.755402173617782" fill="#ffd614" stroke="none" /><path d="M 85.44109423537348 115.13401014063109 l -8.21500524476644 8.539513524546962 a32.84945578528654,32.84945578528654 0 0,0 -0.4041265936456199,-0.3955229292552047 l 8.360781790787854 -8.396840492369188" fill="#ff880c" stroke="none" /><path d="M 84.9287848128048 114.62390073753433 l -8.471611756507631 8.220173879499388 a32.804213839227174,32.804213839227174 0 0,0 -0.38973506857385315,-0.4086356612594138 l 8.611853376460441 -8.073131101657474" fill="#ff880c" stroke="none" /><path d="M 84.43433777217949 114.09645910891817 l -22.01091112929632 19.933357421157538 a50.6954364645714,50.6954364645714 0 0,0 -0.5801999770226033,-0.6518608248426268 l 22.350769955967262 -19.551522426574046" fill="#98ff23" stroke="none" /><path d="M 84.19399662182784 113.82643327865904 l -22.239730460276373 19.454389701638267 a50.54790837959523,50.54790837959523 0 0,0 -0.5672377731038865,-0.6598256798253254 l 22.571310742951038 -19.06868692265141" fill="#9aff23" stroke="none" /><path d="M 83.95833913139862 113.55231037782056 l -4.509904607655245 3.8100560483071564 a26.9038772566333,26.9038772566333 0 0,0 -0.2958196608061876,-0.356333838044079 l 4.574820268354969 -3.731860953149316" fill="#ff3505" stroke="none" /><path d="M 83.72743513129214 113.27417163493432 l -24.38766052298244 19.89397456200075 a52.472658128251084,52.472658128251084 0 0,0 -0.5649108623650704,-0.7048131598163394 l 24.72648929740237 -19.471233568606152" fill="#84ff25" stroke="none" /><path d="M 83.28015986056508 112.70617746262583 l -17.900958989792166 13.603764137614162 a43.483476854482674,43.483476854482674 0 0,0 -0.4477529502241391,-0.5998382475666066 l 18.13247320671139 -13.293613010538248" fill="#ecff1a" stroke="none" /><path d="M 82.85270091963577 112.12312394758628 l -11.242344455099264 7.948326710338846 a34.76830441054334,34.76830441054334 0 0,0 -0.3412907967000087,-0.491654847316794 l 11.377496158961407 -7.75363060083504" fill="#ffa20f" stroke="none" /><path d="M 82.6465618267979 111.8261652097733 l -29.325803157695034 19.985191959697886 a56.48817589718932,56.48817589718932 0 0,0 -0.5406641874451182,-0.8082196019501846 l 29.665470450550885 -19.47743544354188" fill="#59ff2a" stroke="none" /><path d="M 82.44556493220864 111.52570212397912 l -16.437078542235458 10.792080197092353 a40.66332998207807,40.66332998207807 0 0,0 -0.3791277261612024,-0.588414650324766 l 16.620411131773707 -10.50754394684614" fill="#ffef16" stroke="none" /><path d="M 82.05923443525364 110.91462005526583 l -18.344026392216904 11.159951766397594 a42.472024303886,42.472024303886 0 0,0 -0.3746014832804371,-0.6278536330150747 l 18.533408751195573 -10.842536039496407" fill="#f9ff18" stroke="none" /><line stroke="#e1ed5e" stroke-width="0.3" x1="26.63291911575756" x2="22.317208475507996" y1="142.92168965132927" y2="145.44649492493687" /><path d="M 25.769776987707644 143.4266507060508 a86.0,86.0 0 0,1 -11.730757126820373,-40.83630448921669" fill="none" id="id21" stroke="none" /><text fill="#e1ed5e" style="font-size:6.75px; font-family:Arial;" text-anchor="middle"><textPath startOffset="21.46611528233685" xlink:href="#id21">September</textPath></text><path d="M 81.87401531095188 110.60418214915194 l -19.525963717432802 11.423207039477134 a43.62195655024698,43.62195655024698 0 0,0 -0.3735867528328406,-0.6513799932851754 l 19.71970246641802 -11.085407200333652" fill="#ebff1a" stroke="none" /><path d="M 81.51974371655577 109.97397251340807 l -54.68310130757952 29.512997061535188 a83.13902609607902,83.13902609607902 0 0,0 -0.6688633298837282,-1.265237352412837 l 55.18301714568813 -28.567344694036223" fill="#4cdaff" stroke="none" /><path d="M 81.35079622478065 109.6543875284942 l -8.78540897720518 4.548062420496181 a30.892839970275823,30.892839970275823 0 0,0 -0.24040709533440302,-0.47434600652182807 l 8.86239474232585 -4.396162202271667" fill="#ff6d0a" stroke="none" /><path d="M 80.87730276802145 108.67885076344099 l -16.176656208804037 7.341787791992112 a38.76474188049133,38.76474188049133 0 0,0 -0.27053897717508263,-0.6099939733256963 l 16.3006362707104 -7.0622454821737195" fill="#ffd714" stroke="none" /><path d="M 80.73074385275274 108.34839909993369 l -18.047622922143276 7.819126893525028 a40.66864099313722,40.66864099313722 0 0,0 -0.2727684847678912,-0.6447441234834717 l 18.179542388103474 -7.507308244375398" fill="#ffef16" stroke="none" /><path d="M 80.45479744820244 107.68017299344265 l -42.93820017942281 16.872314550391213 a67.13419591729684,67.13419591729684 0 0,0 -0.4133731222379318,-1.0791867810135736 l 43.22226758125425 -16.130704202544482" fill="#38ff7d" stroke="none" /><path d="M 80.32549172779594 107.34259656027581 l -18.431237198570717 6.8786033675388065 a40.672968483629845,40.672968483629845 0 0,0 -0.2391488019346387,-0.658034792600667 l 18.546910261510583 -6.560320777932022" fill="#ffef16" stroke="none" /><path d="M 80.20201598880116 107.00284435728193 l -17.119169246808795 6.055307332986879 a39.158543515321064,39.158543515321064 0 0,0 -0.21930494115763524,-0.6374028133715401 l 17.220865018909656 -5.759731816526042" fill="#ffdc14" stroke="none" /><path d="M 79.97269907076064 106.31721596034903 l -17.468282628799766 5.510024252016506 a39.31669362241553,39.31669362241553 0 0,0 -0.19803112280145385,-0.6471771673192367 l 17.56054052410735 -5.208520112145222" fill="#ffde14" stroke="none" /><path d="M 79.86692584326677 105.97154293290107 l -20.73742217608777 6.150794750874559 a42.630371115093766,42.630371115093766 0 0,0 -0.20261071093163352,-0.705314464781149 l 20.840225523905506 -5.792922810588815" fill="#f7ff19" stroke="none" /><path d="M 79.67330655649465 105.27499134158121 l -40.56986591906518 10.528308111054688 a62.91371246229838,62.91371246229838 0 0,0 -0.2630053395182748,-1.0505755943183526 l 40.74508257287851 -9.828404677338943" fill="#32ff4b" stroke="none" /><path d="M 79.50377843672027 104.57218783832718 l -17.28405168227865 3.855634105766731 a38.708877912313675,38.708877912313675 0 0,0 -0.13947354557778463,-0.6515739718052277 l 17.347859266580876 -3.5575463145453394" fill="#ffd614" stroke="none" /><path d="M 79.4281124754447 104.21870165774334 l -19.307943067838945 3.9595030514666902 a40.709752152817245,40.709752152817245 0 0,0 -0.13486572313407155,-0.6876774166989377 l 19.373238723948685 -3.6265619076997977" fill="#ffef16" stroke="none" /><path d="M 79.35854240842038 103.8639653848113 l -20.571015309725745 3.8507789837297386 a41.92833413472046,41.92833413472046 0 0,0 -0.12669056988758318,-0.7105479967399789 l 20.634252321952516 -3.496112236256546" fill="#fffe18" stroke="none" /><path d="M 79.29508885075956 103.50808413554451 l -25.28629245961571 4.2843188644917625 a46.646675700485204,46.646675700485204 0 0,0 -0.12731931504902955,-0.7928174963460967 l 25.35629352902603 -3.848422138452452" fill="#c7ff1e" stroke="none" /><path d="M 79.1416061653843 102.43462659150553 l -41.10610208050163 4.797972940382637 a62.38516850985706,62.38516850985706 0 0,0 -0.11531660295341446,-1.0676885248704902 l 41.182600984956096 -4.089688093627365" fill="#32ff45" stroke="none" /><path d="M 79.07016306316243 101.71520430193888 l -17.84360120095803 1.4622866692333327 a38.90341828036893,38.90341828036893 0 0,0 -0.04895058050895964,-0.6678917796274284 l 17.866128340131326 -1.1549217531091436" fill="#ffd814" stroke="none" /><path d="M 79.04373962182676 101.35467743843564 l -17.66669321929045 1.1420296505221663 a38.70356690125453,38.70356690125453 0 0,0 -0.037254300987757324,-0.6652005701603031 l 17.683733871165742 -0.8377573640264256" fill="#ffd614" stroke="none" /><path d="M 79.0235259727143 100.99374915477108 l -29.048157415063642 1.3761408061873395 a50.08073611050399,50.08073611050399 0 0,0 -0.033382070989947735,-0.8614429223524664 l 29.06754161890479 -0.8759206368208764" fill="#9fff22" stroke="none" /><line stroke="#e1ed5e" stroke-width="0.3" x1="15.007084014347285" x2="10.007500721073583" y1="101.09737516637583" y2="101.16192664675087" /><path d="M 14.007167355692545 101.11028546245083 a86.0,86.0 0 0,1 10.666146001902534,-42.60595125391555" fill="none" id="id22" stroke="none" /><text fill="#e1ed5e" style="font-size:6.75px; font-family:Arial;" text-anchor="middle"><textPath startOffset="22.20632615414155" xlink:href="#id22">October</textPath></text><path d="M 79.01574976396665 99.18683210126434 l -17.93460926323344 -0.6949902124301636 a38.94807011408838,38.94807011408838 0 0,0 0.031726711710512036,-0.6697007398412202 l 17.919988943289432 1.003602058894393" fill="#ffd914" stroke="none" /><path d="M 79.03285615573316 98.82574320788736 l -22.58263478852457 -1.264731738437287 a43.61802246798094,43.61802246798094 0 0,0 0.048435547881406804,-0.7492764876444096 l 22.55751864963875 1.6532672903347083" fill="#ebff1a" stroke="none" /><path d="M 79.08570108090925 98.10471618934814 l -24.476308103107662 -2.2180781995996983 a45.57660532412467,45.57660532412467 0 0,0 0.07752987351544634,-0.7807152458340183 l 24.434501103909987 2.6390689761381467" fill="#d3ff1c" stroke="none" /><path d="M 79.16333360222342 97.38593545837743 l -45.49061465971348 -5.707026281865398 a66.84720461598985,66.84720461598985 0 0,0 0.15306100236840137,-1.1404822522933238 l 45.385637658287244 6.4892268762233805" fill="#37ff7a" stroke="none" /><path d="M 79.21141760316559 97.0276538004421 l -17.5405246104114 -2.507939727143073 a38.71890982209206,38.71890982209206 0 0,0 0.10001298430017189,-0.6589606065536308 l 17.494755732671923 2.809499446088796" fill="#ffd614" stroke="none" /><path d="M 79.26566170972629 96.67025291283419 l -19.423900246849815 -3.119302596634428 a40.672771779516545,40.672771779516545 0 0,0 0.1169596654560862,-0.6903025662288871 l 19.367328719873505 3.4531909511791428" fill="#ffef16" stroke="none" /><path d="M 79.3925641242962 95.95851677861259 l -19.307720613683877 -3.786586034968032 a40.675525637102766,40.675525637102766 0 0,0 0.14066120527590914,-0.6859139917356056 l 19.239680112492973 4.11837568286704" fill="#ffef16" stroke="none" /><path d="M 79.46518482838121 95.60439243477599 l -21.590157898015377 -4.621510376293101 a43.07924990164794,43.07924990164794 0 0,0 0.16145613195245778,-0.723776181176865 l 21.507407379060883 4.992464727019925" fill="#f1ff19" stroke="none" /><path d="M 79.54389044137918 95.25157060432595 l -26.824956063055833 -6.226815003236957 a48.53818245399309,48.53818245399309 0 0,0 0.19592599081212608,-0.8122397210830434 l 26.71379727198289 6.687639955979397" fill="#b1ff20" stroke="none" /><path d="M 79.62865764111835 94.90015583598534 l -18.127860172523324 -4.538201767867791 a39.68728417187569,39.68728417187569 0 0,0 0.17160718956722876,-0.661272504380824 l 18.047056651085786 4.849570697797478" fill="#ffe215" stroke="none" /><path d="M 79.81627453868168 94.20196356495316 l -29.364516813380508 -8.435337604438732 a51.55208287799974,51.55208287799974 0 0,0 0.2523452434031864,-0.8507827132153145 l 29.214965672865613 8.939549704400585" fill="#8eff24" stroke="none" /><path d="M 80.02781315780177 93.51064311812611 l -17.541062393344614 -5.699436664447984 a39.44376447960835,39.44376447960835 0 0,0 0.21536803709813004,-0.6439230183622312 l 17.44035706247471 6.0005327857325375" fill="#ffdf14" stroke="none" /><path d="M 80.2630227832202 92.82701384747504 l -3.8666303507167177 -1.4052448689581503 a25.11406652970232,25.11406652970232 0 0,0 0.15115727492472505,-0.40502634612933314 l 3.841868487290365 1.4715943521168249" fill="#ff1b02" stroke="none" /><path d="M 80.38941819471856 92.48833698450439 l -47.81036797202781 -18.313346152534685 a72.19775320190584,72.19775320190584 0 0,0 0.45452422177817814,-1.1567145670986334 l 47.488050200367944 19.133609724529084" fill="#3effb6" stroke="none" /><path d="M 80.65960295795068 91.81776055985345 l -16.298860882169656 -6.895472830759381 a38.697469073742184,38.697469073742184 0 0,0 0.2648183719748716,-0.6112373140044716 l 16.1777518003521 7.175009289350451" fill="#ffd614" stroke="none" /><path d="M 80.803312248108 91.48605970444005 l -12.803925446789735 -5.678680520915613 a35.00670979586484,35.00670979586484 0 0,0 0.24904387305897852,-0.5487351622691137 l 12.704279256767405 5.898237692026798" fill="#ffa50f" stroke="none" /><path d="M 80.95270993114464 91.15688171328213 l -17.83294935261522 -8.279334223196516 a40.66116623683175,40.66116623683175 0 0,0 0.3001990787551993,-0.6322958201685013 l 17.68779208001827 8.585072459005548" fill="#ffef16" stroke="none" /><path d="M 81.43458229118936 90.18545643968196 l -26.86141957666248 -14.20019612066261 a51.3839008611269,51.3839008611269 0 0,0 0.4201047432579276,-0.7783902864039712 l 26.61300673418608 14.660467390399054" fill="#90ff24" stroke="none" /><path d="M 81.6062741919709 89.86733742301443 l -17.223981375823538 -9.48827841270316 a40.66451020675788,40.66451020675788 0 0,0 0.34301939303395806,-0.6101932250749843 l 17.05810434149715 9.78335514771293" fill="#ffef16" stroke="none" /><line stroke="#e1ed5e" stroke-width="0.3" x1="26.266209847984243" x2="21.928928074336255" y1="57.711370442889674" y2="55.22380399835377" /><path d="M 25.398753493254645 57.213857153982495 a86.0,86.0 0 0,1 29.58750427330803,-30.492523968695096" fill="none" id="id23" stroke="none" /><text fill="#e1ed5e" style="font-size:6.75px; font-family:Arial;" text-anchor="middle"><textPath startOffset="21.46611528233685" xlink:href="#id23">November</textPath></text><path d="M 81.78341655067845 89.55222093294921 l -15.399217771445773 -8.831931933287947 a38.75215281724002,38.75215281724002 0 0,0 0.3368490757254622,-0.5757842616470008 l 15.244909021249986 9.095695607288839" fill="#ffd614" stroke="none" /><path d="M 81.96595687620814 89.24020034530311 l -16.079892459021895 -9.5938786516425 a39.72446124928968,39.72446124928968 0 0,0 0.35540946144442387,-0.5841997059889245 l 15.912367199291255 9.869246130838498" fill="#ffe315" stroke="none" /><path d="M 82.54541684631803 88.32363383020206 l -16.34341880296033 -10.933044961859798 a40.66313327796476,40.66313327796476 0 0,0 0.39419138498309053,-0.5784272168005796 l 16.152802952308498 11.212750201930794" fill="#ffef16" stroke="none" /><path d="M 82.7489923806493 88.02491185347247 l -11.296604287545266 -7.841735108159837 a34.751584560912704,34.751584560912704 0 0,0 0.3453436733181364,-0.4884641349457367 l 11.15994799442325 8.03502574343736" fill="#ffa20f" stroke="none" /><path d="M 83.17141714833178 87.43820079747576 l -17.320023835474956 -12.928638348332596 a42.61325785723653,42.61325785723653 0 0,0 0.4438354647053175,-0.584035445743816 l 17.09491243054553 13.224858569957439" fill="#f7ff18" stroke="none" /><path d="M 83.39014120810768 87.1503855733568 l -17.314905751957564 -13.395048418769465 a42.89139747344494,42.89139747344494 0 0,0 0.4567850486932391,-0.5800706245924474 l 17.081766622670354 13.69111143731496" fill="#f4ff19" stroke="none" /><path d="M 83.6137871275137 86.86637796730984 l -26.422396049930676 -21.17766720219478 a54.86202299252525,54.86202299252525 0 0,0 0.5969549991205544,-0.731796244168176 l 26.053942558733727 21.62934761597104" fill="#6aff28" stroke="none" /><path d="M 84.07557802195018 86.31012108654704 l -5.990937413681797 -5.150278476947448 a28.90042400664423,28.90042400664423 0 0,0 0.32754933617293075,-0.37444551387366215 l 5.901396213931022 5.252639547024053" fill="#ff5107" stroke="none" /><path d="M 84.31358615837235 86.03803664274999 l -31.152624869974485 -27.727931400259923 a62.705206102198716,62.705206102198716 0 0,0 0.7245627155800048,-0.8000802475605796 l 30.670718513778436 28.260064435090058" fill="#32ff49" stroke="none" /><path d="M 84.80347519578584 85.50635884689758 l -13.522799439160503 -12.897330474018343 a39.68708746776238,39.68708746776238 0 0,0 0.4757456278655193,-0.49029768873673996 l 13.298789547591866 13.128192358305206" fill="#ffe215" stroke="none" /><path d="M 85.05521093208273 85.24692304244772 l -9.208544899734616 -9.090417466279652 a33.93958998120383,33.93958998120383 0 0,0 0.4140051385802168,-0.4122272689447536 l 9.050703960987086 9.247580585874514" fill="#ff970d" stroke="none" /><path d="M 85.31137513191541 84.99185889309783 l -14.013718057255458 -14.31855329715823 a41.035100756218036,41.035100756218036 0 0,0 0.5090633974784354,-0.48971858504384835 l 13.765171416164595 14.557654968964393" fill="#fff316" stroke="none" /><line stroke="#e1ed5e" stroke-width="0.3" x1="56.762969772571076" x2="54.21961505331055" y1="26.818313649435495" y2="22.513508569990535" /><path d="M 56.25429882871897 25.957352633546506 a86.0,86.0 0 0,1 42.265352541879196,-11.944610805530505" fill="none" id="id24" stroke="none" /><text fill="#e1ed5e" style="font-size:6.75px; font-family:Arial;" text-anchor="middle"><textPath startOffset="22.20632615414155" xlink:href="#id24">December</textPath></text></svg>