<?xml version="1.0" encoding="utf-8" ?>
<svg baseProfile="full" height="200mm" version="1.1" viewBox="0,0,200,200" width="200mm" xmlns="http://www.w3.org/2000/svg" xmlns:ev="http://www.w3.org/2001/xml-events" xmlns:xlink="http://www.w3.org/1999/xlink"><defs /><rect fill="#1a1a1a" height="200" width="200" x="0" y="0" /><text alignment-baseline="middle" fill="#e1ed5e" style="dominant-baseline: central; font-size:9.0px; font-family:Arial;" text-anchor="middle" x="100.0" y="100.0">2023</text><line stroke="#e1ed5e" stroke-width="0.3" x1="100.0" x2="100.0" y1="15.0" y2="10.0" /><path d="M 100.0 14.0 a86.0,86.0 0 0,1 42.46469731375804,11.215312516191453" fill="none" id="id25" stroke="none" /><text fill="#e1ed5e" style="font-size:6.75px; font-family:Arial;" text-anchor="middle"><textPath startOffset="22.20632615414155" xlink:href="#id25">January</textPath></text><path d="M 100.0 79.0 l 0.0 -16.090412933786425 a37.090412933786425,37.090412933786425 0 0,0 0.6384504877962429,0.005495344914474877 l -0.27697000852371456 16.088028965480508" fill="#ff8a0c" stroke="none" /><path d="M 101.08401301168833 79.027996857942 l 0.7724735338042863 -14.944762842715752 a35.964713555075,35.964713555075 0 0,0 0.6179730263468334,0.037277820560373515 l -1.0296086089907317 14.929251752775075" fill="#ff790b" stroke="none" /><line stroke="#e1ed5e" stroke-width="0.3" x1="143.23703022742887" x2="145.7803849466894" y1="26.81831364943548" y2="22.513508569990506" /><path d="M 143.74570117128098 25.957352633546492 a86.0,86.0 0 0,1 28.547481713284135,27.462654790039103" fill="none" id="id26" stroke="none" /><text fill="#e1ed5e" style="font-size:6.75px; font-family:Arial;" text-anchor="middle"><textPath startOffset="19.985693538727396" xlink:href="#id26">February</textPath></text><path d="M 110.68208982089419 81.91981866633111 l 5.024795211805651 -8.504816016084796 a30.878282360210072,30.878282360210072 0 0,0 0.4552898832744675,0.27430706039959246 l -5.170447161297756 8.417062346226588" fill="#ff2b04" stroke="none" /><path d="M 111.60114157652 82.49532879139004 l 14.625304422065788 -22.067754586517733 a47.474238835684616,47.474238835684616 0 0,0 0.6772885281806549,0.4573082375784215 l -15.002997644652986 21.81273443664064" fill="#e3ff1b" stroke="none" /><path d="M 111.90073688211348 82.69761687909136 l 6.889979132884147 -10.017283789493895 a33.15803384478083,33.15803384478083 0 0,0 0.4674791092414759,0.32749899064542676 l -7.061389381709273 9.897199956084533" fill="#ff4e07" stroke="none" /><path d="M 112.48926042617603 83.11751280151076 l 8.778307165756972 -11.866167674723906 a35.76023753132187,35.76023753132187 0 0,0 0.49170981569919137,0.37034563897108946 l -8.981263135214547 11.713305446246968" fill="#ff760a" stroke="none" /><path d="M 114.16331599549186 84.49514656593476 l 8.128280686299389 -8.898184630783463 a33.05183125665053,33.05183125665053 0 0,0 0.4167554449001963,0.38732876638554986 l -8.280244014994432 8.756951278323273" fill="#ff4d07" stroke="none" /><path d="M 114.42810811169701 84.74124197986012 l 8.577889055846043 -9.071732233600937 a33.48505131637662,33.48505131637662 0 0,0 0.41540080744829344,0.3996152476436299 l -8.732773106906755 8.922733899195006" fill="#ff5307" stroke="none" /><path d="M 114.68862486808459 84.99185889309783 l 11.769857512805636 -12.025882881938848 a37.82710328493461,37.82710328493461 0 0,0 0.4614261735701581,0.45944466294009273 l -11.975119486543118 11.821502368348636" fill="#ff950d" stroke="none" /><path d="M 115.19652480421416 85.50635884689758 l 21.825867259050867 -20.816357159513654 a51.16105447430749,51.16105447430749 0 0,0 0.6023183099284796,0.6425111776020341 l -22.180952890949808 20.437576565033563" fill="#b4ff20" stroke="none" /><path d="M 115.68641384162765 86.03803664274999 l 14.75939719965227 -13.136856196525105 a40.75896749390725,40.75896749390725 0 0,0 0.4619507569388537,0.5280895714438993 l -14.983339820168972 12.880851068878258" fill="#ffbf11" stroke="none" /><path d="M 116.15771136456269 86.58626213691792 l 14.5352663144431 -12.066823556437733 a39.891325987711525,39.891325987711525 0 0,0 0.43405848291731536,0.5321043764038933 l -14.740823289436824 11.814835010425739" fill="#ffb310" stroke="none" /><path d="M 117.2510076193507 88.02491185347247 l 27.671406539800373 -19.208590000320225 a54.684962070504234,54.684962070504234 0 0,0 0.5301200177803784,0.7778857127182797 l -27.997951023249485 18.72942626433154" fill="#88ff25" stroke="none" /><line stroke="#e1ed5e" stroke-width="0.3" x1="172.23445277983987" x2="176.4835382374775" y1="55.19839476539836" y2="52.563006222186495" /><path d="M 173.08426987136738 54.67131705675599 a86.0,86.0 0 0,1 12.851231095245387,41.99856678651699" fill="none" id="id27" stroke="none" /><text fill="#e1ed5e" style="font-size:6.75px; font-family:Arial;" text-anchor="middle"><textPath startOffset="22.20632615414155" xlink:href="#id27">March</textPath></text><path d="M 117.84615892207809 88.93136811851018 l 13.270629120525141 -8.23077443231507 a36.61586517008204,36.61586517008204 0 0,0 0.3275972665495296,0.5384837703059858 l -13.410342185360895 8.001122888802001" fill="#ff830c" stroke="none" /><path d="M 118.03404312379186 89.2402003453031 l 6.200150205193399 -3.699246673581305 a28.219853774070643,28.219853774070643 0 0,0 0.24529815687231513,0.4192940646606032 l -6.262908036536042 3.5919731965668062" fill="#ff0000" stroke="none" /><path d="M 118.21658344932153 89.55222093294921 l 19.793982544785624 -11.3524666719369 a43.81841897504549,43.81841897504549 0 0,0 0.3696237186702842,0.6575193517915695 l -19.98646390474834 11.010063810210536" fill="#ffea16" stroke="none" /><path d="M 118.3937258080291 89.86733742301442 l 25.818436076813164 -14.222757464266614 a50.47674458517832,50.47674458517832 0 0,0 0.41268801062349186,0.7646482072388364 l -26.05943218665512 13.776228273695319" fill="#bcff1f" stroke="none" /><path d="M 118.56541770881063 90.18545643968196 l 10.606200370724094 -5.60693097136901 a32.99704802114441,32.99704802114441 0 0,0 0.2611332435560405,0.5044263095082221 l -10.701143047440251 5.423531939600443" fill="#ff4c07" stroke="none" /><path d="M 118.89224826269711 90.83032412892265 l 33.761525639948665 -16.386734004690634 a58.52819826313802,58.52819826313802 0 0,0 0.43211036047165274,0.9101346210343749 l -34.038594194262075 15.803156968015719" fill="#5bff2a" stroke="none" /><path d="M 119.04729006885535 91.15688171328212 l 21.799153725183654 -10.120730783501449 a45.03398208217486,45.03398208217486 0 0,0 0.3203796467138605,0.7059140836025171 l -21.97013568886086 9.743994691056868" fill="#fffa17" stroke="none" /><path d="M 119.196687751892 91.48605970444005 l 11.019112703084911 -4.88709661149042 a33.05423403013764,33.05423403013764 0 0,0 0.22620002424595176,0.5221008429919657 l -11.101603437173543 4.696696623911851" fill="#ff4d07" stroke="none" /><path d="M 119.34039704204932 91.81776055985345 l 20.045864905183386 -8.480697996139034 a42.76600418769094,42.76600418769094 0 0,0 0.28098957697311494,0.6804385485337178 l -20.188876169042697 8.134384877152012" fill="#ffdb14" stroke="none" /><path d="M 119.47837535516314 92.15188598940014 l 10.174781730507416 -4.0995640343702515 a31.969622078055814,31.969622078055814 0 0,0 0.20126620221730354,0.5122005314889324 l -10.243841482606419 3.9238144979855343" fill="#ff3c05" stroke="none" /><path d="M 119.61058180528143 92.48833698450437 l 22.465816458677992 -8.605335847818452 a45.05752926234854,45.05752926234854 0 0,0 0.2711935691530764,0.7266639363705344 l -22.610614616332693 8.217348774418584" fill="#fffb17" stroke="none" /><path d="M 119.7369772167798 92.82701384747503 l 11.29198356698178 -4.103832155799334 a33.01458826760032,33.01458826760032 0 0,0 0.1895146144758012,0.5357833354355348 l -11.360951262267392 3.908851193937185" fill="#ff4c07" stroke="none" /><path d="M 119.85752413597 93.16781622104841 l 59.57257240790998 -20.496551336854747 a84.0,84.0 0 0,0 0.45865082491291975,1.371307588310744 l -59.91656052659467 19.46807064562169" fill="#4dd2ff" stroke="none" /><path d="M 119.97218684219823 93.5106431181261 l 32.08154911127368 -10.423927191916112 a54.73253698554903,54.73253698554903 0 0,0 0.283422059839633,0.8985253817537089 l -32.25622665488152 9.870151643735984" fill="#88ff25" stroke="none" /><path d="M 120.18372546131832 94.20196356495316 l 48.95995053063295 -14.064379620042637 a71.93999931349329,71.93999931349329 0 0,0 0.3316544599520432,1.19313755204467 l -49.19479176115136 13.219530764579016" fill="#3cffa7" stroke="none" /><line stroke="#e1ed5e" stroke-width="0.3" x1="184.98032266829074" x2="189.97916517819016" y1="98.17113171792111" y2="98.06355123074" /><path d="M 185.9800911702706 98.14961562048488 a86.0,86.0 0 0,1 -9.607161424134198,41.387399972396054" fill="none" id="id28" stroke="none" /><text fill="#e1ed5e" style="font-size:6.75px; font-family:Arial;" text-anchor="middle"><textPath startOffset="21.466115282336823" xlink:href="#id28">April</textPath></text><line stroke="#e1ed5e" stroke-width="0.3" x1="174.80103733775053" x2="179.2010983576182" y1="140.37084112569926" y2="142.7455964860345" /><path d="M 175.68104954172406 140.8457921977663 a86.0,86.0 0 0,1 -30.038265399797805,32.042727171017184" fill="none" id="id29" stroke="none" /><text fill="#e1ed5e" style="font-size:6.75px; font-family:Arial;" text-anchor="middle"><textPath startOffset="22.206326154141568" xlink:href="#id29">May</textPath></text><line stroke="#e1ed5e" stroke-width="0.3" x1="143.8653032363475" x2="146.44561519142675" y1="172.8068346515853" y2="177.08958963109032" /><path d="M 144.38136562736335 173.6633856474863 a86.0,86.0 0 0,1 -40.68145358897372,12.25698825130547" fill="none" id="id30" stroke="none" /><text fill="#e1ed5e" style="font-size:6.75px; font-family:Arial;" text-anchor="middle"><textPath startOffset="21.466115282336833" xlink:href="#id30">June</textPath></text><line stroke="#e1ed5e" stroke-width="0.3" x1="102.19456741930631" x2="102.32365962044197" y1="184.97166512339345" y2="189.96999836594603" /><path d="M 102.22038585953345 185.97133177190398 a86.0,86.0 0 0,1 -42.740103519485714,-10.115201625700543" fill="none" id="id31" stroke="none" /><text fill="#e1ed5e" style="font-size:6.75px; font-family:Arial;" text-anchor="middle"><textPath startOffset="22.20632615414155" xlink:href="#id31">July</textPath></text><line stroke="#e1ed5e" stroke-width="0.3" x1="58.666819895761336" x2="56.23545636021788" y1="174.27360380694188" y2="178.64263932499728" /><path d="M 58.180547188652646 175.14741091055294 a86.0,86.0 0 0,1 -31.652253787137756,-30.449443065178592" fill="none" id="id32" stroke="none" /><text fill="#e1ed5e" style="font-size:6.75px; font-family:Arial;" text-anchor="middle"><textPath startOffset="22.20632615414155" xlink:href="#id32">August</textPath></text><line stroke="#e1ed5e" stroke-width="0.3" x1="26.63291911575756" x2="22.317208475507996" y1="142.92168965132927" y2="145.44649492493687" /><path d="M 25.769776987707644 143.4266507060508 a86.0,86.0 0 0,1 -11.730757126820373,-40.83630448921669" fill="none" id="id33" stroke="none" /><text fill="#e1ed5e" style="font-size:6.75px; font-family:Arial;" text-anchor="middle"><textPath startOffset="21.46611528233685" xlink:href="#id33">September</textPath></text><line stroke="#e1ed5e" stroke-width="0.3" x1="15.007084014347285" x2="10.007500721073583" y1="101.09737516637583" y2="101.16192664675087" /><path d="M 14.007167355692545 101.11028546245083 a86.0,86.0 0 0,1 10.666146001902534,-42.60595125391555" fill="none" id="id34" stroke="none" /><text fill="#e1ed5e" style="font-size:6.75px; font-family:Arial;" text-anchor="middle"><textPath startOffset="22.20632615414155" xlink:href="#id34">October</textPath></text><line stroke="#e1ed5e" stroke-width="0.3" x1="26.266209847984243" x2="21.928928074336255" y1="57.711370442889674" y2="55.22380399835377" /><path d="M 25.398753493254645 57.213857153982495 a86.0,86.0 0 0,1 29.58750427330803,-30.492523968695096" fill="none" id="id35" stroke="none" /><text fill="#e1ed5e" style="font-size:6.75px; font-family:Arial;" text-anchor="middle"><textPath startOffset="21.46611528233685" xlink:href="#id35">November</textPath></text><line stroke="#e1ed5e" stroke-width="0.3" x1="56.762969772571076" x2="54.21961505331055" y1="26.818313649435495" y2="22.513508569990535" /><path d="M 56.25429882871897 25.957352633546506 a86.0,86.0 0 0,1 42.265352541879196,-11.944610805530505" fill="none" id="id36" stroke="none" /><text fill="#e1ed5e" style="font-size:6.75px; font-family:Arial;" text-anchor="middle"><textPath startOffset="22.20632615414155" xlink:href="#id36">December</textPath></text></svg>