<?xml version="1.0" encoding="utf-8" ?>
<svg baseProfile="full" height="200mm" version="1.1" viewBox="0,0,200,200" width="200mm" xmlns="http://www.w3.org/2000/svg" xmlns:ev="http://www.w3.org/2001/xml-events" xmlns:xlink="http://www.w3.org/1999/xlink"><defs /><rect fill="#1a1a1a" height="200" width="200" x="0" y="0" /><text alignment-baseline="middle" fill="#e1ed5e" style="dominant-baseline: central; font-size:9.0px; font-family:Arial;" text-anchor="middle" x="100.0" y="100.0">2021</text><line stroke="#e1ed5e" stroke-width="0.3" x1="100.0" x2="100.0" y1="15.0" y2="10.0" /><path d="M 100.0 14.0 a86.0,86.0 0 0,1 42.46469731375804,11.215312516191453" fill="none" id="id37" stroke="none" /><text fill="#e1ed5e" style="font-size:6.75px; font-family:Arial;" text-anchor="middle"><textPath startOffset="22.20632615414155" xlink:href="#id37">January</textPath></text><line stroke="#e1ed5e" stroke-width="0.3" x1="143.23703022742887" x2="145.7803849466894" y1="26.81831364943548" y2="22.513508569990506" /><path d="M 143.74570117128098 25.957352633546492 a86.0,86.0 0 0,1 28.547481713284135,27.462654790039103" fill="none" id="id38" stroke="none" /><text fill="#e1ed5e" style="font-size:6.75px; font-family:Arial;" text-anchor="middle"><textPath startOffset="19.985693538727396" xlink:href="#id38">February</textPath></text><line stroke="#e1ed5e" stroke-width="0.3" x1="172.23445277983987" x2="176.4835382374775" y1="55.19839476539836" y2="52.563006222186495" /><path d="M 173.08426987136738 54.67131705675599 a86.0,86.0 0 0,1 12.851231095245387,41.99856678651699" fill="none" id="id39" stroke="none" /><text fill="#e1ed5e" style="font-size:6.75px; font-family:Arial;" text-anchor="middle"><textPath startOffset="22.20632615414155" xlink:href="#id39">March</textPath></text><line stroke="#e1ed5e" stroke-width="0.3" x1="184.98032266829074" x2="189.97916517819016" y1="98.17113171792111" y2="98.06355123074" /><path d="M 185.9800911702706 98.14961562048488 a86.0,86.0 0 0,1 -9.607161424134198,41.387399972396054" fill="none" id="id40" stroke="none" /><text fill="#e1ed5e" style="font-size:6.75px; font-family:Arial;" text-anchor="middle"><textPath startOffset="21.466115282336823" xlink:href="#id40">April</textPath></text><line stroke="#e1ed5e" stroke-width="0.3" x1="174.80103733775053" x2="179.2010983576182" y1="140.37084112569926" y2="142.7455964860345" /><path d="M 175.68104954172406 140.8457921977663 a86.0,86.0 0 0,1 -30.038265399797805,32.042727171017184" fill="none" id="id41" stroke="none" /><text fill="#e1ed5e" style="font-size:6.75px; font-family:Arial;" text-anchor="middle"><textPath startOffset="22.206326154141568" xlink:href="#id41">May</textPath></text><line stroke="#e1ed5e" stroke-width="0.3" x1="143.8653032363475" x2="146.44561519142675" y1="172.8068346515853" y2="177.08958963109032" /><path d="M 144.38136562736335 173.6633856474863 a86.0,86.0 0 0,1 -40.68145358897372,12.25698825130547" fill="none" id="id42" stroke="none" /><text fill="#e1ed5e" style="font-size:6.75px; font-family:Arial;" text-anchor="middle"><textPath startOffset="21.466115282336833" xlink:href="#id42">June</textPath></text><path d="M 101.62511606390274 120.93702456842531 l 0.35475003449836656 4.57038752672534 a25.58413456733364,25.58413456733364 0 0,0 -0.43936150753445424,0.03030094194322486 l -0.276025766184982 -4.575816813184851" fill="#ff0000" stroke="none" /><path d="M 101.26447882468166 120.96189622390904 l 0.33052066585943124 5.479205948226888 a26.489165850440763,26.489165850440763 0 0,0 -0.4553764252277768,0.023537759689395584 l -0.23615617221817484 -5.484083514678485" fill="#ff0e01" stroke="none" /><path d="M 100.90346689309514 120.98055641714683 l 0.26723671918314845 6.20584451561617 a27.211595738301316,27.211595738301316 0 0,0 -0.46814265422404905,0.01612377956758717 l -0.1603737132844471 -6.209525093609852" fill="#ff1902" stroke="none" /><line stroke="#e1ed5e" stroke-width="0.3" x1="102.19456741930631" x2="102.32365962044197" y1="184.97166512339345" y2="189.96999836594603" /><path d="M 102.22038585953345 185.97133177190398 a86.0,86.0 0 0,1 -42.740103519485714,-10.115201625700543" fill="none" id="id43" stroke="none" /><text fill="#e1ed5e" style="font-size:6.75px; font-family:Arial;" text-anchor="middle"><textPath startOffset="22.20632615414155" xlink:href="#id43">July</textPath></text><path d="M 100.54218724476979 120.99299961872073 l 0.1635167020901568 6.331218776809504 a27.333330001799027,27.333330001799027 0 0,0 -0.47044606057696586,0.008099155570115304 l -0.05451095162052301 -6.333095409658778" fill="#ff1b02" stroke="none" /><path d="M 100.18074693466247 120.99922214144158 l 0.05324821242639724 6.18639006777472 a27.186619225618166,27.186619225618166 0 0,0 -0.4679902941777011,0.0 l 0.05324821242639298 -6.18639006777472" fill="#ff1902" stroke="none" /><path d="M 99.81925306533755 120.99922214144158 l -0.053092853956157204 6.168340483508585 a27.168568972754713,27.168568972754713 0 0,0 -0.4676102854611859,-0.008050335129794481 l 0.159262829310011 -6.166512671099631" fill="#ff1802" stroke="none" /><path d="M 98.73552117531835 120.96189622390904 l -0.3670443810865045 6.084677794300979 a27.09573830131729,27.09573830131729 0 0,0 -0.46532058360207956,-0.032091231814631443 l 0.4717277254675141 -6.0774582179700625" fill="#ff1702" stroke="none" /><path d="M 98.37488393609728 120.93702456842531 l -0.4801900105265153 6.1864812435377505 a27.205089251804026,27.205089251804026 0 0,0 -0.46657464192313003,-0.04025802334883369 l 0.586608970191187 -6.177298967910253" fill="#ff1902" stroke="none" /><path d="M 96.58105272829116 120.7198165907248 l -0.9823143224640112 5.953110995398143 a27.033611849601215,27.033611849601215 0 0,0 -0.4584785078600405,-0.07971236540184183 l 1.0846418017961017 -5.935320051475295" fill="#ff1602" stroke="none" /><path d="M 96.22490169976321 120.6578951692458 l -1.0806800879063534 5.913640968252526 a27.011573750174904,27.011573750174904 0 0,0 -0.4566658791760562,-0.0875211026180417 l 1.1823135816541046 -5.894162667286016" fill="#ff1602" stroke="none" /><path d="M 95.86986931433489 120.58985236759428 l -1.180125793796146 5.883255935166538 a27.00044975713115,27.00044975713115 0 0,0 -0.45490426996761146,-0.09532961272308517 l 1.2812215251931443 -5.862070341716912" fill="#ff1602" stroke="none" /><path d="M 94.81253420990036 120.34920634021253 l -1.5268323110784612 5.98940349724068 a27.180952285765688,27.180952285765688 0 0,0 -0.45238107606476213,-0.11947795381632186 l 1.6297038299547126 -5.962234194120777" fill="#ff1902" stroke="none" /><path d="M 94.11515582081647 120.15858648285463 l -1.7454438189522727 5.979033446590784 a27.228596557858758,27.228596557858758 0 0,0 -0.44878565140690935,-0.1352154353240672 l 1.848104444799428 -5.9481026421609915" fill="#ff1902" stroke="none" /><path d="M 92.7421414339146 119.70592522655815 l -2.0823889685231327 5.653926834297526 a27.025216383153097,27.025216383153097 0 0,0 -0.4351443071210067,-0.16453434313490514 l 2.1794034964044227 -5.617244241055989" fill="#ff1602" stroke="none" /><path d="M 91.40352486487194 119.15986991738527 l -2.52892087400163 5.6364724163783375 a27.177803985847643,27.177803985847643 0 0,0 -0.4251799244814639,-0.19517924957104543 l 2.6255687942505137 -5.592106096473217" fill="#ff1902" stroke="none" /><path d="M 91.07499286063937 119.00905698771935 l -2.530568768230373 5.389768901639215 a26.954274691666498,26.954274691666498 0 0,0 -0.41828841263122823,-0.2008038574079667 l 2.622969848861843 -5.3454107677316856" fill="#ff1502" stroke="none" /><path d="M 90.42595943632237 118.69057910512821 l -2.7433959957686618 5.355696953085593 a27.01745057668859,27.01745057668859 0 0,0 -0.4120921528692444,-0.21558713770324303 l 2.8351790511644017 -5.3076803964376325" fill="#ff1602" stroke="none" /><line stroke="#e1ed5e" stroke-width="0.3" x1="58.666819895761336" x2="56.23545636021788" y1="174.27360380694188" y2="178.64263932499728" /><path d="M 58.180547188652646 175.14741091055294 a86.0,86.0 0 0,1 -31.652253787137756,-30.449443065178592" fill="none" id="id44" stroke="none" /><text fill="#e1ed5e" style="font-size:6.75px; font-family:Arial;" text-anchor="middle"><textPath startOffset="22.20632615414155" xlink:href="#id44">August</textPath></text><path d="M 86.79598089348748 116.32954008644616 l -6.3308134065366595 7.829379105552956 a31.06868291122794,31.06868291122794 0 0,0 -0.4129617841569942,-0.33983943406607403 l 6.464645319238342 -7.719244552629701" fill="#ff5307" stroke="none" /><path d="M 86.24171649860922 115.8653595955263 l -6.687729806805731 7.711953184564549 a31.207837767605493,31.207837767605493 0 0,0 -0.40281538457905114,-0.35543774234933284 l 6.81948754429137 -7.595692300442927" fill="#ff5507" stroke="none" /><path d="M 85.44109423537348 115.13401014063109 l -7.049109789329431 7.327562988513526 a31.167749415315726,31.167749415315726 0 0,0 -0.3834375974183871,-0.37527439199036766 l 7.174197339123612 -7.205138493600588" fill="#ff5407" stroke="none" /><path d="M 84.9287848128048 114.62390073753433 l -7.149842086027616 6.937634401501232 a30.962480260659245,30.962480260659245 0 0,0 -0.3678540941948967,-0.3856935471020607 l 7.26820273160147 -6.813533737816671" fill="#ff5107" stroke="none" /><path d="M 84.19399662182784 113.82643327865904 l -7.640921616281522 6.683959909870472 a31.151798029064306,31.151798029064306 0 0,0 -0.34957878789939306,-0.40663910676482046 l 7.754842913751694 -6.551443703944121" fill="#ff5407" stroke="none" /><path d="M 83.95833913139862 113.55231037782056 l -7.77135690689006 6.565395049906457 a31.17341635516821,31.17341635516821 0 0,0 -0.342765073018695,-0.41288261126170495 l 7.883217979802291 -6.430651181530991" fill="#ff5407" stroke="none" /><path d="M 83.50135304334701 112.99209946851258 l -7.914581705663678 6.232452457574895 a31.07393007775801,31.07393007775801 0 0,0 -0.32730197597345184,-0.4230819246960524 l 8.020690498855197 -6.095292538765589" fill="#ff5307" stroke="none" /><path d="M 83.06392112726016 112.41649034213515 l -11.274356541444716 8.265664098669253 a34.979710956083714,34.979710956083714 0 0,0 -0.3518296100373924,-0.48866055645464757 l 11.414965943857716 -8.070369936763468" fill="#ff8b0c" stroke="none" /><path d="M 82.05923443525364 110.91462005526583 l -9.81475747048551 5.971002092320452 a32.488356287604695,32.488356287604695 0 0,0 -0.2865459476949516,-0.480267490428857 l 9.916084293878694 -5.801172508005484" fill="#ff6809" stroke="none" /><line stroke="#e1ed5e" stroke-width="0.3" x1="26.63291911575756" x2="22.317208475507996" y1="142.92168965132927" y2="145.44649492493687" /><path d="M 25.769776987707644 143.4266507060508 a86.0,86.0 0 0,1 -11.730757126820373,-40.83630448921669" fill="none" id="id45" stroke="none" /><text fill="#e1ed5e" style="font-size:6.75px; font-family:Arial;" text-anchor="middle"><textPath startOffset="21.46611528233685" xlink:href="#id45">September</textPath></text><path d="M 81.69416730710424 110.29060199501025 l -9.92628627461537 5.5800499793839915 a32.38719091690487,32.38719091690487 0 0,0 -0.2690042917859894,-0.4883209271700162 l 10.020866975852876 -5.408358533816153" fill="#ff6609" stroke="none" /><path d="M 80.73074385275274 108.34839909993369 l -8.055979617400133 3.4902506081738482 a29.779559038119416,29.779559038119416 0 0,0 -0.19973436528785227,-0.47211303896278733 l 8.114864963880292 -3.3510630435449023" fill="#ff4006" stroke="none" /><path d="M 80.0844068197444 106.66101706037122 l -11.608505349836157 3.8826085409963604 a33.24059008135607,33.24059008135607 0 0,0 -0.1768205472799941,-0.5441976873979587 l 11.6736181481324 -3.682211953620598" fill="#ff730a" stroke="none" /><path d="M 79.86692584326677 105.97154293290107 l -13.689339436271592 4.060307806466438 a35.27879944829792,35.27879944829792 0 0,0 -0.16767066413136103,-0.5836835781658902 l 13.757202737289056 -3.8240667527959524" fill="#ff900d" stroke="none" /><path d="M 79.67330655649465 105.27499134158121 l -5.88912176964772 1.5282892139220436 a27.084194534951127,27.084194534951127 0 0,0 -0.11322313531430085,-0.4522701436072697 l 5.91455621925708 -1.4266912309173823" fill="#ff1702" stroke="none" /><path d="M 79.58551787078972 104.9243191809786 l -18.2017264303748 4.390564993062947 a39.723779159254,39.723779159254 0 0,0 -0.15461901083700139,-0.6660946519303256 l 18.274606007142356 -4.076601683784047" fill="#ffcd13" stroke="none" /><line stroke="#e1ed5e" stroke-width="0.3" x1="15.007084014347285" x2="10.007500721073583" y1="101.09737516637583" y2="101.16192664675087" /><path d="M 14.007167355692545 101.11028546245083 a86.0,86.0 0 0,1 10.666146001902534,-42.60595125391555" fill="none" id="id46" stroke="none" /><text fill="#e1ed5e" style="font-size:6.75px; font-family:Arial;" text-anchor="middle"><textPath startOffset="22.20632615414155" xlink:href="#id46">October</textPath></text><path d="M 79.00175016825051 100.2711162175752 l -21.70970631454509 0.28030209697612724 a42.711515781478,42.711515781478 0 0,0 -0.0031641152795561975,-0.7352289584075445 l 21.71131472711415 0.09343633963509267" fill="#fff417" stroke="none" /><path d="M 79.01574976396665 99.18683210126434 l -24.479597892636107 -0.9486173180525068 a45.49797109560837,45.49797109560837 0 0,0 0.03706219610202021,-0.7823243825624545 l 24.459642088300587 1.3698528072379703" fill="#e6ff1a" stroke="none" /><path d="M 79.05617556472873 98.46500227214037 l -20.26435480770125 -1.4851985931460545 a41.31870789773522,41.31870789773522 0 0,0 0.058093151361526436,-0.708883591167193 l 20.235787172520226 1.833796101521026" fill="#ffe215" stroke="none" /><path d="M 79.12142395522702 97.74499172005258 l -20.475837006189703 -2.2115101091566656 a41.5949187438783,41.5949187438783 0 0,0 0.08301087435239726,-0.7111864775646705 l 20.43473577883372 2.563640325046198" fill="#ffe615" stroke="none" /><path d="M 79.32604984820605 96.31383870115002 l -20.344585243424866 -3.627435599623897 a41.6654406620425,41.6654406620425 0 0,0 0.13196888683868443,-0.7049830704479066 l 20.27913063267632 3.977096747534376" fill="#ffe715" stroke="none" /><path d="M 79.71946130924805 94.55025226153421 l -27.46732562400101 -7.38096743797848 a49.441741459611805,49.441741459611805 0 0,0 0.2279340314060986,-0.8199999852221821 l 27.33620482202855 7.8526787266196045" fill="#b6ff1f" stroke="none" /><path d="M 80.02781315780177 93.51064311812611 l -21.747554441439743 -7.06620878292119 a43.86673196473904,43.86673196473904 0 0,0 0.23951800954596542,-0.7161283621147462 l 21.622699138122005 7.439510247958258" fill="#fbff18" stroke="none" /><line stroke="#e1ed5e" stroke-width="0.3" x1="26.266209847984243" x2="21.928928074336255" y1="57.711370442889674" y2="55.22380399835377" /><path d="M 25.398753493254645 57.213857153982495 a86.0,86.0 0 0,1 29.58750427330803,-30.492523968695096" fill="none" id="id47" stroke="none" /><text fill="#e1ed5e" style="font-size:6.75px; font-family:Arial;" text-anchor="middle"><textPath startOffset="21.46611528233685" xlink:href="#id47">November</textPath></text><path d="M 82.54541684631803 88.32363383020206 l -17.232506231673483 -11.527806250812665 a41.73281428028865,41.73281428028865 0 0,0 0.4045609507741421,-0.5936432750617355 l 17.0315208152306 11.822727549144815" fill="#ffe715" stroke="none" /><path d="M 83.39014120810768 87.1503855733568 l -8.032176702449858 -6.213801991111848 a31.15515621564355,31.15515621564355 0 0,0 0.3317963598136219,-0.4213476825154167 l 7.924026262042266 6.351142067580312" fill="#ff5407" stroke="none" /><path d="M 86.10567301691215 84.25364557470407 l -15.302034747170852 -17.341700886299243 a44.127621084614304,44.127621084614304 0 0,0 0.5738822366273123,-0.4976650204737367 l 15.001258711896766 17.60253090019266" fill="#f7ff18" stroke="none" /><path d="M 86.65592168130627 83.78471172551755 l -17.025723050414 -20.689102742840408 a47.79392128250744,47.79392128250744 0 0,0 0.6397480400851729,-0.5172984235881841 l 16.667071611764328 20.97910726369273" fill="#caff1d" stroke="none" /><line stroke="#e1ed5e" stroke-width="0.3" x1="56.762969772571076" x2="54.21961505331055" y1="26.818313649435495" y2="22.513508569990535" /><path d="M 56.25429882871897 25.957352633546506 a86.0,86.0 0 0,1 42.265352541879196,-11.944610805530505" fill="none" id="id48" stroke="none" /><text fill="#e1ed5e" style="font-size:6.75px; font-family:Arial;" text-anchor="middle"><textPath startOffset="22.20632615414155" xlink:href="#id48">December</textPath></text><path d="M 91.23893434514133 80.91482961587045 l -8.561596292696564 -18.650644846569367 a41.521878185779684,41.521878185779684 0 0,0 0.6521265666911671,-0.29259018144117266 l 8.239287607538621 18.79525535852707" fill="#ffe515" stroke="none" /><path d="M 91.56875222667455 80.76684994638697 l -7.427375317215489 -16.94314149234919 a39.49962020508926,39.49962020508926 0 0,0 0.6250650169173941,-0.26762021943194136 l 7.134626542507787 17.06848123974392" fill="#ffca12" stroke="none" /><path d="M 91.90106846888425 80.62456947434976 l -7.027211725091284 -16.81150804219521 a39.22110060567294,39.22110060567294 0 0,0 0.6251397631055082,-0.2550102056953979 l 6.736788092397395 16.929979134074188" fill="#ffc612" stroke="none" /><path d="M 92.57280143429618 80.3572730644239 l -13.670917942839296 -36.15550408869585 a59.65377696044136,59.65377696044136 0 0,0 0.9636007371144191,-0.3549022836403828 l 13.046534879952306 36.38546964014255" fill="#43ff2d" stroke="none" /><path d="M 93.25333710446033 80.11325718540243 l -6.650102825313462 -19.602118354700885 a41.699442301157376,41.699442301157376 0 0,0 0.6817207068999449,-0.2247525987873793 l 6.311699296171108 19.713684677747498" fill="#ffe715" stroke="none" /><path d="M 93.59665428221793 80.00007090966166 l -7.1161014422802396 -22.226119050550814 a44.33750774581726,44.33750774581726 0 0,0 0.7288550576860707,-0.22645881430768344 l 6.73246101188344 22.34531799974102" fill="#f5ff19" stroke="none" /><path d="M 93.94186890950719 79.89281104454417 l -9.101062268494749 -30.206804044761466 a52.54806404541547,52.54806404541547 0 0,0 0.8683186792121589,-0.25348603332799174 l 8.57975337155917 30.358988407008155" fill="#91ff24" stroke="none" /><path d="M 94.28887869178378 79.79150937346287 l -3.2444493489416764 -11.48030670650219 a32.929957822775705,32.929957822775705 0 0,0 0.5467974190750323,-0.14946039002537753 l 3.0463540406429215 11.534453637353865" fill="#ff6e0a" stroke="none" /><path d="M 95.33964822691252 79.52364482259891 l -13.98105531926245 -61.42906553220327 a84.0,84.0 0 0,0 1.4126291033859162,-0.30874600761652715 l 12.921583491723013 61.66062503791566" fill="#4dd2ff" stroke="none" /><path d="M 96.40284397218896 79.31037775812273 l -4.447100714215182 -25.578215995452545 a46.961930557498945,46.961930557498945 0 0,0 0.797616621580651,-0.13161357680373995 l 4.006154886495644 25.65097583519591" fill="#d4ff1c" stroke="none" /><path d="M 97.11714578562143 79.19881850522333 l -3.390222034365697 -24.462084656484574 a45.69589421712275,45.69589421712275 0 0,0 0.78006214497626,-0.10127445435138674 l 2.968645160881579 24.5168174340001" fill="#e4ff1b" stroke="none" /><path d="M 97.47563105711357 79.15227682838746 l -4.0316634976860435 -33.295847961410814 a54.53904891358666,54.53904891358666 0 0,0 0.9329639204129748,-0.10482936704844366 l 3.45793287376335 33.360313281929855" fill="#7aff26" stroke="none" /><path d="M 97.83486435360386 79.11191278185805 l -0.9953815885714701 -9.602916783537822 a30.654366642013315,30.654366642013315 0 0,0 0.5253207761630401,-0.049885537534419926 l 0.8299356853181937 9.618627865587422" fill="#ff4d07" stroke="none" /><path d="M 98.19473922651362 79.07773832637324 l -2.313979340544654 -26.818109594628485 a47.917754412617185,47.917754412617185 0 0,0 0.8223823235254064,-0.06383269601002975 l 1.8520068276569135 26.853967552826976" fill="#c8ff1d" stroke="none" /><path d="M 98.91598698831166 79.02799685794201 l -0.7016062787186259 -13.57371998594151 a34.591840406180665,34.591840406180665 0 0,0 0.5949123946294074,-0.025618179144210093 l 0.46785305169989444 13.583785891609912" fill="#ff860c" stroke="none" /><path d="M 99.27714615592234 79.0124445844662 l -0.27738271822733473 -8.05361307517945 a29.058388470226078,29.058388470226078 0 0,0 0.5000441722523776,-0.012914665695270475 l 0.1387119107800781 8.05719453301708" fill="#ff3505" stroke="none" /><path d="M 99.63851952072746 79.00311137660856 l -0.3042745513855858 -17.674035619385805 a38.676654606512486,38.676654606512486 0 0,0 0.6657550306581171,-0.005730363735238742 l 4.329531696699766e-15 17.676654606512486" fill="#ffbf11" stroke="none" /></svg>