<?xml version="1.0" encoding="utf-8" ?>
<svg baseProfile="full" height="200mm" version="1.1" viewBox="0,0,200,200" width="200mm" xmlns="http://www.w3.org/2000/svg" xmlns:ev="http://www.w3.org/2001/xml-events" xmlns:xlink="http://www.w3.org/1999/xlink"><defs /><rect fill="#1a1a1a" height="200" width="200" x="0" y="0" /><text alignment-baseline="middle" fill="#e1ed5e" style="dominant-baseline: central; font-size:9.0px; font-family:Arial;" text-anchor="middle" x="100.0" y="100.0">2023</text><line stroke="#e1ed5e" stroke-width="0.3" x1="100.0" x2="100.0" y1="15.0" y2="10.0" /><path d="M 100.0 14.0 a86.0,86.0 0 0,1 42.46469731375804,11.215312516191453" fill="none" id="id25" stroke="none" /><text fill="#e1ed5e" style="font-size:6.75px; font-family:Arial;" text-anchor="middle"><textPath startOffset="22.20632615414155" xlink:href="#id25">January</textPath></text><path d="M 100.0 79.0 l 0.0 -9.988938163100535 a30.988938163100535,30.988938163100535 0 0,0 0.5334236294925869,0.004591345586892774 l -0.1719431502200586 9.987458194122201" fill="#ff5307" stroke="none" /><path d="M 101.08401301168833 79.027996857942 l 0.47955204092993886 -9.277717887813138 a30.290103302214025,30.290103302214025 0 0,0 0.5204675626670198,0.031396024715335924 l -0.6391816524365704 9.268088593717497" fill="#ff4906" stroke="none" /><line stroke="#e1ed5e" stroke-width="0.3" x1="143.23703022742887" x2="145.7803849466894" y1="26.81831364943548" y2="22.513508569990506" /><path d="M 143.74570117128098 25.957352633546492 a86.0,86.0 0 0,1 28.547481713284135,27.462654790039103" fill="none" id="id26" stroke="none" /><text fill="#e1ed5e" style="font-size:6.75px; font-family:Arial;" text-anchor="middle"><textPath startOffset="19.985693538727396" xlink:href="#id26">February</textPath></text><path d="M 110.68208982089419 81.91981866633111 l 3.1193959321937013 -5.279794970011779 a27.13244371414433,27.13244371414433 0 0,0 0.40005875286256665,0.24103092231175835 l -3.2098167512739053 5.225317438241407" fill="#ff1902" stroke="none" /><path d="M 111.60114157652 82.49532879139004 l 9.07939790543073 -13.699675506794534 a37.435223616264125,37.435223616264125 0 0,0 0.5340674885368615,0.36060475228598726 l -9.313870088374133 13.541358842209878" fill="#ffaf10" stroke="none" /><path d="M 111.90073688211348 82.69761687909136 l 4.2773032480054 -6.218735886222973 a28.54771482622356,28.54771482622356 0 0,0 0.40248044743290107,0.28196327425768986 l -4.383714835021952 6.144187769201347" fill="#ff2f04" stroke="none" /><path d="M 112.48926042617603 83.11751280151076 l 5.44957844253499 -7.366524129838272 a30.16316446195481,30.16316446195481 0 0,0 0.4147490358670432,0.3123803751658074 l -5.575573632160417 7.271627165166617" fill="#ff4706" stroke="none" /><path d="M 114.16331599549186 84.49514656593476 l 5.046041607625947 -5.523998445938664 a28.48178419473758,28.48178419473758 0 0,0 0.3591310433439547,0.33377316527317646 l -5.140380534764748 5.436320694590847" fill="#ff2e04" stroke="none" /><path d="M 114.42810811169701 84.74124197986012 l 5.3251587576640045 -5.631736903617271 a28.75072747204353,28.75072747204353 0 0,0 0.3566688697523866,0.34311517011342074 l -5.421310871028809 5.5392386467415475" fill="#ff3204" stroke="none" /><path d="M 114.68862486808459 84.99185889309783 l 7.306734722578269 -7.465675427890224 a31.446275982412814,31.446275982412814 0 0,0 0.38359095832153917,0.3819436968417013 l -7.434161481067131 7.338795880398404" fill="#ff5a08" stroke="none" /><path d="M 115.19652480421416 85.50635884689758 l 13.549511706372062 -12.922807220862644 a39.724001013370334,39.724001013370334 0 0,0 0.46767005488493296,0.4988778071996619 l -13.769949083227457 12.687659996784928" fill="#ffce13" stroke="none" /><path d="M 115.68641384162765 86.03803664274999 l 9.162642783541788 -8.15536833918616 a33.26637907153494,33.26637907153494 0 0,0 0.3770318518251859,0.43101258318192776 l -9.301666498944822 7.996440199801284" fill="#ff740a" stroke="none" /><path d="M 116.15771136456269 86.58626213691792 l 9.023502193302846 -7.491091423589518 a32.7277466952999,32.7277466952999 0 0,0 0.35611140337225494,0.43655047344807923 l -9.151112088751509 7.334656780533338" fill="#ff6c0a" stroke="none" /><path d="M 117.2510076193507 88.02491185347247 l 17.17842605715134 -11.924704387831893 a41.91164499837814,41.91164499837814 0 0,0 0.4062945488212946,0.5961871162811666 l -17.38114507164137 11.62723924828032" fill="#ffeb16" stroke="none" /><line stroke="#e1ed5e" stroke-width="0.3" x1="172.23445277983987" x2="176.4835382374775" y1="55.19839476539836" y2="52.563006222186495" /><path d="M 173.08426987136738 54.67131705675599 a86.0,86.0 0 0,1 12.851231095245387,41.99856678651699" fill="none" id="id27" stroke="none" /><text fill="#e1ed5e" style="font-size:6.75px; font-family:Arial;" text-anchor="middle"><textPath startOffset="22.20632615414155" xlink:href="#id27">March</textPath></text><path d="M 117.84615892207809 88.93136811851018 l 8.238414651995678 -5.109669787665091 a30.69433862195841,30.69433862195841 0 0,0 0.27461815757709435,0.45140004507406184 l -8.325148607858996 4.967101969383947" fill="#ff4f07" stroke="none" /><path d="M 118.03404312379186 89.2402003453031 l 3.849057028957042 -2.296494591190301 a25.482089626449913,25.482089626449913 0 0,0 0.2215004255042125,0.3786160276045529 l -3.8880171289315815 2.229899151231853" fill="#ff0000" stroke="none" /><path d="M 118.21658344932153 89.55222093294921 l 12.288116436476491 -7.047618233993457 a35.16568841703504,35.16568841703504 0 0,0 0.29663490436995027,0.527680395462036 l -12.407608982138873 6.835054328596628" fill="#ff8f0d" stroke="none" /><path d="M 118.3937258080291 89.86733742301442 l 16.02810086357189 -8.829496508509026 a39.29918101682715,39.29918101682715 0 0,0 0.3213024327588894,0.5953246105196551 l -16.177711395549245 8.552290914656911" fill="#ffc812" stroke="none" /><path d="M 118.56541770881063 90.18545643968196 l 6.584335659040528 -3.4807861667847506 a28.44777472872218,28.44777472872218 0 0,0 0.2251310384523646,0.43488150851964946 l -6.6432761306530095 3.366931936004756" fill="#ff2d04" stroke="none" /><path d="M 118.89224826269711 90.83032412892265 l 20.959175708986606 -10.17289446464893 a44.29752837081777,44.29752837081777 0 0,0 0.3270461336646493,0.6888425646604229 l -21.13118003649301 9.810609484347967" fill="#f4ff19" stroke="none" /><path d="M 119.04729006885535 91.15688171328212 l 13.532927928254269 -6.28295584319687 a35.92031073533276,35.92031073533276 0 0,0 0.2555433903721585,0.5630559871250346 l -13.639073635589774 6.049077847229773" fill="#ff9a0e" stroke="none" /><path d="M 119.196687751892 91.48605970444005 l 6.84067188681211 -3.0339125571333794 a28.483275837983868,28.483275837983868 0 0,0 0.19491958819198973,0.449901283830238 l -6.891882184846781 2.9157121287165384" fill="#ff2e04" stroke="none" /><path d="M 119.34039704204932 91.81776055985345 l 12.444485159438592 -5.264822488519476 a34.512348675160354,34.512348675160354 0 0,0 0.2267597929425717,0.5491168250358728 l -12.533266639267362 5.0498310930303" fill="#ff860c" stroke="none" /><path d="M 119.47837535516314 92.15188598940014 l 6.316510704064732 -2.545011852928182 a27.8099480766089,27.8099480766089 0 0,0 0.17507878634203314,0.4455564144843634 l -6.359383040288465 2.435906433548034" fill="#ff2403" stroke="none" /><path d="M 119.61058180528143 92.48833698450437 l 13.946792559816062 -5.342197742860723 a35.9349288391464,35.9349288391464 0 0,0 0.2162861960851773,0.5795394747769641 l -14.036683344402865 5.101335131054426" fill="#ff9a0e" stroke="none" /><path d="M 119.7369772167798 92.82701384747503 l 7.010070285547687 -2.5476615053145544 a28.458663724420095,28.458663724420095 0 0,0 0.16336210648802255,0.4618466736194843 l -7.052885472845518 2.426617205268456" fill="#ff2d04" stroke="none" /><path d="M 119.85752413597 93.16781622104841 l 36.98268928511642 -12.724271571101198 a60.11043842473003,60.11043842473003 0 0,0 0.32821074011166307,0.9813083374823572 l -37.19623731899985 12.085790130696527" fill="#3dff2e" stroke="none" /><path d="M 119.97218684219823 93.5106431181261 l 19.916245255340023 -6.471180358465143 a41.94117953465466,41.94117953465466 0 0,0 0.2171844418422301,0.6885340316405651 l -20.02468518095046 6.127396160398159" fill="#ffeb16" stroke="none" /><path d="M 120.18372546131832 94.20196356495316 l 30.394367150891235 -8.731175446217545 a52.62358264295506,52.62358264295506 0 0,0 0.24260280857296956,0.8727713813399944 l -30.540156730030567 8.206692761458598" fill="#8fff24" stroke="none" /><path d="M 120.37134235888165 94.90015583598534 l 11.47636151632133 -2.8730387164504307 a32.83052091496923,32.83052091496923 0 0,0 0.13252149161621626,0.5493871381826159 l -11.524115808198365 2.675066346608409" fill="#ff6e0a" stroke="none" /><path d="M 120.45610955862082 95.25157060432595 l 14.757354472764012 -3.4255905591453573 a36.149725466612054,36.149725466612054 0 0,0 0.13548506202655974,0.6073529671141119 l -14.81413392179261 3.171059422481281" fill="#ff9d0e" stroke="none" /><path d="M 120.53481517161879 95.60439243477599 l 14.576819559511126 -3.1202607765006483 a35.907035110440795,35.907035110440795 0 0,0 0.12417115101548273,0.6055026308381991 l -14.628370006441607 2.868882489499037" fill="#ff9a0e" stroke="none" /><path d="M 120.67395015179393 96.31383870115 l 22.03533245906225 -3.9288954999652113 a43.382852732193214,43.382852732193214 0 0,0 0.12475284373521213,0.7362983455787973 l -22.099697164317686 3.549011366070576" fill="#fffe18" stroke="none" /><path d="M 120.78858239683441 97.02765380044208 l 14.764046266612207 -2.110959562944725 a35.91419499802298,35.91419499802298 0 0,0 0.08223324695819008,0.6127332060621243 l -14.798195512628233 1.8565080148179365" fill="#ff9a0e" stroke="none" /><path d="M 120.83666639777658 97.38593545837742 l 14.795679441980493 -1.8561923611073612 a35.91165920450429,35.91165920450429 0 0,0 0.07166880763410437,0.6140145764057716 l -14.825438602618185 1.6012340463767367" fill="#ff9a0e" stroke="none" /><path d="M 120.91429891909075 98.10471618934814 l 16.34334262276179 -1.4810571850717165 a37.41031317405109,37.41031317405109 0 0,0 0.05259803842562925,0.6418292947385462 l -16.366415145006915 1.1995139731254014" fill="#ffae10" stroke="none" /><path d="M 120.94382443527127 98.46500227214037 l 13.424134921965084 -0.9838707666492464 a34.46014116154023,34.46014116154023 0 0,0 0.038266196466263454,0.5919611223136437 l -13.439081709435763 0.7526505800825675" fill="#ff850c" stroke="none" /><path d="M 120.96714384426684 98.82574320788733 l 13.561800808348353 -0.7595234158150058 a34.583052565034464,34.583052565034464 0 0,0 0.028171011698050676,0.5946455323955678 l -13.5728654282799 0.5259667767964383" fill="#ff870c" stroke="none" /><path d="M 120.98425023603335 99.18683210126433 l 15.72801484710353 -0.6094817132203704 a36.739819534844074,36.739819534844074 0 0,0 0.019049256225706787,0.6321520750551118 l -15.736175797784883 0.33865949074025953" fill="#ffa50f" stroke="none" /><line stroke="#e1ed5e" stroke-width="0.3" x1="184.98032266829074" x2="189.97916517819016" y1="98.17113171792111" y2="98.06355123074" /><path d="M 185.9800911702706 98.14961562048488 a86.0,86.0 0 0,1 -9.607161424134198,41.387399972396054" fill="none" id="id28" stroke="none" /><text fill="#e1ed5e" style="font-size:6.75px; font-family:Arial;" text-anchor="middle"><textPath startOffset="21.466115282336823" xlink:href="#id28">April</textPath></text><path d="M 120.99513854157772 99.54816195383933 l 5.968919980158644 -0.12845760156253686 a26.97030209327269,26.97030209327269 0 0,0 0.005993819423922143,0.4642279198035277 l -5.970246806700281 0.02569342369854646" fill="#ff1702" stroke="none" /><path d="M 120.99980553446 99.90962569577887 l 62.99941660337998 -0.27112291266339017 a84.0,84.0 0 0,0 -0.006222810841987947,1.4459620871852612 l -62.994749495248485 -0.8133486527255557" fill="#4dd2ff" stroke="none" /><path d="M 120.9764740272857 100.99374915477107 l 14.422930717962862 0.6832785715870776 a35.439106624079855,35.439106624079855 0 0,0 -0.03411207934088506,0.6090940918302415 l -14.409032287734446 -0.9314443797527425" fill="#ff930d" stroke="none" /><path d="M 120.95626037817324 101.35467743843564 l 11.581110847627224 0.7486387978669717 a32.605282784779554,32.605282784779554 0 0,0 -0.041025894137919204,0.5597657302872583 l -11.566508394824968 -0.9478776646510003" fill="#ff6b09" stroke="none" /><path d="M 120.89721153311464 102.0752229133903 l 14.870139324598794 1.4766972044482236 a35.94328204132562,35.94328204132562 0 0,0 -0.06643978501632544,0.6151498937707024 l -14.842517238081417 -1.7324434201037173" fill="#ff9a0e" stroke="none" /><path d="M 120.8583938346157 102.4346265915055 l 29.7937828056972 3.47758012699478 a50.996050696928876,50.996050696928876 0 0,0 -0.10927358646347707,0.8710179993546814 l -29.729507709986876 -3.9899158806368566" fill="#a2ff22" stroke="none" /><path d="M 120.81339534386255 102.79330883721812 l 15.528106819749771 2.0839847265796667 a36.667325673074416,36.667325673074416 0 0,0 -0.08933897689267568,0.6248365963085079 l -15.489933791840494 -2.3509667948685835" fill="#ffa40f" stroke="none" /><line stroke="#e1ed5e" stroke-width="0.3" x1="174.80103733775053" x2="179.2010983576182" y1="140.37084112569926" y2="142.7455964860345" /><path d="M 175.68104954172406 140.8457921977663 a86.0,86.0 0 0,1 -30.038265399797805,32.042727171017184" fill="none" id="id29" stroke="none" /><text fill="#e1ed5e" style="font-size:6.75px; font-family:Arial;" text-anchor="middle"><textPath startOffset="22.206326154141568" xlink:href="#id29">May</textPath></text><line stroke="#e1ed5e" stroke-width="0.3" x1="143.8653032363475" x2="146.44561519142675" y1="172.8068346515853" y2="177.08958963109032" /><path d="M 144.38136562736335 173.6633856474863 a86.0,86.0 0 0,1 -40.68145358897372,12.25698825130547" fill="none" id="id30" stroke="none" /><text fill="#e1ed5e" style="font-size:6.75px; font-family:Arial;" text-anchor="middle"><textPath startOffset="21.466115282336833" xlink:href="#id30">June</textPath></text><line stroke="#e1ed5e" stroke-width="0.3" x1="102.19456741930631" x2="102.32365962044197" y1="184.97166512339345" y2="189.96999836594603" /><path d="M 102.22038585953345 185.97133177190398 a86.0,86.0 0 0,1 -42.740103519485714,-10.115201625700543" fill="none" id="id31" stroke="none" /><text fill="#e1ed5e" style="font-size:6.75px; font-family:Arial;" text-anchor="middle"><textPath startOffset="22.20632615414155" xlink:href="#id31">July</textPath></text><line stroke="#e1ed5e" stroke-width="0.3" x1="58.666819895761336" x2="56.23545636021788" y1="174.27360380694188" y2="178.64263932499728" /><path d="M 58.180547188652646 175.14741091055294 a86.0,86.0 0 0,1 -31.652253787137756,-30.449443065178592" fill="none" id="id32" stroke="none" /><text fill="#e1ed5e" style="font-size:6.75px; font-family:Arial;" text-anchor="middle"><textPath startOffset="22.20632615414155" xlink:href="#id32">August</textPath></text><line stroke="#e1ed5e" stroke-width="0.3" x1="26.63291911575756" x2="22.317208475507996" y1="142.92168965132927" y2="145.44649492493687" /><path d="M 25.769776987707644 143.4266507060508 a86.0,86.0 0 0,1 -11.730757126820373,-40.83630448921669" fill="none" id="id33" stroke="none" /><text fill="#e1ed5e" style="font-size:6.75px; font-family:Arial;" text-anchor="middle"><textPath startOffset="21.46611528233685" xlink:href="#id33">September</textPath></text><line stroke="#e1ed5e" stroke-width="0.3" x1="15.007084014347285" x2="10.007500721073583" y1="101.09737516637583" y2="101.16192664675087" /><path d="M 14.007167355692545 101.11028546245083 a86.0,86.0 0 0,1 10.666146001902534,-42.60595125391555" fill="none" id="id34" stroke="none" /><text fill="#e1ed5e" style="font-size:6.75px; font-family:Arial;" text-anchor="middle"><textPath startOffset="22.20632615414155" xlink:href="#id34">October</textPath></text><line stroke="#e1ed5e" stroke-width="0.3" x1="26.266209847984243" x2="21.928928074336255" y1="57.711370442889674" y2="55.22380399835377" /><path d="M 25.398753493254645 57.213857153982495 a86.0,86.0 0 0,1 29.58750427330803,-30.492523968695096" fill="none" id="id35" stroke="none" /><text fill="#e1ed5e" style="font-size:6.75px; font-family:Arial;" text-anchor="middle"><textPath startOffset="21.46611528233685" xlink:href="#id35">November</textPath></text><line stroke="#e1ed5e" stroke-width="0.3" x1="56.762969772571076" x2="54.21961505331055" y1="26.818313649435495" y2="22.513508569990535" /><path d="M 56.25429882871897 25.957352633546506 a86.0,86.0 0 0,1 42.265352541879196,-11.944610805530505" fill="none" id="id36" stroke="none" /><text fill="#e1ed5e" style="font-size:6.75px; font-family:Arial;" text-anchor="middle"><textPath startOffset="22.20632615414155" xlink:href="#id36">December</textPath></text></svg>