<?xml version="1.0" encoding="utf-8" ?>
<svg baseProfile="full" height="200mm" version="1.1" viewBox="0,0,200,200" width="200mm" xmlns="http://www.w3.org/2000/svg" xmlns:ev="http://www.w3.org/2001/xml-events" xmlns:xlink="http://www.w3.org/1999/xlink"><defs /><rect fill="#1a1a1a" height="200" width="200" x="0" y="0" /><text alignment-baseline="middle" fill="#e1ed5e" style="dominant-baseline: central; font-size:9.0px; font-family:Arial;" text-anchor="middle" x="100.0" y="100.0">2023</text><line stroke="#e1ed5e" stroke-width="0.3" x1="100.0" x2="100.0" y1="15.0" y2="10.0" /><path d="M 100.0 14.0 a86.0,86.0 0 0,1 42.46469731375804,11.215312516191453" fill="none" id="id25" stroke="none" /><text fill="#e1ed5e" style="font-size:6.75px; font-family:Arial;" text-anchor="middle"><textPath startOffset="22.20632615414155" xlink:href="#id25">January</textPath></text><path d="M 100.0 79.0 l 0.0 -27.011582269971257 a48.01158226997126,48.01158226997126 0 0,0 0.8264404652181732,0.007113434000699442 l -0.46495998594564475 27.007580212579118" fill="#fff417" stroke="none" /><path d="M 101.08401301168833 79.027996857942 l 1.296780417978977 -25.088336308857603 a46.1218283211791,46.1218283211791 0 0,0 0.7925002873897823,0.047805781559760355 l -1.7284427542083713 25.06229725791754" fill="#ffd714" stroke="none" /><line stroke="#e1ed5e" stroke-width="0.3" x1="143.23703022742887" x2="145.7803849466894" y1="26.81831364943548" y2="22.513508569990506" /><path d="M 143.74570117128098 25.957352633546492 a86.0,86.0 0 0,1 28.547481713284135,27.462654790039103" fill="none" id="id26" stroke="none" /><text fill="#e1ed5e" style="font-size:6.75px; font-family:Arial;" text-anchor="middle"><textPath startOffset="19.985693538727396" xlink:href="#id26">February</textPath></text><path d="M 110.68208982089419 81.91981866633111 l 8.435312991156795 -14.277354997338993 a37.583044683616436,37.583044683616436 0 0,0 0.5541493476707237,0.3338687815522398 l -8.679824405045157 14.130039606328138" fill="#ff4e07" stroke="none" /><path d="M 111.60114157652 82.49532879139004 l 24.552049425063448 -37.04597085110279 a65.44330193934195,65.44330193934195 0 0,0 0.9336431449315288,0.6304000191509627 l -25.186097264401518 36.61785891965316" fill="#31ff3f" stroke="none" /><path d="M 111.90073688211348 82.69761687909136 l 11.566467495405027 -16.81639161872583 a41.41014937222688,41.41014937222688 0 0,0 0.5838217016336193,0.4090044115813977 l -11.854220336622296 16.6148023643805" fill="#ff8d0d" stroke="none" /><path d="M 112.48926042617603 83.11751280151076 l 14.736474891892286 -19.920182638821306 a45.778566718100734,45.778566718100734 0 0,0 0.6294636769180985,0.4740989913041265 l -15.077184722568767 19.66356705801133" fill="#ffd213" stroke="none" /><path d="M 114.16331599549186 84.49514656593476 l 13.645250956261668 -14.937717707860017 a41.23186308719676,41.23186308719676 0 0,0 0.5198986800923795,0.48318916254083033 l -13.900357520148894 14.700623959244545" fill="#ff8a0c" stroke="none" /><path d="M 114.42810811169701 84.74124197986012 l 14.400025461630385 -15.229058605732007 a41.95912591957077,41.95912591957077 0 0,0 0.5205264469249851,0.5007460295292723 l -14.660035152167788 14.978929489440432" fill="#ff960d" stroke="none" /><path d="M 114.68862486808459 84.99185889309783 l 19.75850314229161 -20.188302573170112 a49.24829211137931,49.24829211137931 0 0,0 0.6007452067541639,0.5981654159201635 l -20.103084149213096 19.84520130659983" fill="#f8ff18" stroke="none" /><path d="M 115.19652480421416 85.50635884689758 l 36.639905483307565 -34.94520285396992 a71.63249822328362,71.63249822328362 0 0,0 0.8433283033184984,0.8996038346146805 l -37.236001108596525 34.309329602477185" fill="#3aff95" stroke="none" /><path d="M 115.68641384162765 86.03803664274999 l 24.77715602167419 -22.053335323428286 a54.170122993591015,54.170122993591015 0 0,0 0.6139490487363501,0.701849894529958 l -25.153096933988387 21.623569872695377" fill="#b2ff20" stroke="none" /><path d="M 116.15771136456269 86.58626213691792 l 24.40089906232938 -20.2570312255649 a52.71358051566392,52.71358051566392 0 0,0 0.5735777445657543,0.7031384942416873 l -24.74597529897154 19.834008561715116" fill="#c6ff1e" stroke="none" /><path d="M 117.2510076193507 88.02491185347247 l 46.45303245798971 -32.246183564022374 a77.5482146401429,77.5482146401429 0 0,0 0.7517580586572783,1.1031121890073474 l -47.00121498231572 31.441793351744618" fill="#43ffe1" stroke="none" /><line stroke="#e1ed5e" stroke-width="0.3" x1="172.23445277983987" x2="176.4835382374775" y1="55.19839476539836" y2="52.563006222186495" /><path d="M 173.08426987136738 54.67131705675599 a86.0,86.0 0 0,1 12.851231095245387,41.99856678651699" fill="none" id="id27" stroke="none" /><text fill="#e1ed5e" style="font-size:6.75px; font-family:Arial;" text-anchor="middle"><textPath startOffset="22.20632615414155" xlink:href="#id27">March</textPath></text><path d="M 117.84615892207809 88.93136811851018 l 22.27790496977553 -13.817311068332923 a47.2149410642371,47.2149410642371 0 0,0 0.42242578622938914,0.6943569231792741 l -22.51244655429114 13.431786371946568" fill="#ffe815" stroke="none" /><path d="M 118.03404312379186 89.2402003453031 l 10.408425690685483 -6.210064730566548 a33.120240480961925,33.120240480961925 0 0,0 0.2878942609055159,0.49210461418333545 l -10.513779626061327 6.029980704029317" fill="#ff0000" stroke="none" /><path d="M 118.21658344932153 89.55222093294921 l 33.2289040784134 -19.057813415853037 a59.30613943542036,59.30613943542036 0 0,0 0.5002680678776295,0.889921071343208 l -33.552029787583464 18.483008834575035" fill="#6eff28" stroke="none" /><path d="M 118.3937258080291 89.86733742301442 l 43.34238114588398 -23.876278684258697 a70.48372143648318,70.48372143648318 0 0,0 0.5762611479802874,1.0677243883068062 l -43.74695039308273 23.12667331261943" fill="#39ff86" stroke="none" /><path d="M 118.56541770881063 90.18545643968196 l 17.80502806637393 -9.412566218059377 a41.13989640623099,41.13989640623099 0 0,0 0.3255744144516962,0.6289061404658932 l -17.96441191398574 9.104687355333139" fill="#ff890c" stroke="none" /><path d="M 118.89224826269711 90.83032412892265 l 56.676744788091334 -27.509027613232025 a84.0,84.0 0 0,0 0.6201672246329752,1.3062303374378386 l -57.14187020656606 26.529354860153646" fill="#4dd2ff" stroke="none" /><path d="M 119.04729006885535 91.15688171328212 l 36.59506046778527 -16.990051984107055 a61.34675101000724,61.34675101000724 0 0,0 0.4364315458438826,0.9616190600733495 l -36.882094330592494 16.357610915191643" fill="#54ff2b" stroke="none" /><path d="M 119.196687751892 91.48605970444005 l 18.498199551888153 -8.204153164110675 a41.23589671355491,41.23589671355491 0 0,0 0.2821895926526433,0.6513324863630789 l -18.636679854383477 7.884521533160994" fill="#ff8a0c" stroke="none" /><path d="M 119.34039704204932 91.81776055985345 l 33.6517484844729 -14.236867168801924 a57.53941109055172,57.53941109055172 0 0,0 0.3780567085636167,0.9154943069759317 l -33.89182687992271 13.65549829137269" fill="#85ff25" stroke="none" /><line stroke="#e1ed5e" stroke-width="0.3" x1="184.98032266829074" x2="189.97916517819016" y1="98.17113171792111" y2="98.06355123074" /><path d="M 185.9800911702706 98.14961562048488 a86.0,86.0 0 0,1 -9.607161424134198,41.387399972396054" fill="none" id="id28" stroke="none" /><text fill="#e1ed5e" style="font-size:6.75px; font-family:Arial;" text-anchor="middle"><textPath startOffset="21.466115282336823" xlink:href="#id28">April</textPath></text><line stroke="#e1ed5e" stroke-width="0.3" x1="174.80103733775053" x2="179.2010983576182" y1="140.37084112569926" y2="142.7455964860345" /><path d="M 175.68104954172406 140.8457921977663 a86.0,86.0 0 0,1 -30.038265399797805,32.042727171017184" fill="none" id="id29" stroke="none" /><text fill="#e1ed5e" style="font-size:6.75px; font-family:Arial;" text-anchor="middle"><textPath startOffset="22.206326154141568" xlink:href="#id29">May</textPath></text><line stroke="#e1ed5e" stroke-width="0.3" x1="143.8653032363475" x2="146.44561519142675" y1="172.8068346515853" y2="177.08958963109032" /><path d="M 144.38136562736335 173.6633856474863 a86.0,86.0 0 0,1 -40.68145358897372,12.25698825130547" fill="none" id="id30" stroke="none" /><text fill="#e1ed5e" style="font-size:6.75px; font-family:Arial;" text-anchor="middle"><textPath startOffset="21.466115282336833" xlink:href="#id30">June</textPath></text><line stroke="#e1ed5e" stroke-width="0.3" x1="102.19456741930631" x2="102.32365962044197" y1="184.97166512339345" y2="189.96999836594603" /><path d="M 102.22038585953345 185.97133177190398 a86.0,86.0 0 0,1 -42.740103519485714,-10.115201625700543" fill="none" id="id31" stroke="none" /><text fill="#e1ed5e" style="font-size:6.75px; font-family:Arial;" text-anchor="middle"><textPath startOffset="22.20632615414155" xlink:href="#id31">July</textPath></text><line stroke="#e1ed5e" stroke-width="0.3" x1="58.666819895761336" x2="56.23545636021788" y1="174.27360380694188" y2="178.64263932499728" /><path d="M 58.180547188652646 175.14741091055294 a86.0,86.0 0 0,1 -31.652253787137756,-30.449443065178592" fill="none" id="id32" stroke="none" /><text fill="#e1ed5e" style="font-size:6.75px; font-family:Arial;" text-anchor="middle"><textPath startOffset="22.20632615414155" xlink:href="#id32">August</textPath></text><line stroke="#e1ed5e" stroke-width="0.3" x1="26.63291911575756" x2="22.317208475507996" y1="142.92168965132927" y2="145.44649492493687" /><path d="M 25.769776987707644 143.4266507060508 a86.0,86.0 0 0,1 -11.730757126820373,-40.83630448921669" fill="none" id="id33" stroke="none" /><text fill="#e1ed5e" style="font-size:6.75px; font-family:Arial;" text-anchor="middle"><textPath startOffset="21.46611528233685" xlink:href="#id33">September</textPath></text><line stroke="#e1ed5e" stroke-width="0.3" x1="15.007084014347285" x2="10.007500721073583" y1="101.09737516637583" y2="101.16192664675087" /><path d="M 14.007167355692545 101.11028546245083 a86.0,86.0 0 0,1 10.666146001902534,-42.60595125391555" fill="none" id="id34" stroke="none" /><text fill="#e1ed5e" style="font-size:6.75px; font-family:Arial;" text-anchor="middle"><textPath startOffset="22.20632615414155" xlink:href="#id34">October</textPath></text><line stroke="#e1ed5e" stroke-width="0.3" x1="26.266209847984243" x2="21.928928074336255" y1="57.711370442889674" y2="55.22380399835377" /><path d="M 25.398753493254645 57.213857153982495 a86.0,86.0 0 0,1 29.58750427330803,-30.492523968695096" fill="none" id="id35" stroke="none" /><text fill="#e1ed5e" style="font-size:6.75px; font-family:Arial;" text-anchor="middle"><textPath startOffset="21.46611528233685" xlink:href="#id35">November</textPath></text><line stroke="#e1ed5e" stroke-width="0.3" x1="56.762969772571076" x2="54.21961505331055" y1="26.818313649435495" y2="22.513508569990535" /><path d="M 56.25429882871897 25.957352633546506 a86.0,86.0 0 0,1 42.265352541879196,-11.944610805530505" fill="none" id="id36" stroke="none" /><text fill="#e1ed5e" style="font-size:6.75px; font-family:Arial;" text-anchor="middle"><textPath startOffset="22.20632615414155" xlink:href="#id36">December</textPath></text></svg>