<?xml version="1.0" encoding="utf-8" ?>
<svg baseProfile="full" height="200mm" version="1.1" viewBox="0,0,200,200" width="200mm" xmlns="http://www.w3.org/2000/svg" xmlns:ev="http://www.w3.org/2001/xml-events" xmlns:xlink="http://www.w3.org/1999/xlink"><defs /><rect fill="#1a1a1a" height="200" width="200" x="0" y="0" /><text alignment-baseline="middle" fill="#e1ed5e" style="dominant-baseline: central; font-size:9.0px; font-family:Arial;" text-anchor="middle" x="100.0" y="100.0">2023</text><line stroke="#e1ed5e" stroke-width="0.3" x1="100.0" x2="100.0" y1="15.0" y2="10.0" /><path d="M 100.0 14.0 a86.0,86.0 0 0,1 42.46469731375804,11.215312516191453" fill="none" id="id61" stroke="none" /><text fill="#e1ed5e" style="font-size:6.75px; font-family:Arial;" text-anchor="middle"><textPath startOffset="22.20632615414155" xlink:href="#id61">January</textPath></text><path d="M 100.0 79.0 l 0.0 -9.985509990579835 a30.985509990579835,30.985509990579835 0 0,0 0.5333646191380246,0.004590837666140821 l -0.17188413986549617 9.984030529522254" fill="#ff6309" stroke="none" /><path d="M 101.08401301168833 79.027996857942 l 0.47938746016048006 -9.274533803879645 a30.28691496764482,30.28691496764482 0 0,0 0.5204127782806595,0.031392719971541 l -0.6389622872807514 9.2649078145278" fill="#ff5908" stroke="none" /><line stroke="#e1ed5e" stroke-width="0.3" x1="143.23703022742887" x2="145.7803849466894" y1="26.81831364943548" y2="22.513508569990506" /><path d="M 143.74570117128098 25.957352633546492 a86.0,86.0 0 0,1 28.547481713284135,27.462654790039103" fill="none" id="id62" stroke="none" /><text fill="#e1ed5e" style="font-size:6.75px; font-family:Arial;" text-anchor="middle"><textPath startOffset="19.985693538727396" xlink:href="#id62">February</textPath></text><path d="M 110.68208982089419 81.91981866633111 l 3.11832536520837 -5.277982960793624 a27.13033907852818,27.13033907852818 0 0,0 0.4000277207185881,0.2410122257922323 l -3.2087151521445954 5.2235241255427765" fill="#ff2b04" stroke="none" /><path d="M 111.60114157652 82.49532879139004 l 9.07628188429859 -13.694973820754637 a37.429583098618224,37.429583098618224 0 0,0 0.5339870184126791,0.3605504184989285 l -9.31067359711781 13.536711489957037" fill="#ffbc11" stroke="none" /><path d="M 111.90073688211348 82.69761687909136 l 4.275835290829363 -6.21660163540166 a28.545124473962005,28.545124473962005 0 0,0 0.4024439273070841,0.2819376895757076 l -4.382210357720099 6.1420791030620165" fill="#ff4006" stroke="none" /><path d="M 112.48926042617603 83.11751280151076 l 5.447708164156943 -7.363995961660369 a30.16001969240091,30.16001969240091 0 0,0 0.41470579470969876,0.3123478068225788 l -5.573660112625024 7.269131565331943" fill="#ff5808" stroke="none" /><path d="M 114.16331599549186 84.49514656593476 l 5.044309821834994 -5.522102626846831 a28.47921646966376,28.47921646966376 0 0,0 0.35909866651747235,0.3337430745415152 l -5.138616372147313 5.434454966230676" fill="#ff3f05" stroke="none" /><path d="M 114.42810811169701 84.74124197986012 l 5.323331179734968 -5.629804109021734 a28.74806744647312,28.74806744647312 0 0,0 0.3566358706460289,0.3430834249992498 l -5.419450293993415 5.537337597260182" fill="#ff4306" stroke="none" /><path d="M 114.68862486808459 84.99185889309783 l 7.304227073939047 -7.4631132312951065 a31.44269085297445,31.44269085297445 0 0,0 0.38354722585421175,0.3819001521754868 l -7.431610099960581 7.336277228469501" fill="#ff6a09" stroke="none" /><path d="M 115.19652480421416 85.50635884689758 l 13.544861556081585 -12.918372153603093 a39.71757499443784,39.71757499443784 0 0,0 0.467594401462564,0.498797105403461 l -13.765223279514613 12.683305631321577" fill="#ffda14" stroke="none" /><path d="M 115.68641384162765 86.03803664274999 l 9.1594981930263 -8.152569442128229 a33.262169288375325,33.262169288375325 0 0,0 0.376984139318302,0.43095803953861866 l -9.29847419592245 7.993695846386663" fill="#ff830c" stroke="none" /><path d="M 116.15771136456269 86.58626213691792 l 9.020405355405323 -7.488520504303701 a32.72372176909713,32.72372176909713 0 0,0 0.3560676080528924,0.4364967855649576 l -9.147971455534623 7.332139549130642" fill="#ff7c0b" stroke="none" /><path d="M 117.2510076193507 88.02491185347247 l 17.172530474738434 -11.920611866361407 a41.90446818683165,41.90446818683165 0 0,0 0.4062249762858008,0.5960850271701295 l -17.375179916692968 11.62324881592087" fill="#fff617" stroke="none" /><line stroke="#e1ed5e" stroke-width="0.3" x1="172.23445277983987" x2="176.4835382374775" y1="55.19839476539836" y2="52.563006222186495" /><path d="M 173.08426987136738 54.67131705675599 a86.0,86.0 0 0,1 12.851231095245387,41.99856678651699" fill="none" id="id63" stroke="none" /><text fill="#e1ed5e" style="font-size:6.75px; font-family:Arial;" text-anchor="middle"><textPath startOffset="22.20632615414155" xlink:href="#id63">March</textPath></text><path d="M 117.84615892207809 88.93136811851018 l 8.235587253701393 -5.107916164880579 a30.691011555084287,30.691011555084287 0 0,0 0.274588390753109,0.4513511162420893 l -8.322291442740726 4.965397275431408" fill="#ff5f08" stroke="none" /><path d="M 118.03404312379186 89.2402003453031 l 3.847736044551913 -2.295706441386699 a25.480551387225503,25.480551387225503 0 0,0 0.22148705451903317,0.3785931722566128 l -3.8866827735412732 2.229133856776191" fill="#ff1302" stroke="none" /><path d="M 118.21658344932153 89.55222093294921 l 12.283899193120806 -7.045199513327491 a35.16082679681324,35.16082679681324 0 0,0 0.29659389489979643,0.5276074441905919 l -12.403350729313035 6.832708559202105" fill="#ff9d0e" stroke="none" /><path d="M 118.3937258080291 89.86733742301442 l 16.022600069188922 -8.826466252759333 a39.29290079479666,39.29290079479666 0 0,0 0.32125108688947296,0.5952294744217126 l -16.172159255296858 8.549355795005162" fill="#ffd513" stroke="none" /><path d="M 118.56541770881063 90.18545643968196 l 6.582075935513884 -3.4795915717945176 a28.445218675591363,28.445218675591363 0 0,0 0.22511081026576063,0.4348424341016331 l -6.64099617893976 3.3657764154325394" fill="#ff3f05" stroke="none" /><path d="M 118.89224826269711 90.83032412892265 l 20.95198258504803 -10.169403158897486 a44.28953273151589,44.28953273151589 0 0,0 0.32698710231423245,0.6887182295815738 l -21.123927881204015 9.807242513675373" fill="#eaff1a" stroke="none" /><path d="M 119.04729006885535 91.15688171328212 l 13.52828346946489 -6.280799552285996 a35.915190131077544,35.915190131077544 0 0,0 0.2555069614954215,0.5629757209239752 l -13.634392747923659 6.047001822519958" fill="#ffa80f" stroke="none" /><path d="M 119.196687751892 91.48605970444005 l 6.8383241894890725 -3.03287132777659 a28.480707600982726,28.480707600982726 0 0,0 0.19490201297692356,0.44986071781070547 l -6.889516912308677 2.914711465379282" fill="#ff3f05" stroke="none" /><path d="M 119.34039704204932 91.81776055985345 l 12.440214250823356 -5.263015617810416 a34.507711279106644,34.507711279106644 0 0,0 0.22672932341472735,0.5490430406573764 l -12.52896526112428 5.048098006699737" fill="#ff950d" stroke="none" /><path d="M 119.47837535516314 92.15188598940014 l 6.314342897229931 -2.5441384127730218 a27.807610923602002,27.807610923602002 0 0,0 0.1750640726895367,0.44551896984365474 l -6.357200519801168 2.435070438033583" fill="#ff3505" stroke="none" /><path d="M 119.61058180528143 92.48833698450437 l 13.942006063971887 -5.340364317204945 a35.9298032180034,35.9298032180034 0 0,0 0.21625534584738898,0.5794568114774646 l -14.0318659983209 5.099584368698148" fill="#ffa80f" stroke="none" /><path d="M 119.7369772167798 92.82701384747503 l 7.0076644512208865 -2.546787155806934 a28.456103934219808,28.456103934219808 0 0,0 0.1633474124488598,0.46180513159205056 l -7.050464944479556 2.425784397788269" fill="#ff3f05" stroke="none" /><path d="M 119.85752413597 93.16781622104841 l 36.969996941137644 -12.719904640659374 a60.09701584386198,60.09701584386198 0 0,0 0.3281374510903822,0.9810892126371302 l -37.1834716859998 12.08164232509993" fill="#38ff2e" stroke="none" /><path d="M 119.97218684219823 93.5106431181261 l 19.90941006189053 -6.468959469485841 a41.933992586947156,41.933992586947156 0 0,0 0.21714722559691413,0.6884160459726574 l -20.017812771255652 6.125293257086764" fill="#fff717" stroke="none" /><path d="M 120.18372546131832 94.20196356495316 l 30.383935898585005 -8.728178933950739 a52.61272952771374,52.61272952771374 0 0,0 0.2425527740426873,0.8725913805132686 l -30.529675443194055 8.203876250018519" fill="#88ff25" stroke="none" /><path d="M 120.37134235888165 94.90015583598534 l 11.472422864730397 -2.872052698495588 a32.826460716973806,32.826460716973806 0 0,0 0.13250510249171824,0.5493191946808074 l -11.520160767482935 2.6741482721553744" fill="#ff7d0b" stroke="none" /><path d="M 120.45610955862082 95.25157060432595 l 14.752289794591443 -3.424414907116053 a36.14452612793433,36.14452612793433 0 0,0 0.13546557549618762,0.6072656128193784 l -14.809049757089667 3.169971124746711" fill="#ffab0f" stroke="none" /><path d="M 120.53481517161879 95.60439243477599 l 14.571816840359485 -3.11918991270344 a35.901919062338756,35.901919062338756 0 0,0 0.12415345906237307,0.6054163585916671 l -14.623349595336855 2.867897897948361" fill="#ffa80f" stroke="none" /><path d="M 120.67395015179393 96.31383870115 l 22.02777000147295 -3.927547115245059 a43.37517100672666,43.37517100672666 0 0,0 0.12473075396848651,0.7361679705251527 l -22.092112616961657 3.5477933564040685" fill="#f5ff19" stroke="none" /><path d="M 120.78858239683441 97.02765380044208 l 14.7589792918368 -2.1102350881859637 a35.90907649266978,35.90907649266978 0 0,0 0.08222152704313172,0.6126458790819294 l -14.793116817937769 1.85587086703937" fill="#ffa80f" stroke="none" /><path d="M 120.83666639777658 97.38593545837742 l 14.790601610797651 -1.8555553216601668 a35.906541569427546,35.906541569427546 0 0,0 0.07165859438269852,0.6139270755048538 l -14.820350558183938 1.6006845078304603" fill="#ffa80f" stroke="none" /><path d="M 120.91429891909075 98.10471618934814 l 16.33773363838718 -1.4805488908505944 a37.4046812055915,37.4046812055915 0 0,0 0.05259012000773012,0.6417326699835598 l -16.360798242214408 1.1991023036592658" fill="#ffbc11" stroke="none" /><path d="M 120.94382443527127 98.46500227214037 l 13.41952780059721 -0.9835331052611119 a34.45552168294288,34.45552168294288 0 0,0 0.03826106677527498,0.5918817682645071 l -13.4344694583769 0.7523922727435696" fill="#ff940d" stroke="none" /><path d="M 120.96714384426684 98.82574320788733 l 13.557146440476291 -0.7592627497401531 a34.57839090362558,34.57839090362558 0 0,0 0.02816721435489148,0.594565376483214 l -13.568207263064679 0.5257862666339393" fill="#ff950d" stroke="none" /><path d="M 120.98425023603335 99.18683210126433 l 15.722617041308407 -0.6092725409913495 a36.73441767771682,36.73441767771682 0 0,0 0.019046455412806383,0.6320591297103775 l -15.730775191176859 0.338543263855973" fill="#ffb310" stroke="none" /><line stroke="#e1ed5e" stroke-width="0.3" x1="184.98032266829074" x2="189.97916517819016" y1="98.17113171792111" y2="98.06355123074" /><path d="M 185.9800911702706 98.14961562048488 a86.0,86.0 0 0,1 -9.607161424134198,41.387399972396054" fill="none" id="id64" stroke="none" /><text fill="#e1ed5e" style="font-size:6.75px; font-family:Arial;" text-anchor="middle"><textPath startOffset="21.466115282336823" xlink:href="#id64">April</textPath></text><path d="M 120.99513854157772 99.54816195383933 l 5.966871465379583 -0.1284135153130716 a26.968253104156705,26.968253104156705 0 0,0 0.005993364061178326,0.46419265145719163 l -5.968197836558477 0.025684605795417235" fill="#ff2904" stroke="none" /><path d="M 120.99980553446 99.90962569577887 l 62.9777953994749 -0.27102986412271973 a83.97837859587501,83.97837859587501 0 0,0 -0.006221209104987852,1.4455898999157797 l -62.973129893080404 -0.8130695139967447" fill="#4dd2ff" stroke="none" /><path d="M 120.9764740272857 100.99374915477107 l 14.417980812983178 0.6830440725057088 a35.434151167579486,35.434151167579486 0 0,0 -0.034107309442842654,0.6090089220964581 l -14.404087152652806 -0.9311247109375902" fill="#ffa10e" stroke="none" /><path d="M 120.95626037817324 101.35467743843564 l 11.577136246391461 0.7483818673591568 a32.601299887810114,32.601299887810114 0 0,0 -0.041020882621518345,0.5596973521276369 l -11.562538805105605 -0.947552355983564" fill="#ff7a0b" stroke="none" /><path d="M 120.89721153311464 102.0752229133903 l 14.865035939015746 1.4761904065588964 a35.9381535533896,35.9381535533896 0 0,0 -0.06643030520211325,0.6150621224646369 l -14.83742333231258 -1.7318488509083245" fill="#ffa80f" stroke="none" /><path d="M 120.8583938346157 102.4346265915055 l 29.783557672070945 3.4763866323074346 a50.985756145591225,50.985756145591225 0 0,0 -0.10925152745046872,0.8708421673169484 l -29.71930463537363 -3.9885465539117777" fill="#9aff22" stroke="none" /><path d="M 120.81339534386255 102.79330883721812 l 15.522777621768093 2.083269509500878 a36.66194869561512,36.66194869561512 0 0,0 -0.08932587602818201,0.6247449688927523 l -15.484617694723308 -2.3501599503740396" fill="#ffb210" stroke="none" /><path d="M 120.76222939487914 103.15116336523771 l 4.435422891287063 0.6731811819692036 a25.486217686237566,25.486217686237566 0 0,0 -0.06956310884483048,0.4331695451799322 l -4.423178028080944 -0.7494299568423408" fill="#ff1302" stroke="none" /><path d="M 120.70491114924044 103.5080841355445 l 15.04874369987255 2.54974574162009 a36.26322018092393,36.26322018092393 0 0,0 -0.10957287298652153,0.6145428619249322 l -15.00262438454684 -2.8084073542782404" fill="#ffac10" stroke="none" /><path d="M 120.64145759157962 103.86396538481128 l 19.13538131861354 3.5820363320877715 a40.467763161009046,40.467763161009046 0 0,0 -0.13406404740173095,0.6835896894111175 l -19.070887338236147 -3.910889748566834" fill="#ffe415" stroke="none" /><path d="M 120.49622156327973 104.57218783832717 l 27.667847052969083 6.1719958197036044 a49.34789750484026,49.34789750484026 0 0,0 -0.1920794864077489,0.8274734002573717 l -27.557507000630782 -6.647337877309541" fill="#adff20" stroke="none" /><path d="M 120.32669344350535 105.2749913415812 l 17.56003695480666 4.557014801836713 a39.14170007905363,39.14170007905363 0 0,0 -0.17485515141282054,0.6507010661200467 l -17.47899372705206 -4.858606801132308" fill="#ffd313" stroke="none" /><path d="M 120.23288151984713 105.62410040840565 l 10.032204530181858 2.788635199591244 a31.412570000331364,31.412570000331364 0 0,0 -0.14929551335066157,0.5197172677049602 l -9.982716379945098 -2.9609099428007863" fill="#ff6909" stroke="none" /><path d="M 120.02730092923936 106.31721596034902 l 4.3052975561971065 1.3580209600961421 a25.514400068166005,25.514400068166005 0 0,0 -0.13572172372789232,0.4177085147543852 l -4.281283581452968 -1.4319283748283225" fill="#ff1302" stroke="none" /><path d="M 119.9155931802556 106.66101706037122 l 13.67550156987582 4.5739410542080154 a35.42013453318122,35.42013453318122 0 0,0 -0.19836821858697234,0.576550897318603 l -13.594742520345617 -4.808664654615919" fill="#ffa10e" stroke="none" /><path d="M 119.67450827220406 107.3425965602758 l 27.936769819506882 10.426101996751354 a50.81889855099905,50.81889855099905 0 0,0 -0.3129130613048299,0.8169172623959321 l -27.753162478608548 -10.90544282598043" fill="#9cff22" stroke="none" /><path d="M 119.54520255179757 107.68017299344265 l 17.35316879610079 6.8188261536439105 a39.644807786072356,39.644807786072356 0 0,0 -0.25504332810316893,0.6329966244009624 l -17.233222853740227 -7.116522145887687" fill="#ffd914" stroke="none" /><path d="M 119.41010516605496 108.01547362559984 l 11.190472467462563 4.6211463644108575 a33.107091631202984,33.107091631202984 0 0,0 -0.2220524462776791,0.5248663897681926 l -11.109269039992574 -4.813087279845213" fill="#ff810b" stroke="none" /><path d="M 119.12269723197855 108.67885076344098 l 7.465626861253621 3.3882804605620294 a29.19853821793239,29.19853821793239 0 0,0 -0.21165517466388506,0.45588641649772216 l -7.406197069749904 -3.516286944338582" fill="#ff4a06" stroke="none" /><path d="M 118.97047184881838 109.00673069616215 l 16.798308864306527 7.975439161318825 a39.59545133941462,39.59545133941462 0 0,0 -0.2976196688951022,0.6131846699579602 l -16.65853593879671 -8.26341278724206" fill="#ffd914" stroke="none" /><line stroke="#e1ed5e" stroke-width="0.3" x1="174.80103733775053" x2="179.2010983576182" y1="140.37084112569926" y2="142.7455964860345" /><path d="M 175.68104954172406 140.8457921977663 a86.0,86.0 0 0,1 -30.038265399797805,32.042727171017184" fill="none" id="id65" stroke="none" /><text fill="#e1ed5e" style="font-size:6.75px; font-family:Arial;" text-anchor="middle"><textPath startOffset="22.206326154141568" xlink:href="#id65">May</textPath></text><path d="M 118.30583269289576 110.29060199501025 l 38.993168005839465 21.919962844868888 a65.73200109823006,65.73200109823006 0 0,0 -0.5629413898298224,0.9815357636392563 l -38.610074619857265 -22.58791845436646" fill="#35ff6a" stroke="none" /><path d="M 117.94076556474637 110.91462005526583 l 14.654383926602717 8.915284697613982 a38.153229127711846,38.153229127711846 0 0,0 -0.34616853617520715,0.5581339027759231 l -14.498750750759546 -9.166214931755178" fill="#ffc612" stroke="none" /><path d="M 117.75023020441432 111.22182372390056 l 15.137131874353214 9.569804088353955 a38.908487140767534,38.908487140767534 0 0,0 -0.3627663121675648,0.5630213724672933 l -14.970160698808598 -9.828947060742701" fill="#ffd013" stroke="none" /><path d="M 117.35343817320211 111.8261652097733 l 27.46382501547447 18.716275626974166 a54.234931289615574,54.234931289615574 0 0,0 -0.5323780731507252,0.7669303210065695 l -27.137586035161608 -19.186247210167757" fill="#76ff27" stroke="none" /><path d="M 116.93607887273984 112.41649034213515 l 15.99426808756447 11.726012658007722 a40.832195655364046,40.832195655364046 0 0,0 -0.42045248888448034,0.563264818224508 l -15.790054331984898 -11.999590355741546" fill="#ffe915" stroke="none" /><path d="M 116.71984013943494 112.70617746262583 l 15.493963358954847 11.77457717277887 a40.460307504414224,40.460307504414224 0 0,0 -0.42616877110652635,0.5508805847836539 l -15.288987770630252 -12.039535751675775" fill="#ffe415" stroke="none" /><path d="M 116.498646956653 112.99209946851258 l 10.886112619231497 8.572427687317303 a34.85618866834872,34.85618866834872 0 0,0 -0.3752552339023914,0.46818860242316035 l -10.736939473274251 -8.758544123318714" fill="#ff990e" stroke="none" /><path d="M 116.0416608686014 113.55231037782055 l 12.076978839575562 10.202869079513762 a36.80986892245644,36.80986892245644 0 0,0 -0.41307244444260316,0.4804965737384609 l -11.89956388556218 -10.409242752413752" fill="#ffb410" stroke="none" /><path d="M 115.80600337817218 113.82643327865902 l 22.538532242078325 19.71576905230537 a50.94489914745158,50.94489914745158 0 0,0 -0.5830550316975192,0.655068509036116 l -22.195818360732467 -20.100811731082352" fill="#9bff22" stroke="none" /><path d="M 115.56566222782051 114.09645910891815 l 11.622907373840388 10.525850819841752 a36.680736950234085,36.680736950234085 0 0,0 -0.4278608701582802,0.4643584710086688 l -11.440000095686386 -10.724360545651756" fill="#ffb210" stroke="none" /><path d="M 115.32070863581623 114.36230785411682 l 10.832535655458988 10.154896592752177 a35.84808922172412,35.84808922172412 0 0,0 -0.42589825744773924,0.44655262021516007 l -10.656130846632285 -10.339856329549844" fill="#ffa70f" stroke="none" /><path d="M 115.07121518719521 114.62390073753431 l 9.637561578954873 9.35151825064875 a34.428830432333406,34.428830432333406 0 0,0 -0.41635829793639745,0.4217687576116929 l -9.47516265596294 -9.516027502241108" fill="#ff930d" stroke="none" /><path d="M 114.81725581225074 114.88116024355365 l 9.513354532799143 9.554384094474043 a34.48295849921183,34.48295849921183 0 0,0 -0.4242225700235661,0.4151910717833778 l -9.347482010399784 -9.716725269179994" fill="#ff940d" stroke="none" /><path d="M 114.29624159901734 115.38237550388516 l 42.88872479705202 46.14712651165547 a84.0,84.0 0 0,0 -1.0676018021325442,0.9752289336536681 l -42.088023445452606 -46.878548211895726" fill="#4dd2ff" stroke="none" /><path d="M 113.20401910651253 116.32954008644616 l 9.564317916962137 11.828285885129961 a36.21132881102396,36.21132881102396 0 0,0 -0.4880640618432687,0.3877476084956368 l -9.359296362401517 -11.991167407630725" fill="#ffac0f" stroke="none" /><path d="M 112.63410532772338 116.77436683061366 l 9.069865302393069 12.042106958911306 a36.07563586099816,36.07563586099816 0 0,0 -0.4992439039482421,0.36932870490482955 l -8.861236428026261 -12.196445612555904" fill="#ffaa0f" stroke="none" /><path d="M 112.34349029814194 116.9893568818739 l 1.8957937917964829 2.6093362999701704 a24.225317042920913,24.225317042920913 0 0,0 -0.339468989520395,0.24220211056210836 l -1.8505974744272033 -2.641582672376498" fill="#ff0000" stroke="none" /><path d="M 112.04921762599082 117.19931262002967 l 6.049306261182404 8.634909979213143 a31.543043990740784,31.543043990740784 0 0,0 -0.4473751662228417,0.30770871871263183 l -5.8997742103366795 -8.73775948729087" fill="#ff6b09" stroke="none" /><path d="M 111.7513745106137 117.40417183066458 l 4.18395415394529 6.196573597507089 a28.476830659553418,28.476830659553418 0 0,0 -0.4086090274962362,0.27080378265524924 l -4.07667042770909 -6.267675401253657" fill="#ff3f05" stroke="none" /><path d="M 111.45004920935366 117.60387380957326 l 6.537859993095585 10.051630364094207 a32.990783388323734,32.990783388323734 0 0,0 -0.47870914586428903,0.3055348262299114 l -6.363869045184366 -10.162679619147927" fill="#ff800b" stroke="none" /><line stroke="#e1ed5e" stroke-width="0.3" x1="143.8653032363475" x2="146.44561519142675" y1="172.8068346515853" y2="177.08958963109032" /><path d="M 144.38136562736335 173.6633856474863 a86.0,86.0 0 0,1 -40.68145358897372,12.25698825130547" fill="none" id="id66" stroke="none" /><text fill="#e1ed5e" style="font-size:6.75px; font-family:Arial;" text-anchor="middle"><textPath startOffset="21.466115282336833" xlink:href="#id66">June</textPath></text><path d="M 110.5260780823613 118.17145234162733 l 3.7423187535834237 6.460465744774745 a28.46609451405687,28.46609451405687 0 0,0 -0.42611199578245085,0.24195751204524027 l -3.630557990879774 -6.523926422614614" fill="#ff3f05" stroke="none" /><path d="M 110.21172684928248 118.3499491758327 l 11.624383948629736 20.888421498731013 a44.905071739984564,44.905071739984564 0 0,0 -0.678659304841567,0.37005916419059415 l -11.26310183191952 -21.085421314681376" fill="#e2ff1b" stroke="none" /><path d="M 107.93186726928326 119.44442032107085 l 2.4826955945160125 6.086155381846474 a27.573055967128838,27.573055967128838 0 0,0 -0.4410099223084111,0.17548694949404003 l -2.3775645961657355 -6.127989175746583" fill="#ff3204" stroke="none" /><path d="M 107.2578585660854 119.70592522655815 l 2.57630290020669 6.994960269640578 a28.45431457663705,28.45431457663705 0 0,0 -0.4610688888627522,0.16532289950085677 l -2.4555144507142033 -7.038270710181395" fill="#ff3f05" stroke="none" /><path d="M 106.91757812671514 119.82793768551818 l 3.4436931172635488 9.870699150249193 a31.45417256413048,31.45417256413048 0 0,0 -0.5127483473389207,0.17395207862805337 l -3.273275036987401 -9.928514215775369" fill="#ff6a09" stroke="none" /><path d="M 106.57524785965236 119.94407469862006 l 3.7413726495740254 11.348350235792253 a32.94918082452461,32.94918082452461 0 0,0 -0.540176174029653,0.17294735272294906 l -3.5454751304534318 -11.411070435174908" fill="#ff7f0b" stroke="none" /><path d="M 104.83641907484287 120.43548508189849 l 2.577920870805751 10.89257623924521 a32.19347547207324,32.19347547207324 0 0,0 -0.5403595916629016,0.12298408380268636 l -2.390041129749987 -10.935337056625581" fill="#ff740a" stroke="none" /><path d="M 104.13013068566511 120.58985236759428 l 0.8801472348142321 4.387779226809873 a25.475183314477228,25.475183314477228 0 0,0 -0.4306911953029507,0.08254299263349468 l -0.8044884249395771 -4.402279417791836" fill="#ff1302" stroke="none" /><path d="M 103.06178313531738 120.77559828337769 l 2.177970791549982 14.778527491458728 a35.9381535533896,35.9381535533896 0 0,0 -0.6127821558574394,0.08492602311812036 l -1.9232600445057122 -14.81382808006945" fill="#ffa80f" stroke="none" /><path d="M 102.70371172650421 120.8252237178851 l 1.925007066506611 14.827284442170535 a35.95172284839218,35.95172284839218 0 0,0 -0.6143851154450034,0.07439348132331441 l -1.6694945280102274 -14.8582234522192" fill="#ffa80f" stroke="none" /><path d="M 102.34483914955558 120.86867818915974 l 1.1860668807265966 10.555797846259507 a31.622223063777817,31.622223063777817 0 0,0 -0.5414438398381435,0.05612286782951817 l -1.0041904442828504 -10.574650082544784" fill="#ff6c0a" stroke="none" /><path d="M 101.98527174616119 120.90594882070398 l 1.1599586571152036 12.214970754846991 a33.26992317123395,33.26992317123395 0 0,0 -0.570588184686774,0.04923274948464365 l -0.949526154686888 -12.233127756610298" fill="#ff830c" stroke="none" /><path d="M 101.26447882468166 120.96189622390904 l 0.7186194374248841 11.912912875845613 a32.934567737598755,32.934567737598755 0 0,0 -0.5661796149960773,0.029265018961283047 l -0.5134517540153272 -11.923517701569098" fill="#ff7f0b" stroke="none" /><path d="M 100.90346689309514 120.98055641714683 l 0.4495822228862671 10.440321901666286 a31.449997396437382,31.449997396437382 0 0,0 -0.5410592380579999,0.01863517414774743 l -0.26980263315361486 -10.446513874240127" fill="#ff6a09" stroke="none" /><line stroke="#e1ed5e" stroke-width="0.3" x1="102.19456741930631" x2="102.32365962044197" y1="184.97166512339345" y2="189.96999836594603" /><path d="M 102.22038585953345 185.97133177190398 a86.0,86.0 0 0,1 -42.740103519485714,-10.115201625700543" fill="none" id="id67" stroke="none" /><text fill="#e1ed5e" style="font-size:6.75px; font-family:Arial;" text-anchor="middle"><textPath startOffset="22.20632615414155" xlink:href="#id67">July</textPath></text><path d="M 100.54218724476979 120.99299961872073 l 0.5125060420557448 19.84377030122954 a40.85038745745541,40.85038745745541 0 0,0 -0.7030941290774929,0.01210440305281655 l -0.17085222308558387 -19.849652181561517" fill="#ffe915" stroke="none" /><path d="M 100.18074693466247 120.99922214144158 l 0.14138883595206264 16.426588810603022 a37.42719728850787,37.42719728850787 0 0,0 -0.6442715412290249,0.0 l 0.14138883595205134 -16.426588810603022" fill="#ffbc11" stroke="none" /><path d="M 99.45781275523022 120.99299961872073 l -0.1541949324791069 5.970288290564709 a26.97227915871791,26.97227915871791 0 0,0 -0.46402550138071247,-0.015981976499028404 l 0.25694078553446237 -5.966749515639587" fill="#ff2904" stroke="none" /><path d="M 99.09653310690486 120.98055641714683 l -0.6870080311512811 15.953889253454482 a36.96867440792619,36.96867440792619 0 0,0 -0.6355301217237262,-0.03284964800938782 l 0.9615262212884962 -15.939699798682891" fill="#ffb610" stroke="none" /><path d="M 98.73552117531835 120.96189622390904 l -0.44998899215187904 7.459691986351697 a28.473251944387904,28.473251944387904 0 0,0 -0.4889769034700007,-0.0337227101362776 l 0.5783286564008098 -7.450840931699134" fill="#ff3f05" stroke="none" /><path d="M 98.01472825383883 120.90594882070398 l -0.8084440729353285 8.513338511903298 a29.551638114263262,29.551638114263262 0 0,0 -0.5059907515617534,-0.05244801027073351 l 0.9548674211026752 -8.498161133176804" fill="#ff4f07" stroke="none" /><path d="M 97.2962882734958 120.8252237178851 l -1.158928320090594 8.926595724790902 a30.001512433194947,30.001512433194947 0 0,0 -0.5115563725466629,-0.07089705192268168 l 1.3124132838240878 -8.905324107375614" fill="#ff5507" stroke="none" /><path d="M 95.86986931433489 120.58985236759428 l -1.8461624925371678 9.203634475747542 a30.386969879147358,30.386969879147358 0 0,0 -0.5119604478347796,-0.10728628954197687 l 2.0043144018013344 -9.170492205479023" fill="#ff5b08" stroke="none" /><path d="M 92.06813273071674 119.44442032107085 l -2.824734349206143 6.924639573084277 a28.478620017136173,28.478620017136173 0 0,0 -0.45230631284960876,-0.18906407545426523 l 2.9435121215532143 -6.874990454610038" fill="#ff3f05" stroke="none" /><path d="M 90.42595943632237 118.69057910512821 l -5.102228647892039 9.960643839098793 a32.191387888226686,32.191387888226686 0 0,0 -0.49100925718559,-0.2568728368288644 l 5.272928807604125 -9.871341583325211" fill="#ff740a" stroke="none" /><path d="M 90.10565033884886 118.52300852407294 l -5.032442280637464 9.421131701778544 a31.68097363774503,31.68097363774503 0 0,0 -0.4788008728767259,-0.2610804118744855 l 5.19386596538283 -9.333110638144293" fill="#ff6d0a" stroke="none" /><line stroke="#e1ed5e" stroke-width="0.3" x1="58.666819895761336" x2="56.23545636021788" y1="174.27360380694188" y2="178.64263932499728" /><path d="M 58.180547188652646 175.14741091055294 a86.0,86.0 0 0,1 -31.652253787137756,-30.449443065178592" fill="none" id="id68" stroke="none" /><text fill="#e1ed5e" style="font-size:6.75px; font-family:Arial;" text-anchor="middle"><textPath startOffset="22.20632615414155" xlink:href="#id68">August</textPath></text><path d="M 89.4739219176387 118.17145234162733 l -3.7381332163315606 6.453240138988697 a28.457744178670666,28.457744178670666 0 0,0 -0.421760205069397,-0.24918336327967622 l 3.8486612924293397 -6.387938203415271" fill="#ff3f05" stroke="none" /><path d="M 87.95078237400918 117.19931262002967 l -6.862439797796184 9.795594293511165 a32.96021519628495,32.96021519628495 0 0,0 -0.4618709809755474,-0.32953268149092324 l 7.030038106620618 -9.676017350176023" fill="#ff7f0b" stroke="none" /><path d="M 87.36589467227662 116.77436683061367 l -4.4974338510105785 5.971266128969758 a28.47548864136635,28.47548864136635 0 0,0 -0.3889904587294305,-0.29826129634963255 l 4.599553038233496 -5.892965490792759" fill="#ff3f05" stroke="none" /><path d="M 85.97065885151581 115.62618273729859 l -5.002172813338654 5.571527959687697 a28.487566805049962,28.487566805049962 0 0,0 -0.3620640197552815,-0.3307368975913965 l 5.0973363825607905 -5.484598295509724" fill="#ff3f05" stroke="none" /><path d="M 85.44109423537348 115.13401014063109 l -5.377172081385344 5.589580571729992 a28.75611955559553,28.75611955559553 0 0,0 -0.35376880269883143,-0.3462372319037434 l 5.47259083645997 -5.49619323690368" fill="#ff4306" stroke="none" /><path d="M 84.9287848128048 114.62390073753433 l -10.173171915656427 9.871231644733648 a35.1751416574753,35.1751416574753 0 0,0 -0.4179032094217717,-0.4381698443237133 l 10.341581676457157 -9.694654683827434" fill="#ff9e0e" stroke="none" /><path d="M 84.43433777217949 114.09645910891817 l -14.073709466913192 12.745327960191432 a39.987171536906686,39.987171536906686 0 0,0 -0.45764584792806556,-0.5141699616175102 l 14.291014164489596 -12.501183828833057" fill="#ffde14" stroke="none" /><path d="M 84.19399662182784 113.82643327865904 l -8.42596776519406 7.370685575992823 a32.194817490260306,32.194817490260306 0 0,0 -0.3612833283134068,-0.4202541315426312 l 8.551593603078246 -7.224554345288662" fill="#ff740a" stroke="none" /><path d="M 83.95833913139862 113.55231037782056 l -6.841753286921184 5.780047641719904 a29.95648026736221,29.95648026736221 0 0,0 -0.32938433918306087,-0.3967646553743117 l 6.940233625997781 -5.66142172923183" fill="#ff5507" stroke="none" /><path d="M 82.44556493220864 111.52570212397912 l -3.748897195481822 2.4614105894995655 a25.484726554918602,25.484726554918602 0 0,0 -0.23760883417232953,-0.3687741872356212 l 3.7907108930311977 -2.3965148023424963" fill="#ff1302" stroke="none" /><line stroke="#e1ed5e" stroke-width="0.3" x1="26.63291911575756" x2="22.317208475507996" y1="142.92168965132927" y2="145.44649492493687" /><path d="M 25.769776987707644 143.4266507060508 a86.0,86.0 0 0,1 -11.730757126820373,-40.83630448921669" fill="none" id="id69" stroke="none" /><text fill="#e1ed5e" style="font-size:6.75px; font-family:Arial;" text-anchor="middle"><textPath startOffset="21.46611528233685" xlink:href="#id69">September</textPath></text><path d="M 81.51974371655577 109.97397251340807 l -8.34436728976861 4.503535487464692 a30.482104057297313,30.482104057297313 0 0,0 -0.24523214402420973,-0.46388679834735685 l 8.420651942017704 -4.359233674031209" fill="#ff5c08" stroke="none" /><path d="M 80.58989483394504 108.01547362559985 l -7.166566339423088 2.9594596725944795 a28.753584632353288,28.753584632353288 0 0,0 -0.18497781497904184,-0.45909976685778353 l 7.216446768659518 -2.8356605378938906" fill="#ff4306" stroke="none" /><path d="M 80.45479744820244 107.68017299344265 l -13.903990913461168 5.463491884089763 a35.93889911904908,35.93889911904908 0 0,0 -0.2212907257716592,-0.5777202560262645 l 13.995975918826337 -5.22334806123034" fill="#ffa80f" stroke="none" /><path d="M 79.23777060512086 103.15116336523772 l -7.421365031821802 1.126369098595025 a28.50635505966892,28.50635505966892 0 0,0 -0.06945498612789212,-0.4857680112112829 l 7.439654068966293 -0.9984556154033414" fill="#ff4006" stroke="none" /><path d="M 79.18660465613746 102.79330883721812 l -9.608592549620829 1.289542914006032 a30.694739383381695,30.694739383381695 0 0,0 -0.06577223553873847,-0.5242694311235271 l 9.629366294406417 -1.1239557285950963" fill="#ff5f08" stroke="none" /><line stroke="#e1ed5e" stroke-width="0.3" x1="15.007084014347285" x2="10.007500721073583" y1="101.09737516637583" y2="101.16192664675087" /><path d="M 14.007167355692545 101.11028546245083 a86.0,86.0 0 0,1 10.666146001902534,-42.60595125391555" fill="none" id="id70" stroke="none" /><text fill="#e1ed5e" style="font-size:6.75px; font-family:Arial;" text-anchor="middle"><textPath startOffset="22.20632615414155" xlink:href="#id70">October</textPath></text><path d="M 79.00486145842228 99.54816195383935 l -13.427212470800956 -0.288968107363329 a34.43032156365237,34.43032156365237 0 0,0 0.017851802913116162,-0.5924144292716451 l 13.420248973432194 0.5200526840599685" fill="#ff930d" stroke="none" /><path d="M 79.01574976396665 99.18683210126434 l -13.128206427934048 -0.5087356429270741 a34.138059825135265,34.138059825135265 0 0,0 0.027808525024619956,-0.586994011633124 l 13.117504294675928 0.7346407611832072" fill="#ff8f0d" stroke="none" /><path d="M 79.05617556472873 98.46500227214037 l -14.882132451891842 -1.0907291344979329 a35.922049335144784,35.922049335144784 0 0,0 0.05050557375626864,-0.6162959257537258 l 14.861152394316075 1.3467389774594372" fill="#ffa80f" stroke="none" /><path d="M 79.12142395522702 97.74499172005258 l -7.43804645691826 -0.8033525040699989 a28.48130405351031,28.48130405351031 0 0,0 0.05684006661333663,-0.4869709790993511 l 7.423116037301334 0.9312672214942118" fill="#ff3f05" stroke="none" /><path d="M 79.26566170972629 96.67025291283419 l -15.459105054854613 -2.4825923695254266 a36.65717707539444,36.65717707539444 0 0,0 0.10541231835745836,-0.6221494699949435 l 15.41408087497693 2.7483276278361983" fill="#ffb210" stroke="none" /><path d="M 79.32604984820605 96.31383870115002 l -13.247636373415913 -2.3620509937567835 a34.45656547486615,34.45656547486615 0 0,0 0.10913588138634178,-0.5830082423126755 l 13.20501476811971 2.589737313532032" fill="#ff940d" stroke="none" /><path d="M 79.46518482838121 95.60439243477599 l -8.019697389721646 -1.716667144186853 a29.201371367438426,29.201371367438426 0 0,0 0.10944342065978044,-0.49061339511957314 l 7.988959582059829 1.8544587088563853" fill="#ff4a06" stroke="none" /><path d="M 79.71946130924805 94.55025226153421 l -8.652222776129946 -2.3250088287062187 a29.95916430373635,29.95916430373635 0 0,0 0.1381163546370344,-0.496878013619337 l 8.61091965092655 2.473598145744498" fill="#ff5507" stroke="none" /><path d="M 79.81627453868168 94.20196356495316 l -14.355211223064874 -4.123720264806216 a35.93576774327926,35.93576774327926 0 0,0 0.17590404794154527,-0.593061003072487 l 14.282101278011622 4.370210654625242" fill="#ffa80f" stroke="none" /><path d="M 80.02781315780177 93.51064311812611 l -7.123935501453159 -2.314706959114976 a28.490549067687894,28.490549067687894 0 0,0 0.15556206942996195,-0.4651107872816556 l 7.083036138251425 2.436990849318954" fill="#ff3f05" stroke="none" /><path d="M 80.2630227832202 92.82701384747504 l -14.090866992940505 -5.1210270299903575 a35.99257984653182,35.99257984653182 0 0,0 0.2166331876471626,-0.5804692396497306 l 14.000629216791715 5.362819406669429" fill="#ffa90f" stroke="none" /><path d="M 81.26839172434947 90.50648371742162 l -6.691937527558509 -3.391594407964294 a28.50232900510772,28.50232900510772 0 0,0 0.22556277207694167,-0.4357154804642862 l 6.632565322321454 3.5062826106889156" fill="#ff4006" stroke="none" /><path d="M 81.43458229118936 90.18545643968196 l -9.234152916700916 -4.881602852414628 a31.445076663084798,31.445076663084798 0 0,0 0.2570888086907573,-0.4763465174807403 l 9.148756008791686 5.03983035322784" fill="#ff6a09" stroke="none" /><path d="M 81.6062741919709 89.86733742301443 l -6.571488958747624 -3.620075722685283 a28.50262723137151,28.50262723137151 0 0,0 0.24042964843465456,-0.42769751670414374 l 6.508201669020539 3.7326567493242115" fill="#ff4006" stroke="none" /><line stroke="#e1ed5e" stroke-width="0.3" x1="26.266209847984243" x2="21.928928074336255" y1="57.711370442889674" y2="55.22380399835377" /><path d="M 25.398753493254645 57.213857153982495 a86.0,86.0 0 0,1 29.58750427330803,-30.492523968695096" fill="none" id="id71" stroke="none" /><text fill="#e1ed5e" style="font-size:6.75px; font-family:Arial;" text-anchor="middle"><textPath startOffset="21.46611528233685" xlink:href="#id71">November</textPath></text><path d="M 81.78341655067845 89.55222093294921 l -12.93620687506199 -7.4193183245536 a35.9128043209672,35.9128043209672 0 0,0 0.3121683329253749,-0.5335968718213275 l 12.80657886766629 7.640894608728819" fill="#ffa80f" stroke="none" /><path d="M 82.7489923806493 88.02491185347247 l -4.920786451660527 -3.415849833767049 a26.99017273454549,26.99017273454549 0 0,0 0.2682146875720521,-0.3793706544145427 l 4.861259144284597 3.500046988513378" fill="#ff2904" stroke="none" /><path d="M 82.95767976084542 87.72973835380427 l -9.083095473713081 -6.539717389171915 a32.192431680149966,32.192431680149966 0 0,0 0.32765363067374276,-0.4469191840144327 l 8.969179230525706 6.695099016857848" fill="#ff740a" stroke="none" /><path d="M 83.17141714833178 87.43820079747576 l -11.760904974767266 -8.778999873916863 a35.676161780647476,35.676161780647476 0 0,0 0.3715826162802239,-0.48895916660008604 l 11.608046418262933 8.980143816397975" fill="#ffa40f" stroke="none" /><path d="M 83.39014120810768 87.1503855733568 l -8.290619296016107 -6.413736723872428 a31.481907606663228,31.481907606663228 0 0,0 0.3352761986356121,-0.4257667244361791 l 8.178989016786524 6.555495842261655" fill="#ff6a09" stroke="none" /><path d="M 83.6137871275137 86.86637796730984 l -12.250972495276859 -9.819208595539003 a36.70041988364442,36.70041988364442 0 0,0 0.39933815642106174,-0.48954136149710037 l 12.080135846779404 10.028634126644185" fill="#ffb210" stroke="none" /><path d="M 84.07557802195018 86.31012108654704 l -31.07527145001086 -26.714734383434696 a61.97986736031887,61.97986736031887 0 0,0 0.7024625107677113,-0.8030360827308438 l 30.610817075665302 27.24568602236848" fill="#31ff3c" stroke="none" /><path d="M 84.31358615837235 86.03803664274999 l -14.931160490448743 -13.289737077804487 a40.98891355698726,40.98891355698726 0 0,0 0.4736295494686746,-0.5229935781163735 l 14.700187300364025 13.544783443190417" fill="#ffeb16" stroke="none" /><path d="M 84.5562425177563 85.77008943001954 l -14.284355307980618 -13.16163497232405 a40.423476560835795,40.423476560835795 0 0,0 0.4759049697809494,-0.5076622402478903 l 14.055683016229212 13.40556662944999" fill="#ffe315" stroke="none" /><path d="M 84.80347519578584 85.50635884689758 l -4.743712089355661 -4.524301552002766 a27.555311504433156,27.555311504433156 0 0,0 0.33031698240278157,-0.3404206860485499 l 4.665130843249761 4.60528643360144" fill="#ff3204" stroke="none" /><path d="M 85.31137513191541 84.99185889309783 l -6.788054184560987 -6.9357122234461315 a30.70472996321876,30.70472996321876 0 0,0 0.38090936456066943,-0.366434506913266 l 6.66766157638789 7.051529817121711" fill="#ff5f08" stroke="none" /><path d="M 85.57189188830299 84.74124197986013 l -22.748709387043174 -24.058389992653623 a54.1105709376139,54.1105709376139 0 0,0 0.6822882184590162,-0.6341125406013924 l 22.3312132847893 24.446407119329663" fill="#77ff26" stroke="none" /><path d="M 85.83668400450813 84.49514656593479 l -13.090988665980742 -14.330956157276033 a40.41005637896511,40.41005637896511 0 0,0 0.5176124360270924,-0.46471755577187635 l 12.84236524235768 14.554172721817187" fill="#ffe315" stroke="none" /><path d="M 86.37877921826538 84.01681056812374 l -9.682944515779335 -11.362001903792628 a35.92831208668443,35.92831208668443 0 0,0 0.47415528117168987,-0.397091412005398 l 9.485931697648534 11.526994473191838" fill="#ffa80f" stroke="none" /><path d="M 86.65592168130627 83.78471172551755 l -8.533017868581164 -10.369044701762371 a34.428681319201516,34.428681319201516 0 0,0 0.46084691955873414,-0.37263949252812884 l 8.353267550457929 10.514390291554635" fill="#ff930d" stroke="none" /><path d="M 86.93701828274178 83.55741782278169 l -10.207817795345676 -12.848742085300188 a37.410049278339784,37.410049278339784 0 0,0 0.5076498168670696,-0.3962287342727136 l 9.98513542331918 13.022549208796123" fill="#ffbc11" stroke="none" /><path d="M 87.51073957382395 83.11751280151077 l -10.646753237115854 -14.391859013073368 a38.90192616296409,38.90192616296409 0 0,0 0.5417643099627717,-0.39361481134343324 l 10.397443610799302 14.57299305923347" fill="#ffcf13" stroke="none" /><line stroke="#e1ed5e" stroke-width="0.3" x1="56.762969772571076" x2="54.21961505331055" y1="26.818313649435495" y2="22.513508569990535" /><path d="M 56.25429882871897 25.957352633546506 a86.0,86.0 0 0,1 42.265352541879196,-11.944610805530505" fill="none" id="id72" stroke="none" /><text fill="#e1ed5e" style="font-size:6.75px; font-family:Arial;" text-anchor="middle"><textPath startOffset="22.20632615414155" xlink:href="#id72">December</textPath></text></svg>